SplineFontDB: 3.2
FontName: TTText-Medium
FullName: TT Text Medium
FamilyName: TT Text Medium
Weight: Medium
Copyright: copyright missing
Version: 3.000;Glyphs 3.1.2 (3151)
ItalicAngle: 0
UnderlinePosition: -255
UnderlineWidth: 102
Ascent: 1614
Descent: 434
InvalidEm: 0
sfntRevision: 0x00030000
LayerCount: 2
Layer: 0 0 "Back" 1
Layer: 1 0 "Fore" 0
XUID: [1021 950 161365953 6118276]
StyleMap: 0x0040
FSType: 0
OS2Version: 3
OS2_WeightWidthSlopeOnly: 0
OS2_UseTypoMetrics: 0
CreationTime: 1676543964
PfmFamily: 81
TTFWeight: 500
TTFWidth: 5
LineGap: 0
VLineGap: 0
Panose: 0 0 0 0 0 0 0 0 0 0
OS2TypoAscent: 1614
OS2TypoAOffset: 0
OS2TypoDescent: -434
OS2TypoDOffset: 0
OS2TypoLinegap: 229
OS2WinAscent: 1864
OS2WinAOffset: 0
OS2WinDescent: 434
OS2WinDOffset: 0
HheadAscent: 1864
HheadAOffset: 0
HheadDescent: -434
HheadDOffset: 0
OS2SubXSize: 1331
OS2SubYSize: 1229
OS2SubXOff: 0
OS2SubYOff: 154
OS2SupXSize: 1331
OS2SupYSize: 1229
OS2SupXOff: 0
OS2SupYOff: 717
OS2StrikeYSize: 102
OS2StrikeYPos: 543
OS2CapHeight: 1444
OS2XHeight: 1090
OS2Vendor: 'UKWN'
OS2CodePages: 20000193.00000000
OS2UnicodeRanges: a100007f.4000a47b.00000000.00000000
Lookup: 1 0 0 "'aalt' Access All Alternates in Latin lookup 0" { "'aalt' Access All Alternates in Latin lookup 0 subtable"  } ['aalt' ('DFLT' <'dflt' > 'latn' <'AZE ' 'CAT ' 'CRT ' 'DEU ' 'KAZ ' 'MOL ' 'NLD ' 'ROM ' 'TAT ' 'TRK ' 'dflt' > ) ]
Lookup: 3 0 0 "'aalt' Access All Alternates in Latin lookup 1" { "'aalt' Access All Alternates in Latin lookup 1 subtable"  } ['aalt' ('DFLT' <'dflt' > 'latn' <'AZE ' 'CAT ' 'CRT ' 'DEU ' 'KAZ ' 'MOL ' 'NLD ' 'ROM ' 'TAT ' 'TRK ' 'dflt' > ) ]

StartChar: .notdef
Encoding: 65536 -1 0
Width: 2456
GlyphClass: 1
Flags: HW
LayerCount: 2
UndoRedoHistory
Layer: 1
Undoes
UndoOperation
Index: 0
Type: 1
WasModified: 0
WasOrder2: 0
Layer: 2
Width: 1228
VWidth: 2048
LBearingChange: 0
UnicodeEnc: 0
InstructionsLength: 0
EndUndoOperation
UndoOperation
Index: 1
Type: 3
WasModified: 0
WasOrder2: 0
Layer: 2
EndUndoOperation
EndUndoes
Redoes
EndRedoes
EndUndoRedoHistory
Fore
SplineSet
0 -820 m 1
 0 2888 l 1
 2458 2888 l 1
 2458 -820 l 1
 0 -820 l 1
164 -540 m 1
 1130 1036 l 1
 164 2610 l 1
 164 -540 l 1
290 -656 m 1
 2166 -656 l 1
 1228 872 l 1
 290 -656 l 1
290 2724 m 1
 1228 1196 l 1
 2166 2724 l 1
 290 2724 l 1
1328 1036 m 1
 2294 -540 l 1
 2294 2610 l 1
 1328 1036 l 1
EndSplineSet
EndChar

StartChar: exclam
Encoding: 33 33 3
Width: 1494
GlyphClass: 2
Flags: HW
LayerCount: 2
UndoRedoHistory
Layer: 1
Undoes
UndoOperation
Index: 0
Type: 1
WasModified: 0
WasOrder2: 0
Layer: 2
Width: 747
VWidth: 2048
LBearingChange: 0
UnicodeEnc: 0
InstructionsLength: 0
EndUndoOperation
UndoOperation
Index: 1
Type: 3
WasModified: 0
WasOrder2: 0
Layer: 2
EndUndoOperation
EndUndoes
Redoes
EndRedoes
EndUndoRedoHistory
Fore
SplineSet
500 922 m 1
 500 2888 l 1
 996 2888 l 1
 996 922 l 1
 500 922 l 1
422 304 m 0
 422 394 454 470 516 532 c 0
 578 594 656 626 746 626 c 0
 840 626 918 596 980 532 c 0
 1042 472 1074 394 1074 304 c 0
 1074 212 1042 136 980 72 c 0
 918 12 840 -20 746 -20 c 0
 656 -20 578 12 516 72 c 0
 454 136 422 212 422 304 c 0
EndSplineSet
EndChar

StartChar: quotedbl
Encoding: 34 34 4
Width: 1978
GlyphClass: 2
Flags: HW
LayerCount: 2
UndoRedoHistory
Layer: 1
Undoes
UndoOperation
Index: 0
Type: 1
WasModified: 0
WasOrder2: 0
Layer: 2
Width: 989
VWidth: 2048
LBearingChange: 0
UnicodeEnc: 0
InstructionsLength: 0
EndUndoOperation
UndoOperation
Index: 1
Type: 3
WasModified: 0
WasOrder2: 0
Layer: 2
EndUndoOperation
EndUndoes
Redoes
EndRedoes
EndUndoRedoHistory
Fore
SplineSet
380 1786 m 1
 336 2958 l 1
 798 2958 l 1
 754 1786 l 1
 380 1786 l 1
1180 2958 m 1
 1638 2958 l 1
 1598 1786 l 1
 1220 1786 l 1
 1180 2958 l 1
EndSplineSet
EndChar

StartChar: numbersign
Encoding: 35 35 5
Width: 2776
GlyphClass: 2
Flags: HW
LayerCount: 2
UndoRedoHistory
Layer: 1
Undoes
UndoOperation
Index: 0
Type: 1
WasModified: 0
WasOrder2: 0
Layer: 2
Width: 1388
VWidth: 2048
LBearingChange: 0
UnicodeEnc: 0
InstructionsLength: 0
EndUndoOperation
UndoOperation
Index: 1
Type: 3
WasModified: 0
WasOrder2: 0
Layer: 2
EndUndoOperation
EndUndoes
Redoes
EndRedoes
EndUndoRedoHistory
Fore
SplineSet
1856 0 m 1
 1462 0 l 1
 1622 790 l 1
 902 790 l 1
 742 0 l 1
 348 0 l 1
 508 790 l 1
 66 790 l 1
 140 1142 l 1
 582 1142 l 1
 708 1770 l 1
 238 1770 l 1
 316 2122 l 1
 782 2122 l 1
 938 2888 l 1
 1332 2888 l 1
 1176 2122 l 1
 1896 2122 l 1
 2052 2888 l 1
 2446 2888 l 1
 2290 2122 l 1
 2712 2122 l 1
 2634 1770 l 1
 2216 1770 l 1
 2088 1142 l 1
 2548 1142 l 1
 2474 790 l 1
 2016 790 l 1
 1856 0 l 1
974 1142 m 1
 1696 1142 l 1
 1822 1770 l 1
 1102 1770 l 1
 974 1142 l 1
EndSplineSet
EndChar

StartChar: dollar
Encoding: 36 36 6
Width: 2444
GlyphClass: 2
Flags: HW
LayerCount: 2
UndoRedoHistory
Layer: 1
Undoes
UndoOperation
Index: 0
Type: 1
WasModified: 0
WasOrder2: 0
Layer: 2
Width: 1222
VWidth: 2048
LBearingChange: 0
UnicodeEnc: 0
InstructionsLength: 0
EndUndoOperation
UndoOperation
Index: 1
Type: 3
WasModified: 0
WasOrder2: 0
Layer: 2
EndUndoOperation
EndUndoes
Redoes
EndRedoes
EndUndoRedoHistory
Fore
SplineSet
1156 -380 m 1
 1156 4 l 1
 882 16 662 88 494 222 c 0
 326 356 218 542 172 782 c 1
 586 876 l 1
 656 574 846 408 1156 376 c 1
 1156 1336 l 1
 930 1404 l 2
 734 1462 584 1554 480 1680 c 0
 376 1806 324 1956 324 2130 c 0
 324 2344 400 2520 550 2656 c 0
 700 2792 902 2868 1156 2884 c 1
 1156 3260 l 1
 1422 3260 l 1
 1422 2880 l 1
 1638 2858 1818 2792 1960 2686 c 0
 2104 2580 2198 2440 2240 2266 c 1
 1844 2150 l 1
 1770 2356 1628 2482 1422 2528 c 1
 1422 1688 l 1
 1638 1618 l 2
 2062 1480 2274 1218 2274 832 c 0
 2274 600 2198 412 2048 266 c 0
 1896 120 1688 34 1422 8 c 1
 1422 -380 l 1
 1156 -380 l 1
762 2174 m 0
 762 2078 792 2000 850 1940 c 0
 908 1878 1008 1824 1146 1778 c 1
 1156 1774 l 1
 1156 2540 l 1
 1034 2528 936 2490 868 2424 c 0
 796 2360 762 2276 762 2174 c 0
1422 376 m 1
 1558 394 1662 440 1736 512 c 0
 1808 582 1844 676 1844 794 c 0
 1844 908 1810 1002 1744 1072 c 0
 1678 1144 1570 1204 1422 1254 c 1
 1422 376 l 1
EndSplineSet
Substitution2: "'tnum' Tabular Numbers in Latin lookup 21 subtable" dollar.tf
Substitution2: "'aalt' Access All Alternates in Latin lookup 0 subtable" dollar.tf
EndChar

StartChar: percent
Encoding: 37 37 7
Width: 4004
GlyphClass: 2
Flags: HW
LayerCount: 2
UndoRedoHistory
Layer: 1
Undoes
UndoOperation
Index: 0
Type: 1
WasModified: 0
WasOrder2: 0
Layer: 2
Width: 2002
VWidth: 2048
LBearingChange: 0
UnicodeEnc: 0
InstructionsLength: 0
EndUndoOperation
UndoOperation
Index: 1
Type: 3
WasModified: 0
WasOrder2: 0
Layer: 2
EndUndoOperation
EndUndoes
Redoes
EndRedoes
EndUndoRedoHistory
Fore
SplineSet
1016 2920 m 0
 1230 2920 1398 2844 1522 2696 c 0
 1646 2544 1708 2344 1708 2094 c 0
 1708 1842 1646 1640 1524 1488 c 0
 1400 1338 1230 1262 1016 1262 c 0
 802 1262 632 1338 512 1488 c 0
 388 1640 328 1842 328 2094 c 0
 328 2346 390 2546 512 2696 c 0
 634 2846 802 2920 1016 2920 c 0
700 2094 m 0
 700 1918 728 1782 784 1688 c 0
 842 1592 918 1544 1016 1544 c 0
 1112 1544 1188 1592 1246 1688 c 0
 1304 1784 1332 1920 1332 2094 c 0
 1332 2268 1304 2402 1248 2496 c 0
 1190 2590 1114 2638 1016 2638 c 0
 918 2638 842 2590 784 2496 c 0
 728 2402 700 2268 700 2094 c 0
926 0 m 1
 2724 2888 l 1
 3092 2888 l 1
 1294 0 l 1
 926 0 l 1
2302 794 m 0
 2302 1046 2364 1248 2486 1396 c 0
 2608 1548 2776 1622 2990 1622 c 0
 3204 1622 3372 1546 3496 1396 c 0
 3620 1246 3682 1044 3682 794 c 0
 3682 542 3620 340 3496 190 c 0
 3372 40 3204 -36 2990 -36 c 0
 2776 -36 2608 40 2484 190 c 0
 2364 340 2302 542 2302 794 c 0
2674 794 m 0
 2674 620 2702 484 2760 388 c 0
 2816 294 2892 246 2990 246 c 0
 3086 246 3162 294 3220 388 c 0
 3278 484 3306 620 3306 794 c 0
 3306 968 3278 1102 3220 1196 c 0
 3164 1292 3088 1340 2990 1340 c 0
 2892 1340 2816 1292 2760 1196 c 0
 2702 1102 2674 968 2674 794 c 0
EndSplineSet
Substitution2: "'tnum' Tabular Numbers in Latin lookup 21 subtable" percent.tf
Substitution2: "'aalt' Access All Alternates in Latin lookup 0 subtable" percent.tf
EndChar

StartChar: ampersand
Encoding: 38 38 8
Width: 3042
GlyphClass: 2
Flags: HW
LayerCount: 2
UndoRedoHistory
Layer: 1
Undoes
UndoOperation
Index: 0
Type: 1
WasModified: 0
WasOrder2: 0
Layer: 2
Width: 1521
VWidth: 2048
LBearingChange: 0
UnicodeEnc: 0
InstructionsLength: 0
EndUndoOperation
UndoOperation
Index: 1
Type: 3
WasModified: 0
WasOrder2: 0
Layer: 2
EndUndoOperation
EndUndoes
Redoes
EndRedoes
EndUndoRedoHistory
Fore
SplineSet
1220 -70 m 0
 918 -70 674 6 492 156 c 0
 310 306 218 508 218 758 c 0
 218 952 278 1116 396 1252 c 0
 516 1386 688 1490 914 1564 c 1
 654 1766 524 2004 524 2278 c 0
 524 2480 600 2644 752 2768 c 0
 902 2896 1098 2958 1340 2958 c 0
 1578 2958 1772 2896 1918 2770 c 0
 2064 2644 2138 2480 2138 2278 c 0
 2138 2110 2084 1964 1976 1840 c 0
 1868 1718 1710 1620 1504 1548 c 1
 2162 852 l 1
 2242 990 2310 1184 2368 1434 c 1
 2760 1328 l 1
 2722 1154 2676 1010 2626 892 c 0
 2576 776 2508 670 2424 574 c 1
 2970 0 l 1
 2458 0 l 1
 2162 304 l 1
 2052 184 1916 92 1752 28 c 0
 1590 -38 1412 -70 1220 -70 c 0
668 816 m 0
 668 654 724 524 834 428 c 0
 944 334 1094 286 1282 286 c 0
 1548 286 1766 368 1938 532 c 1
 1110 1384 l 1
 956 1310 844 1228 772 1140 c 0
 704 1050 668 942 668 816 c 0
946 2278 m 0
 946 2184 976 2090 1032 2000 c 0
 1092 1910 1184 1814 1310 1712 c 1
 1456 1790 1562 1874 1630 1962 c 0
 1698 2050 1732 2152 1732 2266 c 0
 1732 2380 1696 2472 1628 2540 c 0
 1556 2608 1462 2642 1344 2642 c 0
 1222 2642 1124 2610 1052 2544 c 0
 982 2478 946 2390 946 2278 c 0
EndSplineSet
EndChar

StartChar: quotesingle
Encoding: 39 39 9
Width: 1134
GlyphClass: 2
Flags: HW
LayerCount: 2
UndoRedoHistory
Layer: 1
Undoes
UndoOperation
Index: 0
Type: 1
WasModified: 0
WasOrder2: 0
Layer: 2
Width: 567
VWidth: 2048
LBearingChange: 0
UnicodeEnc: 0
InstructionsLength: 0
EndUndoOperation
UndoOperation
Index: 1
Type: 3
WasModified: 0
WasOrder2: 0
Layer: 2
EndUndoOperation
EndUndoes
Redoes
EndRedoes
EndUndoRedoHistory
Fore
SplineSet
380 1786 m 1
 336 2958 l 1
 798 2958 l 1
 754 1786 l 1
 380 1786 l 1
EndSplineSet
EndChar

StartChar: parenleft
Encoding: 40 40 10
Width: 1646
GlyphClass: 2
Flags: HW
LayerCount: 2
UndoRedoHistory
Layer: 1
Undoes
UndoOperation
Index: 0
Type: 1
WasModified: 0
WasOrder2: 0
Layer: 2
Width: 823
VWidth: 2048
LBearingChange: 0
UnicodeEnc: 0
InstructionsLength: 0
EndUndoOperation
UndoOperation
Index: 1
Type: 3
WasModified: 0
WasOrder2: 0
Layer: 2
EndUndoOperation
EndUndoes
Redoes
EndRedoes
EndUndoRedoHistory
Fore
SplineSet
426 1212 m 0
 426 1894 626 2518 1024 3080 c 1
 1442 3080 l 1
 1264 2796 1130 2494 1036 2176 c 0
 944 1858 898 1536 898 1212 c 0
 898 888 944 566 1036 248 c 0
 1130 -70 1264 -372 1442 -656 c 1
 1024 -656 l 1
 626 -94 426 530 426 1212 c 0
EndSplineSet
Substitution2: "'case' Case-Sensitive Forms in Latin lookup 23 subtable" parenleft.case
Substitution2: "'sups' Superscript in Latin lookup 13 subtable" uni207D
Substitution2: "'sinf' Scientific Inferiors in Latin lookup 12 subtable" uni208D
Substitution2: "'subs' Subscript in Latin lookup 11 subtable" uni208D
AlternateSubs2: "'aalt' Access All Alternates in Latin lookup 1 subtable" uni208D uni207D parenleft.case
EndChar

StartChar: parenright
Encoding: 41 41 11
Width: 1650
GlyphClass: 2
Flags: HW
LayerCount: 2
UndoRedoHistory
Layer: 1
Undoes
UndoOperation
Index: 0
Type: 1
WasModified: 0
WasOrder2: 0
Layer: 2
Width: 825
VWidth: 2048
LBearingChange: 0
UnicodeEnc: 0
InstructionsLength: 0
EndUndoOperation
UndoOperation
Index: 1
Type: 3
WasModified: 0
WasOrder2: 0
Layer: 2
EndUndoOperation
EndUndoes
Redoes
EndRedoes
EndUndoRedoHistory
Fore
SplineSet
1224 1212 m 0
 1224 528 1024 -94 622 -656 c 1
 204 -656 l 1
 382 -370 518 -68 612 248 c 0
 704 568 750 888 750 1212 c 0
 750 1536 704 1856 612 2176 c 0
 518 2492 382 2794 204 3080 c 1
 622 3080 l 1
 1024 2518 1224 1896 1224 1212 c 0
EndSplineSet
Substitution2: "'case' Case-Sensitive Forms in Latin lookup 23 subtable" parenright.case
Substitution2: "'sups' Superscript in Latin lookup 13 subtable" uni207E
Substitution2: "'sinf' Scientific Inferiors in Latin lookup 12 subtable" uni208E
Substitution2: "'subs' Subscript in Latin lookup 11 subtable" uni208E
AlternateSubs2: "'aalt' Access All Alternates in Latin lookup 1 subtable" uni208E uni207E parenright.case
EndChar

StartChar: asterisk
Encoding: 42 42 12
Width: 2048
GlyphClass: 2
Flags: HW
LayerCount: 2
UndoRedoHistory
Layer: 1
Undoes
UndoOperation
Index: 0
Type: 1
WasModified: 0
WasOrder2: 0
Layer: 2
Width: 1024
VWidth: 2048
LBearingChange: 0
UnicodeEnc: 0
InstructionsLength: 0
EndUndoOperation
UndoOperation
Index: 1
Type: 3
WasModified: 0
WasOrder2: 0
Layer: 2
EndUndoOperation
EndUndoes
Redoes
EndRedoes
EndUndoRedoHistory
Fore
SplineSet
856 2888 m 1
 1200 2888 l 1
 1164 2302 l 1
 1646 2630 l 1
 1818 2326 l 1
 1294 2068 l 1
 1818 1810 l 1
 1646 1508 l 1
 1164 1836 l 1
 1200 1250 l 1
 856 1250 l 1
 892 1840 l 1
 402 1508 l 1
 230 1810 l 1
 758 2068 l 1
 230 2326 l 1
 402 2630 l 1
 892 2298 l 1
 856 2888 l 1
EndSplineSet
EndChar

StartChar: plus
Encoding: 43 43 13
Width: 2784
GlyphClass: 2
Flags: HW
LayerCount: 2
UndoRedoHistory
Layer: 1
Undoes
UndoOperation
Index: 0
Type: 1
WasModified: 0
WasOrder2: 0
Layer: 2
Width: 1392
VWidth: 2048
LBearingChange: 0
UnicodeEnc: 0
InstructionsLength: 0
EndUndoOperation
UndoOperation
Index: 1
Type: 3
WasModified: 0
WasOrder2: 0
Layer: 2
EndUndoOperation
EndUndoes
Redoes
EndRedoes
EndUndoRedoHistory
Fore
SplineSet
2338 1302 m 1
 2338 922 l 1
 1586 922 l 1
 1586 148 l 1
 1200 148 l 1
 1200 922 l 1
 446 922 l 1
 446 1302 l 1
 1200 1302 l 1
 1200 2076 l 1
 1586 2076 l 1
 1586 1302 l 1
 2338 1302 l 1
EndSplineSet
Substitution2: "Single Substitution lookup 34 subtable" plus.case
Substitution2: "'case' Case-Sensitive Forms in Latin lookup 23 subtable" plus.case
Substitution2: "'sups' Superscript in Latin lookup 13 subtable" uni207A
Substitution2: "'sinf' Scientific Inferiors in Latin lookup 12 subtable" uni208A
Substitution2: "'subs' Subscript in Latin lookup 11 subtable" uni208A
AlternateSubs2: "'aalt' Access All Alternates in Latin lookup 1 subtable" uni208A uni207A plus.case
EndChar

StartChar: comma
Encoding: 44 44 14
Width: 1276
GlyphClass: 2
Flags: HW
LayerCount: 2
UndoRedoHistory
Layer: 1
Undoes
UndoOperation
Index: 0
Type: 1
WasModified: 0
WasOrder2: 0
Layer: 2
Width: 638
VWidth: 2048
LBearingChange: 0
UnicodeEnc: 0
InstructionsLength: 0
EndUndoOperation
UndoOperation
Index: 1
Type: 3
WasModified: 0
WasOrder2: 0
Layer: 2
EndUndoOperation
EndUndoes
Redoes
EndRedoes
EndUndoRedoHistory
Fore
SplineSet
250 -774 m 1
 524 472 l 1
 1012 472 l 1
 618 -774 l 1
 250 -774 l 1
EndSplineSet
EndChar

StartChar: hyphen
Encoding: 45 45 15
Width: 1810
GlyphClass: 2
Flags: HW
LayerCount: 2
UndoRedoHistory
Layer: 1
Undoes
UndoOperation
Index: 0
Type: 1
WasModified: 0
WasOrder2: 0
Layer: 2
Width: 905
VWidth: 2048
LBearingChange: 0
UnicodeEnc: 0
InstructionsLength: 0
EndUndoOperation
UndoOperation
Index: 1
Type: 3
WasModified: 0
WasOrder2: 0
Layer: 2
EndUndoOperation
EndUndoes
Redoes
EndRedoes
EndUndoRedoHistory
Fore
SplineSet
294 974 m 1
 294 1392 l 1
 1516 1392 l 1
 1516 974 l 1
 294 974 l 1
EndSplineSet
Substitution2: "'case' Case-Sensitive Forms in Latin lookup 23 subtable" hyphen.case
Substitution2: "'aalt' Access All Alternates in Latin lookup 0 subtable" hyphen.case
EndChar

StartChar: period
Encoding: 46 46 16
Width: 1272
GlyphClass: 2
Flags: HW
LayerCount: 2
UndoRedoHistory
Layer: 1
Undoes
UndoOperation
Index: 0
Type: 1
WasModified: 0
WasOrder2: 0
Layer: 2
Width: 636
VWidth: 2048
LBearingChange: 0
UnicodeEnc: 0
InstructionsLength: 0
EndUndoOperation
UndoOperation
Index: 1
Type: 3
WasModified: 0
WasOrder2: 0
Layer: 2
EndUndoOperation
EndUndoes
Redoes
EndRedoes
EndUndoRedoHistory
Fore
SplineSet
634 -20 m 0
 550 -20 480 8 422 68 c 0
 364 124 336 196 336 278 c 0
 336 360 364 432 422 490 c 0
 480 548 550 578 634 578 c 0
 720 578 792 548 852 490 c 0
 908 432 938 360 938 278 c 0
 938 196 908 124 852 68 c 0
 792 8 720 -20 634 -20 c 0
EndSplineSet
EndChar

StartChar: slash
Encoding: 47 47 17
Width: 1544
GlyphClass: 2
Flags: HW
LayerCount: 2
UndoRedoHistory
Layer: 1
Undoes
UndoOperation
Index: 0
Type: 1
WasModified: 0
WasOrder2: 0
Layer: 2
Width: 772
VWidth: 2048
LBearingChange: 0
UnicodeEnc: 0
InstructionsLength: 0
EndUndoOperation
UndoOperation
Index: 1
Type: 3
WasModified: 0
WasOrder2: 0
Layer: 2
EndUndoOperation
EndUndoes
Redoes
EndRedoes
EndUndoRedoHistory
Fore
SplineSet
70 -492 m 1
 1044 2958 l 1
 1478 2958 l 1
 504 -492 l 1
 70 -492 l 1
EndSplineSet
Substitution2: "'case' Case-Sensitive Forms in Latin lookup 23 subtable" slash.case
Substitution2: "'frac' Diagonal Fractions in Latin lookup 16 subtable" fraction
AlternateSubs2: "'aalt' Access All Alternates in Latin lookup 1 subtable" fraction slash.case
EndChar

StartChar: zero
Encoding: 48 48 18
Width: 2654
GlyphClass: 2
Flags: HW
LayerCount: 2
UndoRedoHistory
Layer: 1
Undoes
UndoOperation
Index: 0
Type: 1
WasModified: 0
WasOrder2: 0
Layer: 2
Width: 1327
VWidth: 2048
LBearingChange: 0
UnicodeEnc: 0
InstructionsLength: 0
EndUndoOperation
UndoOperation
Index: 1
Type: 3
WasModified: 0
WasOrder2: 0
Layer: 2
EndUndoOperation
EndUndoes
Redoes
EndRedoes
EndUndoRedoHistory
Fore
SplineSet
1328 2950 m 0
 1666 2950 1932 2814 2128 2540 c 0
 2326 2266 2424 1900 2424 1442 c 0
 2424 984 2326 618 2128 344 c 0
 1932 70 1666 -66 1328 -66 c 0
 992 -66 726 72 528 344 c 0
 332 620 234 984 234 1442 c 0
 234 1900 332 2264 528 2540 c 0
 726 2812 992 2950 1328 2950 c 0
724 1442 m 0
 724 1100 780 828 890 626 c 0
 1000 424 1146 324 1328 324 c 0
 1512 324 1660 424 1768 624 c 0
 1880 826 1934 1098 1934 1442 c 0
 1934 1786 1880 2058 1768 2260 c 0
 1660 2460 1512 2560 1328 2560 c 0
 1146 2560 1000 2460 890 2258 c 0
 780 2056 724 1784 724 1442 c 0
EndSplineSet
Substitution2: "'ss04' Style Set 4 in Latin lookup 28 subtable" zero.ss01
Substitution2: "'ss01' Style Set 1 in Latin lookup 25 subtable" zero.ss01
Substitution2: "'zero' Slashed Zero in Latin lookup 24 subtable" zero.zero
Substitution2: "'tnum' Tabular Numbers in Latin lookup 21 subtable" zero.tf
Substitution2: "'frac' Diagonal Fractions in Latin lookup 17 subtable" zero.numr
Substitution2: "'dnom' Denominators in Latin lookup 15 subtable" zero.dnom
Substitution2: "'numr' Numerators in Latin lookup 14 subtable" zero.numr
Substitution2: "'sups' Superscript in Latin lookup 13 subtable" uni2070
Substitution2: "'sinf' Scientific Inferiors in Latin lookup 12 subtable" uni2080
Substitution2: "'subs' Subscript in Latin lookup 11 subtable" uni2080
AlternateSubs2: "'aalt' Access All Alternates in Latin lookup 1 subtable" uni2080 uni2070 zero.numr zero.dnom zero.tf zero.zero zero.ss01
EndChar

StartChar: one
Encoding: 49 49 19
Width: 1912
GlyphClass: 2
Flags: HW
LayerCount: 2
UndoRedoHistory
Layer: 1
Undoes
UndoOperation
Index: 0
Type: 1
WasModified: 0
WasOrder2: 0
Layer: 2
Width: 956
VWidth: 2048
LBearingChange: 0
UnicodeEnc: 0
InstructionsLength: 0
EndUndoOperation
UndoOperation
Index: 1
Type: 3
WasModified: 0
WasOrder2: 0
Layer: 2
EndUndoOperation
EndUndoes
Redoes
EndRedoes
EndUndoRedoHistory
Fore
SplineSet
942 0 m 1
 942 2470 l 1
 922 2470 l 1
 132 1748 l 1
 132 2256 l 1
 840 2888 l 1
 1422 2888 l 1
 1422 0 l 1
 942 0 l 1
EndSplineSet
Substitution2: "'tnum' Tabular Numbers in Latin lookup 21 subtable" one.tf
Substitution2: "'frac' Diagonal Fractions in Latin lookup 17 subtable" one.numr
Substitution2: "'dnom' Denominators in Latin lookup 15 subtable" one.dnom
Substitution2: "'numr' Numerators in Latin lookup 14 subtable" one.numr
Substitution2: "'sups' Superscript in Latin lookup 13 subtable" uni00B9
Substitution2: "'sinf' Scientific Inferiors in Latin lookup 12 subtable" uni2081
Substitution2: "'subs' Subscript in Latin lookup 11 subtable" uni2081
AlternateSubs2: "'aalt' Access All Alternates in Latin lookup 1 subtable" uni2081 uni00B9 one.numr one.dnom one.tf
EndChar

StartChar: two
Encoding: 50 50 20
Width: 2542
GlyphClass: 2
Flags: HW
LayerCount: 2
UndoRedoHistory
Layer: 1
Undoes
UndoOperation
Index: 0
Type: 1
WasModified: 0
WasOrder2: 0
Layer: 2
Width: 1271
VWidth: 2048
LBearingChange: 0
UnicodeEnc: 0
InstructionsLength: 0
EndUndoOperation
UndoOperation
Index: 1
Type: 3
WasModified: 0
WasOrder2: 0
Layer: 2
EndUndoOperation
EndUndoes
Redoes
EndRedoes
EndUndoRedoHistory
Fore
SplineSet
300 0 m 1
 300 508 l 1
 1294 1364 l 2
 1452 1502 1564 1626 1630 1740 c 0
 1696 1854 1728 1972 1728 2094 c 0
 1728 2238 1686 2352 1600 2436 c 0
 1516 2522 1396 2564 1242 2564 c 0
 1080 2564 950 2518 852 2424 c 0
 754 2332 690 2198 660 2024 c 1
 212 2102 l 1
 246 2366 356 2574 540 2726 c 0
 724 2878 964 2954 1258 2954 c 0
 1560 2954 1796 2880 1968 2732 c 0
 2138 2582 2224 2378 2224 2118 c 0
 2224 1940 2176 1772 2078 1614 c 0
 1980 1456 1830 1290 1626 1114 c 2
 816 434 l 1
 816 414 l 1
 2342 414 l 1
 2342 0 l 1
 300 0 l 1
EndSplineSet
Substitution2: "'tnum' Tabular Numbers in Latin lookup 21 subtable" two.tf
Substitution2: "'frac' Diagonal Fractions in Latin lookup 17 subtable" two.numr
Substitution2: "'dnom' Denominators in Latin lookup 15 subtable" two.dnom
Substitution2: "'numr' Numerators in Latin lookup 14 subtable" two.numr
Substitution2: "'sups' Superscript in Latin lookup 13 subtable" uni00B2
Substitution2: "'sinf' Scientific Inferiors in Latin lookup 12 subtable" uni2082
Substitution2: "'subs' Subscript in Latin lookup 11 subtable" uni2082
AlternateSubs2: "'aalt' Access All Alternates in Latin lookup 1 subtable" uni2082 uni00B2 two.numr two.dnom two.tf
EndChar

StartChar: three
Encoding: 51 51 21
Width: 2604
GlyphClass: 2
Flags: HW
LayerCount: 2
UndoRedoHistory
Layer: 1
Undoes
UndoOperation
Index: 0
Type: 1
WasModified: 0
WasOrder2: 0
Layer: 2
Width: 1302
VWidth: 2048
LBearingChange: 0
UnicodeEnc: 0
InstructionsLength: 0
EndUndoOperation
UndoOperation
Index: 1
Type: 3
WasModified: 0
WasOrder2: 0
Layer: 2
EndUndoOperation
EndUndoes
Redoes
EndRedoes
EndUndoRedoHistory
Fore
SplineSet
1270 -70 m 0
 992 -70 756 -8 568 116 c 0
 376 240 246 422 176 664 c 1
 610 802 l 1
 692 480 916 320 1282 320 c 0
 1462 320 1604 372 1706 474 c 0
 1808 576 1860 710 1860 872 c 0
 1860 1038 1804 1168 1692 1256 c 0
 1582 1348 1424 1392 1220 1392 c 2
 860 1392 l 1
 860 1728 l 1
 1672 2458 l 1
 1672 2482 l 1
 348 2482 l 1
 348 2888 l 1
 2192 2888 l 1
 2192 2450 l 1
 1400 1748 l 1
 1400 1728 l 1
 1694 1722 1924 1644 2088 1492 c 0
 2252 1340 2334 1134 2334 872 c 0
 2334 592 2240 364 2048 192 c 0
 1860 16 1600 -70 1270 -70 c 0
EndSplineSet
Substitution2: "'tnum' Tabular Numbers in Latin lookup 21 subtable" three.tf
Substitution2: "'frac' Diagonal Fractions in Latin lookup 17 subtable" three.numr
Substitution2: "'dnom' Denominators in Latin lookup 15 subtable" three.dnom
Substitution2: "'numr' Numerators in Latin lookup 14 subtable" three.numr
Substitution2: "'sups' Superscript in Latin lookup 13 subtable" uni00B3
Substitution2: "'sinf' Scientific Inferiors in Latin lookup 12 subtable" uni2083
Substitution2: "'subs' Subscript in Latin lookup 11 subtable" uni2083
AlternateSubs2: "'aalt' Access All Alternates in Latin lookup 1 subtable" uni2083 uni00B3 three.numr three.dnom three.tf
EndChar

StartChar: four
Encoding: 52 52 22
Width: 2764
GlyphClass: 2
Flags: HW
LayerCount: 2
UndoRedoHistory
Layer: 1
Undoes
UndoOperation
Index: 0
Type: 1
WasModified: 0
WasOrder2: 0
Layer: 2
Width: 1382
VWidth: 2048
LBearingChange: 0
UnicodeEnc: 0
InstructionsLength: 0
EndUndoOperation
UndoOperation
Index: 1
Type: 3
WasModified: 0
WasOrder2: 0
Layer: 2
EndUndoOperation
EndUndoes
Redoes
EndRedoes
EndUndoRedoHistory
Fore
SplineSet
1662 0 m 1
 1662 648 l 1
 200 648 l 1
 200 1098 l 1
 1528 2888 l 1
 2158 2888 l 1
 2158 1040 l 1
 2564 1040 l 1
 2564 648 l 1
 2158 648 l 1
 2158 0 l 1
 1662 0 l 1
598 1024 m 1
 1704 1024 l 1
 1704 2506 l 1
 1684 2506 l 1
 598 1048 l 1
 598 1024 l 1
EndSplineSet
Substitution2: "'tnum' Tabular Numbers in Latin lookup 21 subtable" four.tf
Substitution2: "'frac' Diagonal Fractions in Latin lookup 17 subtable" four.numr
Substitution2: "'dnom' Denominators in Latin lookup 15 subtable" four.dnom
Substitution2: "'numr' Numerators in Latin lookup 14 subtable" four.numr
Substitution2: "'sups' Superscript in Latin lookup 13 subtable" uni2074
Substitution2: "'sinf' Scientific Inferiors in Latin lookup 12 subtable" uni2084
Substitution2: "'subs' Subscript in Latin lookup 11 subtable" uni2084
AlternateSubs2: "'aalt' Access All Alternates in Latin lookup 1 subtable" uni2084 uni2074 four.numr four.dnom four.tf
EndChar

StartChar: five
Encoding: 53 53 23
Width: 2472
GlyphClass: 2
Flags: HW
LayerCount: 2
UndoRedoHistory
Layer: 1
Undoes
UndoOperation
Index: 0
Type: 1
WasModified: 0
WasOrder2: 0
Layer: 2
Width: 1236
VWidth: 2048
LBearingChange: 0
UnicodeEnc: 0
InstructionsLength: 0
EndUndoOperation
UndoOperation
Index: 1
Type: 3
WasModified: 0
WasOrder2: 0
Layer: 2
EndUndoOperation
EndUndoes
Redoes
EndRedoes
EndUndoRedoHistory
Fore
SplineSet
1208 -70 m 0
 930 -70 704 -8 524 114 c 0
 348 236 224 418 156 656 c 1
 578 794 l 1
 632 628 712 508 816 432 c 0
 920 358 1054 320 1216 320 c 0
 1386 320 1522 372 1620 472 c 0
 1720 576 1770 710 1770 880 c 0
 1770 1054 1714 1192 1600 1290 c 0
 1488 1388 1320 1438 1094 1438 c 2
 386 1438 l 1
 476 2888 l 1
 2162 2888 l 1
 2162 2482 l 1
 852 2482 l 1
 806 1810 l 1
 1146 1810 l 2
 1494 1810 1764 1730 1956 1572 c 0
 2148 1412 2244 1188 2244 898 c 0
 2244 598 2152 362 1968 188 c 0
 1782 16 1530 -70 1208 -70 c 0
EndSplineSet
Substitution2: "'tnum' Tabular Numbers in Latin lookup 21 subtable" five.tf
Substitution2: "'frac' Diagonal Fractions in Latin lookup 17 subtable" five.numr
Substitution2: "'dnom' Denominators in Latin lookup 15 subtable" five.dnom
Substitution2: "'numr' Numerators in Latin lookup 14 subtable" five.numr
Substitution2: "'sups' Superscript in Latin lookup 13 subtable" uni2075
Substitution2: "'sinf' Scientific Inferiors in Latin lookup 12 subtable" uni2085
Substitution2: "'subs' Subscript in Latin lookup 11 subtable" uni2085
AlternateSubs2: "'aalt' Access All Alternates in Latin lookup 1 subtable" uni2085 uni2075 five.numr five.dnom five.tf
EndChar

StartChar: six
Encoding: 54 54 24
Width: 2546
GlyphClass: 2
Flags: HW
LayerCount: 2
UndoRedoHistory
Layer: 1
Undoes
UndoOperation
Index: 0
Type: 1
WasModified: 0
WasOrder2: 0
Layer: 2
Width: 1273
VWidth: 2048
LBearingChange: 0
UnicodeEnc: 0
InstructionsLength: 0
EndUndoOperation
UndoOperation
Index: 1
Type: 3
WasModified: 0
WasOrder2: 0
Layer: 2
EndUndoOperation
EndUndoes
Redoes
EndRedoes
EndUndoRedoHistory
Fore
SplineSet
1270 -66 m 0
 956 -66 698 28 496 218 c 0
 294 408 192 654 192 958 c 0
 192 1192 244 1414 344 1628 c 0
 448 1842 612 2078 840 2338 c 2
 1336 2888 l 1
 1934 2888 l 1
 1262 2188 l 2
 1114 2030 1004 1910 936 1824 c 0
 864 1738 804 1656 754 1576 c 1
 774 1576 l 1
 866 1676 964 1752 1068 1804 c 0
 1170 1854 1290 1880 1426 1880 c 0
 1698 1880 1920 1794 2092 1624 c 0
 2262 1452 2348 1224 2348 942 c 0
 2348 648 2246 406 2042 216 c 0
 1838 28 1580 -66 1270 -66 c 0
668 914 m 0
 668 738 724 594 840 484 c 0
 952 372 1098 316 1274 316 c 0
 1448 316 1592 372 1702 482 c 0
 1812 592 1868 736 1868 914 c 0
 1868 1088 1812 1232 1700 1344 c 0
 1586 1456 1444 1512 1270 1512 c 0
 1096 1512 952 1456 838 1344 c 0
 724 1232 668 1088 668 914 c 0
EndSplineSet
Substitution2: "'tnum' Tabular Numbers in Latin lookup 21 subtable" six.tf
Substitution2: "'frac' Diagonal Fractions in Latin lookup 17 subtable" six.numr
Substitution2: "'dnom' Denominators in Latin lookup 15 subtable" six.dnom
Substitution2: "'numr' Numerators in Latin lookup 14 subtable" six.numr
Substitution2: "'sups' Superscript in Latin lookup 13 subtable" uni2076
Substitution2: "'sinf' Scientific Inferiors in Latin lookup 12 subtable" uni2086
Substitution2: "'subs' Subscript in Latin lookup 11 subtable" uni2086
AlternateSubs2: "'aalt' Access All Alternates in Latin lookup 1 subtable" uni2086 uni2076 six.numr six.dnom six.tf
EndChar

StartChar: seven
Encoding: 55 55 25
Width: 2210
GlyphClass: 2
Flags: HW
LayerCount: 2
UndoRedoHistory
Layer: 1
Undoes
UndoOperation
Index: 0
Type: 1
WasModified: 0
WasOrder2: 0
Layer: 2
Width: 1105
VWidth: 2048
LBearingChange: 0
UnicodeEnc: 0
InstructionsLength: 0
EndUndoOperation
UndoOperation
Index: 1
Type: 3
WasModified: 0
WasOrder2: 0
Layer: 2
EndUndoOperation
EndUndoes
Redoes
EndRedoes
EndUndoRedoHistory
Fore
SplineSet
336 0 m 1
 1630 2482 l 1
 148 2482 l 1
 148 2888 l 1
 2064 2888 l 1
 2064 2392 l 1
 840 0 l 1
 336 0 l 1
EndSplineSet
Substitution2: "'tnum' Tabular Numbers in Latin lookup 21 subtable" seven.tf
Substitution2: "'frac' Diagonal Fractions in Latin lookup 17 subtable" seven.numr
Substitution2: "'dnom' Denominators in Latin lookup 15 subtable" seven.dnom
Substitution2: "'numr' Numerators in Latin lookup 14 subtable" seven.numr
Substitution2: "'sups' Superscript in Latin lookup 13 subtable" uni2077
Substitution2: "'sinf' Scientific Inferiors in Latin lookup 12 subtable" uni2087
Substitution2: "'subs' Subscript in Latin lookup 11 subtable" uni2087
AlternateSubs2: "'aalt' Access All Alternates in Latin lookup 1 subtable" uni2087 uni2077 seven.numr seven.dnom seven.tf
EndChar

StartChar: eight
Encoding: 56 56 26
Width: 2686
GlyphClass: 2
Flags: HW
LayerCount: 2
UndoRedoHistory
Layer: 1
Undoes
UndoOperation
Index: 0
Type: 1
WasModified: 0
WasOrder2: 0
Layer: 2
Width: 1343
VWidth: 2048
LBearingChange: 0
UnicodeEnc: 0
InstructionsLength: 0
EndUndoOperation
UndoOperation
Index: 1
Type: 3
WasModified: 0
WasOrder2: 0
Layer: 2
EndUndoOperation
EndUndoes
Redoes
EndRedoes
EndUndoRedoHistory
Fore
SplineSet
1344 -70 m 0
 1012 -70 744 10 540 168 c 0
 336 326 234 536 234 794 c 0
 234 988 292 1152 408 1286 c 0
 524 1420 670 1506 848 1540 c 1
 848 1560 l 1
 714 1586 600 1656 508 1774 c 0
 414 1892 368 2026 368 2180 c 0
 368 2410 458 2596 638 2740 c 0
 818 2882 1054 2954 1344 2954 c 0
 1634 2954 1870 2882 2052 2740 c 0
 2232 2596 2322 2410 2322 2180 c 0
 2322 2026 2276 1892 2184 1774 c 0
 2090 1656 1978 1586 1844 1560 c 1
 1844 1540 l 1
 2022 1506 2168 1422 2282 1288 c 0
 2396 1152 2454 988 2454 794 c 0
 2454 536 2352 326 2148 168 c 0
 1946 10 1678 -70 1344 -70 c 0
734 828 m 0
 734 670 790 542 900 444 c 0
 1012 348 1160 300 1344 300 c 0
 1528 300 1676 348 1788 444 c 0
 1902 542 1958 670 1958 828 c 0
 1958 988 1902 1116 1788 1212 c 0
 1676 1308 1528 1356 1344 1356 c 0
 1160 1356 1012 1308 900 1212 c 0
 790 1116 734 988 734 828 c 0
824 2150 m 0
 824 2016 872 1906 968 1820 c 0
 1066 1734 1190 1692 1344 1692 c 0
 1500 1692 1626 1734 1720 1820 c 0
 1816 1904 1864 2014 1864 2150 c 0
 1864 2282 1816 2390 1720 2474 c 0
 1624 2558 1498 2600 1344 2600 c 0
 1190 2600 1066 2558 968 2474 c 0
 872 2390 824 2282 824 2150 c 0
EndSplineSet
Substitution2: "'tnum' Tabular Numbers in Latin lookup 21 subtable" eight.tf
Substitution2: "'frac' Diagonal Fractions in Latin lookup 17 subtable" eight.numr
Substitution2: "'dnom' Denominators in Latin lookup 15 subtable" eight.dnom
Substitution2: "'numr' Numerators in Latin lookup 14 subtable" eight.numr
Substitution2: "'sups' Superscript in Latin lookup 13 subtable" uni2078
Substitution2: "'sinf' Scientific Inferiors in Latin lookup 12 subtable" uni2088
Substitution2: "'subs' Subscript in Latin lookup 11 subtable" uni2088
AlternateSubs2: "'aalt' Access All Alternates in Latin lookup 1 subtable" uni2088 uni2078 eight.numr eight.dnom eight.tf
EndChar

StartChar: nine
Encoding: 57 57 27
Width: 2546
GlyphClass: 2
Flags: HW
LayerCount: 2
UndoRedoHistory
Layer: 1
Undoes
UndoOperation
Index: 0
Type: 1
WasModified: 0
WasOrder2: 0
Layer: 2
Width: 1273
VWidth: 2048
LBearingChange: 0
UnicodeEnc: 0
InstructionsLength: 0
EndUndoOperation
UndoOperation
Index: 1
Type: 3
WasModified: 0
WasOrder2: 0
Layer: 2
EndUndoOperation
EndUndoes
Redoes
EndRedoes
EndUndoRedoHistory
Fore
SplineSet
1286 700 m 2
 1434 856 1542 976 1612 1060 c 0
 1682 1146 1742 1228 1794 1310 c 1
 1774 1310 l 1
 1684 1210 1586 1134 1484 1084 c 0
 1380 1034 1260 1008 1122 1008 c 0
 850 1008 628 1094 456 1264 c 0
 286 1436 200 1664 200 1946 c 0
 200 2240 302 2482 506 2672 c 0
 710 2860 968 2954 1278 2954 c 0
 1592 2954 1850 2860 2052 2670 c 0
 2254 2480 2356 2234 2356 1930 c 0
 2356 1698 2306 1474 2204 1260 c 0
 2102 1046 1938 808 1712 548 c 1
 1212 0 l 1
 614 0 l 1
 1286 700 l 2
680 1974 m 0
 680 1800 736 1656 848 1544 c 0
 962 1432 1104 1376 1278 1376 c 0
 1452 1376 1596 1432 1710 1544 c 0
 1824 1656 1880 1800 1880 1974 c 0
 1880 2150 1824 2294 1708 2404 c 0
 1596 2516 1450 2572 1274 2572 c 0
 1100 2572 956 2516 846 2406 c 0
 736 2296 680 2152 680 1974 c 0
EndSplineSet
Substitution2: "'tnum' Tabular Numbers in Latin lookup 21 subtable" nine.tf
Substitution2: "'frac' Diagonal Fractions in Latin lookup 17 subtable" nine.numr
Substitution2: "'dnom' Denominators in Latin lookup 15 subtable" nine.dnom
Substitution2: "'numr' Numerators in Latin lookup 14 subtable" nine.numr
Substitution2: "'sups' Superscript in Latin lookup 13 subtable" uni2079
Substitution2: "'sinf' Scientific Inferiors in Latin lookup 12 subtable" uni2089
Substitution2: "'subs' Subscript in Latin lookup 11 subtable" uni2089
AlternateSubs2: "'aalt' Access All Alternates in Latin lookup 1 subtable" uni2089 uni2079 nine.numr nine.dnom nine.tf
EndChar

StartChar: colon
Encoding: 58 58 28
Width: 1272
GlyphClass: 2
Flags: HW
LayerCount: 2
UndoRedoHistory
Layer: 1
Undoes
UndoOperation
Index: 0
Type: 1
WasModified: 0
WasOrder2: 0
Layer: 2
Width: 636
VWidth: 2048
LBearingChange: 0
UnicodeEnc: 0
InstructionsLength: 0
EndUndoOperation
UndoOperation
Index: 1
Type: 3
WasModified: 0
WasOrder2: 0
Layer: 2
EndUndoOperation
EndUndoes
Redoes
EndRedoes
EndUndoRedoHistory
Fore
SplineSet
634 -20 m 0
 550 -20 480 8 422 68 c 0
 364 124 336 196 336 278 c 0
 336 360 364 432 422 490 c 0
 480 548 550 578 634 578 c 0
 720 578 792 548 852 490 c 0
 908 432 938 360 938 278 c 0
 938 196 908 124 852 68 c 0
 792 8 720 -20 634 -20 c 0
336 1672 m 0
 336 1754 364 1824 422 1884 c 0
 480 1940 550 1970 634 1970 c 0
 720 1970 792 1940 852 1884 c 0
 908 1824 938 1754 938 1672 c 0
 938 1590 908 1518 852 1460 c 0
 792 1402 720 1372 634 1372 c 0
 550 1372 480 1402 422 1460 c 0
 364 1518 336 1590 336 1672 c 0
EndSplineSet
Substitution2: "Single Substitution lookup 34 subtable" colon.calt
Substitution2: "'case' Case-Sensitive Forms in Latin lookup 23 subtable" colon.case
AlternateSubs2: "'aalt' Access All Alternates in Latin lookup 1 subtable" colon.calt colon.case
EndChar

StartChar: semicolon
Encoding: 59 59 29
Width: 1416
GlyphClass: 2
Flags: HW
LayerCount: 2
UndoRedoHistory
Layer: 1
Undoes
UndoOperation
Index: 0
Type: 1
WasModified: 0
WasOrder2: 0
Layer: 2
Width: 708
VWidth: 2048
LBearingChange: 0
UnicodeEnc: 0
InstructionsLength: 0
EndUndoOperation
UndoOperation
Index: 1
Type: 3
WasModified: 0
WasOrder2: 0
Layer: 2
EndUndoOperation
EndUndoes
Redoes
EndRedoes
EndUndoRedoHistory
Fore
SplineSet
250 -774 m 1
 524 472 l 1
 996 472 l 1
 594 -774 l 1
 250 -774 l 1
480 1672 m 0
 480 1754 508 1824 566 1884 c 0
 624 1940 694 1970 778 1970 c 0
 864 1970 936 1940 996 1884 c 0
 1052 1824 1082 1754 1082 1672 c 0
 1082 1590 1052 1518 996 1460 c 0
 936 1402 864 1372 778 1372 c 0
 694 1372 624 1402 566 1460 c 0
 508 1518 480 1590 480 1672 c 0
EndSplineSet
Substitution2: "'case' Case-Sensitive Forms in Latin lookup 23 subtable" semicolon.case
Substitution2: "'aalt' Access All Alternates in Latin lookup 0 subtable" semicolon.case
EndChar

StartChar: less
Encoding: 60 60 30
Width: 2784
GlyphClass: 2
Flags: HW
LayerCount: 2
UndoRedoHistory
Layer: 1
Undoes
UndoOperation
Index: 0
Type: 1
WasModified: 0
WasOrder2: 0
Layer: 2
Width: 1392
VWidth: 2048
LBearingChange: 0
UnicodeEnc: 0
InstructionsLength: 0
EndUndoOperation
UndoOperation
Index: 1
Type: 3
WasModified: 0
WasOrder2: 0
Layer: 2
EndUndoOperation
EndUndoes
Redoes
EndRedoes
EndUndoRedoHistory
Fore
SplineSet
446 914 m 1
 446 1360 l 1
 2338 2224 l 1
 2338 1786 l 1
 864 1138 l 1
 2338 488 l 1
 2338 50 l 1
 446 914 l 1
EndSplineSet
Substitution2: "Single Substitution lookup 34 subtable" less.case
Substitution2: "'case' Case-Sensitive Forms in Latin lookup 23 subtable" less.case
Substitution2: "'aalt' Access All Alternates in Latin lookup 0 subtable" less.case
EndChar

StartChar: equal
Encoding: 61 61 31
Width: 2784
GlyphClass: 2
Flags: HW
LayerCount: 2
UndoRedoHistory
Layer: 1
Undoes
UndoOperation
Index: 0
Type: 1
WasModified: 0
WasOrder2: 0
Layer: 2
Width: 1392
VWidth: 2048
LBearingChange: 0
UnicodeEnc: 0
InstructionsLength: 0
EndUndoOperation
UndoOperation
Index: 1
Type: 3
WasModified: 0
WasOrder2: 0
Layer: 2
EndUndoOperation
EndUndoes
Redoes
EndRedoes
EndUndoRedoHistory
Fore
SplineSet
2338 1754 m 1
 2338 1372 l 1
 446 1372 l 1
 446 1754 l 1
 2338 1754 l 1
446 472 m 1
 446 852 l 1
 2338 852 l 1
 2338 472 l 1
 446 472 l 1
EndSplineSet
Substitution2: "Single Substitution lookup 34 subtable" equal.case
Substitution2: "'case' Case-Sensitive Forms in Latin lookup 23 subtable" equal.case
Substitution2: "'aalt' Access All Alternates in Latin lookup 0 subtable" equal.case
EndChar

StartChar: greater
Encoding: 62 62 32
Width: 2784
GlyphClass: 2
Flags: HW
LayerCount: 2
UndoRedoHistory
Layer: 1
Undoes
UndoOperation
Index: 0
Type: 1
WasModified: 0
WasOrder2: 0
Layer: 2
Width: 1392
VWidth: 2048
LBearingChange: 0
UnicodeEnc: 0
InstructionsLength: 0
EndUndoOperation
UndoOperation
Index: 1
Type: 3
WasModified: 0
WasOrder2: 0
Layer: 2
EndUndoOperation
EndUndoes
Redoes
EndRedoes
EndUndoRedoHistory
Fore
SplineSet
446 50 m 1
 446 488 l 1
 1922 1138 l 1
 446 1786 l 1
 446 2224 l 1
 2338 1360 l 1
 2338 914 l 1
 446 50 l 1
EndSplineSet
Substitution2: "Single Substitution lookup 34 subtable" greater.case
Substitution2: "'case' Case-Sensitive Forms in Latin lookup 23 subtable" greater.case
Substitution2: "'aalt' Access All Alternates in Latin lookup 0 subtable" greater.case
EndChar

StartChar: question
Encoding: 63 63 33
Width: 2400
GlyphClass: 2
Flags: HW
LayerCount: 2
UndoRedoHistory
Layer: 1
Undoes
UndoOperation
Index: 0
Type: 1
WasModified: 0
WasOrder2: 0
Layer: 2
Width: 1200
VWidth: 2048
LBearingChange: 0
UnicodeEnc: 0
InstructionsLength: 0
EndUndoOperation
UndoOperation
Index: 1
Type: 3
WasModified: 0
WasOrder2: 0
Layer: 2
EndUndoOperation
EndUndoes
Redoes
EndRedoes
EndUndoRedoHistory
Fore
SplineSet
906 918 m 1
 906 1618 l 1
 1126 1634 l 2
 1292 1646 1422 1694 1516 1776 c 0
 1610 1860 1658 1968 1658 2102 c 0
 1658 2242 1614 2354 1526 2436 c 0
 1438 2518 1318 2560 1168 2560 c 0
 858 2560 674 2410 614 2110 c 1
 152 2196 l 1
 194 2440 308 2628 492 2760 c 0
 676 2892 910 2958 1196 2958 c 0
 1492 2958 1730 2880 1910 2728 c 0
 2090 2572 2180 2368 2180 2110 c 0
 2180 1900 2108 1724 1966 1580 c 0
 1824 1438 1630 1348 1384 1310 c 1
 1384 918 l 1
 906 918 l 1
812 304 m 0
 812 394 844 472 906 532 c 0
 968 596 1046 626 1138 626 c 0
 1230 626 1308 596 1372 532 c 0
 1434 472 1466 394 1466 304 c 0
 1466 212 1434 136 1372 72 c 0
 1308 12 1230 -20 1138 -20 c 0
 1046 -20 968 12 906 72 c 0
 844 136 812 212 812 304 c 0
EndSplineSet
EndChar

StartChar: at
Encoding: 64 64 34
Width: 3992
GlyphClass: 2
Flags: HW
LayerCount: 2
UndoRedoHistory
Layer: 1
Undoes
UndoOperation
Index: 0
Type: 1
WasModified: 0
WasOrder2: 0
Layer: 2
Width: 1996
VWidth: 2048
LBearingChange: 0
UnicodeEnc: 0
InstructionsLength: 0
EndUndoOperation
UndoOperation
Index: 1
Type: 3
WasModified: 0
WasOrder2: 0
Layer: 2
EndUndoOperation
EndUndoes
Redoes
EndRedoes
EndUndoRedoHistory
Fore
SplineSet
2052 -630 m 2
 1494 -630 1048 -474 716 -164 c 0
 384 146 218 562 218 1082 c 0
 218 1436 292 1748 444 2018 c 0
 592 2288 804 2498 1078 2646 c 0
 1352 2794 1666 2868 2024 2868 c 0
 2370 2868 2676 2804 2940 2674 c 0
 3206 2544 3412 2360 3556 2120 c 0
 3704 1880 3776 1600 3776 1282 c 0
 3776 976 3704 728 3564 540 c 0
 3420 348 3222 254 2966 254 c 0
 2832 254 2720 280 2632 332 c 0
 2540 382 2482 458 2454 558 c 1
 2400 462 2324 388 2226 336 c 0
 2128 284 2012 258 1880 258 c 0
 1648 258 1460 336 1316 492 c 0
 1174 650 1102 856 1102 1110 c 0
 1102 1362 1172 1566 1316 1720 c 0
 1456 1876 1642 1954 1872 1954 c 0
 2120 1954 2298 1866 2404 1692 c 1
 2404 1916 l 1
 2798 1916 l 1
 2798 806 l 2
 2798 736 2816 686 2854 652 c 0
 2892 618 2942 602 3006 602 c 0
 3120 602 3208 666 3274 792 c 0
 3340 920 3372 1080 3372 1270 c 0
 3372 1524 3316 1744 3206 1932 c 0
 3096 2122 2940 2266 2740 2364 c 0
 2538 2464 2306 2514 2040 2514 c 0
 1618 2514 1276 2382 1014 2120 c 0
 752 1858 622 1512 622 1086 c 0
 622 668 752 340 1014 96 c 0
 1276 -144 1630 -266 2080 -266 c 2
 3018 -266 l 1
 3018 -630 l 1
 2052 -630 l 2
1512 1106 m 0
 1512 948 1552 824 1636 732 c 0
 1716 640 1828 594 1970 594 c 0
 2112 594 2224 640 2304 732 c 0
 2388 824 2428 948 2428 1106 c 0
 2428 1266 2388 1392 2304 1484 c 0
 2224 1576 2112 1622 1970 1622 c 0
 1828 1622 1716 1576 1636 1484 c 0
 1552 1392 1512 1266 1512 1106 c 0
EndSplineSet
Substitution2: "'case' Case-Sensitive Forms in Latin lookup 23 subtable" at.case
Substitution2: "'aalt' Access All Alternates in Latin lookup 0 subtable" at.case
EndChar

StartChar: A
Encoding: 65 65 35
Width: 2822
GlyphClass: 2
Flags: HW
AnchorPoint: "Anchor-2" 1410 2888 basechar 0
AnchorPoint: "Anchor-1" 2724 0 basechar 0
AnchorPoint: "Anchor-0" 1422 0 basechar 0
LayerCount: 2
UndoRedoHistory
Layer: 1
Undoes
UndoOperation
Index: 0
Type: 1
WasModified: 0
WasOrder2: 0
Layer: 2
Width: 1411
VWidth: 2048
LBearingChange: 0
UnicodeEnc: 0
InstructionsLength: 0
EndUndoOperation
UndoOperation
Index: 1
Type: 3
WasModified: 0
WasOrder2: 0
Layer: 2
EndUndoOperation
EndUndoes
Redoes
EndRedoes
EndUndoRedoHistory
Fore
SplineSet
98 0 m 1
 1052 2888 l 1
 1770 2888 l 1
 2724 0 l 1
 2216 0 l 1
 1982 770 l 1
 840 770 l 1
 606 0 l 1
 98 0 l 1
958 1156 m 1
 1864 1156 l 1
 1422 2606 l 1
 1400 2606 l 1
 958 1156 l 1
EndSplineSet
Substitution2: "Single Substitution lookup 33 subtable" ordfeminine
Substitution2: "'aalt' Access All Alternates in Latin lookup 0 subtable" ordfeminine
EndChar

StartChar: B
Encoding: 66 66 36
Width: 2706
GlyphClass: 2
Flags: HW
LayerCount: 2
UndoRedoHistory
Layer: 1
Undoes
UndoOperation
Index: 0
Type: 1
WasModified: 0
WasOrder2: 0
Layer: 2
Width: 1353
VWidth: 2048
LBearingChange: 0
UnicodeEnc: 0
InstructionsLength: 0
EndUndoOperation
UndoOperation
Index: 1
Type: 3
WasModified: 0
WasOrder2: 0
Layer: 2
EndUndoOperation
EndUndoes
Redoes
EndRedoes
EndUndoRedoHistory
Fore
SplineSet
332 0 m 1
 332 2888 l 1
 1482 2888 l 2
 1768 2888 1988 2826 2140 2700 c 0
 2296 2576 2372 2400 2372 2170 c 0
 2372 2004 2316 1864 2208 1748 c 0
 2096 1632 1952 1566 1774 1548 c 1
 1774 1524 l 1
 1996 1508 2172 1438 2304 1314 c 0
 2436 1190 2502 1020 2502 806 c 0
 2502 554 2410 356 2224 214 c 0
 2040 72 1784 0 1458 0 c 2
 332 0 l 1
820 356 m 1
 1422 356 l 2
 1808 356 2002 518 2002 840 c 0
 2002 1168 1808 1332 1418 1332 c 2
 820 1332 l 1
 820 356 l 1
820 1668 m 1
 1364 1668 l 2
 1530 1668 1658 1706 1748 1784 c 0
 1838 1860 1884 1968 1884 2106 c 0
 1884 2240 1844 2346 1760 2420 c 0
 1680 2494 1564 2532 1414 2532 c 2
 820 2532 l 1
 820 1668 l 1
EndSplineSet
EndChar

StartChar: C
Encoding: 67 67 37
Width: 2912
GlyphClass: 2
Flags: HW
AnchorPoint: "Anchor-2" 1582 2888 basechar 0
AnchorPoint: "Anchor-0" 1602 0 basechar 0
LayerCount: 2
UndoRedoHistory
Layer: 1
Undoes
UndoOperation
Index: 0
Type: 1
WasModified: 0
WasOrder2: 0
Layer: 2
Width: 1456
VWidth: 2048
LBearingChange: 0
UnicodeEnc: 0
InstructionsLength: 0
EndUndoOperation
UndoOperation
Index: 1
Type: 3
WasModified: 0
WasOrder2: 0
Layer: 2
EndUndoOperation
EndUndoes
Redoes
EndRedoes
EndUndoRedoHistory
Fore
SplineSet
1548 -70 m 0
 1150 -70 830 68 584 344 c 0
 340 622 218 988 218 1442 c 0
 218 1898 340 2264 584 2540 c 0
 828 2816 1148 2954 1544 2954 c 0
 1850 2954 2102 2888 2304 2756 c 0
 2504 2622 2646 2426 2732 2166 c 1
 2274 2012 l 1
 2156 2364 1912 2540 1540 2540 c 0
 1290 2540 1094 2442 950 2246 c 0
 806 2050 734 1782 734 1442 c 0
 734 1102 806 834 950 638 c 0
 1094 442 1290 344 1540 344 c 0
 1916 344 2162 526 2278 888 c 1
 2740 750 l 1
 2654 480 2510 276 2308 138 c 0
 2108 0 1854 -70 1548 -70 c 0
EndSplineSet
EndChar

StartChar: D
Encoding: 68 68 38
Width: 2932
GlyphClass: 2
Flags: HW
AnchorPoint: "Anchor-2" 1356 2888 basechar 0
AnchorPoint: "Anchor-0" 1466 0 basechar 0
LayerCount: 2
UndoRedoHistory
Layer: 1
Undoes
UndoOperation
Index: 0
Type: 1
WasModified: 0
WasOrder2: 0
Layer: 2
Width: 1466
VWidth: 2048
LBearingChange: 0
UnicodeEnc: 0
InstructionsLength: 0
EndUndoOperation
UndoOperation
Index: 1
Type: 3
WasModified: 0
WasOrder2: 0
Layer: 2
EndUndoOperation
EndUndoes
Redoes
EndRedoes
EndUndoRedoHistory
Fore
SplineSet
332 0 m 1
 332 2888 l 1
 1250 2888 l 2
 1704 2888 2060 2760 2324 2504 c 0
 2584 2250 2716 1896 2716 1446 c 0
 2716 992 2584 638 2322 384 c 0
 2060 128 1702 0 1250 0 c 2
 332 0 l 1
820 410 m 1
 1212 410 l 2
 1532 410 1776 498 1946 676 c 0
 2116 852 2200 1108 2200 1442 c 0
 2200 1776 2114 2032 1944 2212 c 0
 1774 2388 1530 2478 1212 2478 c 2
 820 2478 l 1
 820 410 l 1
EndSplineSet
EndChar

StartChar: E
Encoding: 69 69 39
Width: 2370
GlyphClass: 2
Flags: HW
AnchorPoint: "Anchor-2" 1274 2888 basechar 0
AnchorPoint: "Anchor-1" 2138 0 basechar 0
AnchorPoint: "Anchor-0" 1278 0 basechar 0
LayerCount: 2
UndoRedoHistory
Layer: 1
Undoes
UndoOperation
Index: 0
Type: 1
WasModified: 0
WasOrder2: 0
Layer: 2
Width: 1185
VWidth: 2048
LBearingChange: 0
UnicodeEnc: 0
InstructionsLength: 0
EndUndoOperation
UndoOperation
Index: 1
Type: 3
WasModified: 0
WasOrder2: 0
Layer: 2
EndUndoOperation
EndUndoes
Redoes
EndRedoes
EndUndoRedoHistory
Fore
SplineSet
332 0 m 1
 332 2888 l 1
 2134 2888 l 1
 2134 2486 l 1
 820 2486 l 1
 820 1708 l 1
 1916 1708 l 1
 1916 1314 l 1
 820 1314 l 1
 820 402 l 1
 2138 402 l 1
 2138 0 l 1
 332 0 l 1
EndSplineSet
EndChar

StartChar: F
Encoding: 70 70 40
Width: 2214
GlyphClass: 2
Flags: HW
LayerCount: 2
UndoRedoHistory
Layer: 1
Undoes
UndoOperation
Index: 0
Type: 1
WasModified: 0
WasOrder2: 0
Layer: 2
Width: 1107
VWidth: 2048
LBearingChange: 0
UnicodeEnc: 0
InstructionsLength: 0
EndUndoOperation
UndoOperation
Index: 1
Type: 3
WasModified: 0
WasOrder2: 0
Layer: 2
EndUndoOperation
EndUndoes
Redoes
EndRedoes
EndUndoRedoHistory
Fore
SplineSet
332 0 m 1
 332 2888 l 1
 2068 2888 l 1
 2068 2486 l 1
 820 2486 l 1
 820 1638 l 1
 1912 1638 l 1
 1912 1236 l 1
 820 1236 l 1
 820 0 l 1
 332 0 l 1
EndSplineSet
EndChar

StartChar: G
Encoding: 71 71 41
Width: 3034
GlyphClass: 2
Flags: HW
AnchorPoint: "Anchor-2" 1552 2888 basechar 0
AnchorPoint: "Anchor-0" 1552 0 basechar 0
LayerCount: 2
UndoRedoHistory
Layer: 1
Undoes
UndoOperation
Index: 0
Type: 1
WasModified: 0
WasOrder2: 0
Layer: 2
Width: 1517
VWidth: 2048
LBearingChange: 0
UnicodeEnc: 0
InstructionsLength: 0
EndUndoOperation
UndoOperation
Index: 1
Type: 3
WasModified: 0
WasOrder2: 0
Layer: 2
EndUndoOperation
EndUndoes
Redoes
EndRedoes
EndUndoRedoHistory
Fore
SplineSet
1576 -70 m 0
 1164 -70 834 68 588 344 c 0
 342 618 218 984 218 1442 c 0
 218 1900 340 2268 584 2542 c 0
 826 2816 1152 2954 1560 2954 c 0
 2162 2954 2558 2714 2748 2232 c 1
 2298 2044 l 1
 2170 2374 1930 2540 1576 2540 c 0
 1314 2540 1108 2444 958 2250 c 0
 808 2056 734 1788 734 1442 c 0
 734 1096 810 826 962 630 c 0
 1114 434 1320 336 1582 336 c 0
 1826 336 2016 404 2148 540 c 0
 2284 676 2356 872 2368 1130 c 1
 1512 1130 l 1
 1512 1516 l 1
 2822 1516 l 1
 2822 1216 l 2
 2822 814 2710 500 2484 272 c 0
 2258 44 1956 -70 1576 -70 c 0
EndSplineSet
EndChar

StartChar: H
Encoding: 72 72 42
Width: 3030
GlyphClass: 2
Flags: HW
AnchorPoint: "Anchor-2" 1516 2888 basechar 0
AnchorPoint: "Anchor-0" 1516 0 basechar 0
LayerCount: 2
UndoRedoHistory
Layer: 1
Undoes
UndoOperation
Index: 0
Type: 1
WasModified: 0
WasOrder2: 0
Layer: 2
Width: 1515
VWidth: 2048
LBearingChange: 0
UnicodeEnc: 0
InstructionsLength: 0
EndUndoOperation
UndoOperation
Index: 1
Type: 3
WasModified: 0
WasOrder2: 0
Layer: 2
EndUndoOperation
EndUndoes
Redoes
EndRedoes
EndUndoRedoHistory
Fore
SplineSet
2212 0 m 1
 2212 1306 l 1
 820 1306 l 1
 820 0 l 1
 332 0 l 1
 332 2888 l 1
 820 2888 l 1
 820 1716 l 1
 2212 1716 l 1
 2212 2888 l 1
 2700 2888 l 1
 2700 0 l 1
 2212 0 l 1
EndSplineSet
EndChar

StartChar: I
Encoding: 73 73 43
Width: 1150
GlyphClass: 2
Flags: HW
AnchorPoint: "Anchor-2" 578 2888 basechar 0
AnchorPoint: "Anchor-1" 820 0 basechar 0
AnchorPoint: "Anchor-0" 578 0 basechar 0
LayerCount: 2
UndoRedoHistory
Layer: 1
Undoes
UndoOperation
Index: 0
Type: 1
WasModified: 0
WasOrder2: 0
Layer: 2
Width: 575
VWidth: 2048
LBearingChange: 0
UnicodeEnc: 0
InstructionsLength: 0
EndUndoOperation
UndoOperation
Index: 1
Type: 3
WasModified: 0
WasOrder2: 0
Layer: 2
EndUndoOperation
EndUndoes
Redoes
EndRedoes
EndUndoRedoHistory
Fore
SplineSet
332 0 m 1
 332 2888 l 1
 820 2888 l 1
 820 0 l 1
 332 0 l 1
EndSplineSet
Substitution2: "'ss02' Style Set 2 in Latin lookup 26 subtable" I.ss01
Substitution2: "'ss01' Style Set 1 in Latin lookup 25 subtable" I.ss01
Substitution2: "'aalt' Access All Alternates in Latin lookup 0 subtable" I.ss01
EndChar

StartChar: J
Encoding: 74 74 44
Width: 2228
GlyphClass: 2
Flags: HW
AnchorPoint: "Anchor-2" 1126 2888 basechar 0
AnchorPoint: "Anchor-0" 1126 0 basechar 0
LayerCount: 2
UndoRedoHistory
Layer: 1
Undoes
UndoOperation
Index: 0
Type: 1
WasModified: 0
WasOrder2: 0
Layer: 2
Width: 1114
VWidth: 2048
LBearingChange: 0
UnicodeEnc: 0
InstructionsLength: 0
EndUndoOperation
UndoOperation
Index: 1
Type: 3
WasModified: 0
WasOrder2: 0
Layer: 2
EndUndoOperation
EndUndoes
Redoes
EndRedoes
EndUndoRedoHistory
Fore
SplineSet
1004 -70 m 0
 722 -70 504 2 348 148 c 0
 192 294 114 510 114 798 c 2
 114 992 l 1
 602 1106 l 1
 602 802 l 2
 602 494 736 340 1004 340 c 0
 1274 340 1410 506 1410 840 c 2
 1410 2888 l 1
 1896 2888 l 1
 1896 852 l 2
 1896 542 1818 312 1662 160 c 0
 1506 6 1286 -70 1004 -70 c 0
EndSplineSet
Substitution2: "Single Substitution lookup 31 subtable" uni004A0301
Substitution2: "'aalt' Access All Alternates in Latin lookup 0 subtable" uni004A0301
EndChar

StartChar: K
Encoding: 75 75 45
Width: 2780
GlyphClass: 2
Flags: HW
AnchorPoint: "Anchor-2" 1388 2888 basechar 0
AnchorPoint: "Anchor-0" 1388 0 basechar 0
LayerCount: 2
UndoRedoHistory
Layer: 1
Undoes
UndoOperation
Index: 0
Type: 1
WasModified: 0
WasOrder2: 0
Layer: 2
Width: 1390
VWidth: 2048
LBearingChange: 0
UnicodeEnc: 0
InstructionsLength: 0
EndUndoOperation
UndoOperation
Index: 1
Type: 3
WasModified: 0
WasOrder2: 0
Layer: 2
EndUndoOperation
EndUndoes
Redoes
EndRedoes
EndUndoRedoHistory
Fore
SplineSet
332 0 m 1
 332 2888 l 1
 820 2888 l 1
 820 1590 l 1
 840 1590 l 1
 2028 2888 l 1
 2634 2888 l 1
 1540 1716 l 1
 2674 0 l 1
 2114 0 l 1
 1192 1414 l 1
 820 1008 l 1
 820 0 l 1
 332 0 l 1
EndSplineSet
EndChar

StartChar: L
Encoding: 76 76 46
Width: 2240
GlyphClass: 2
Flags: HW
AnchorPoint: "Anchor-3" 1236 2888 basechar 0
AnchorPoint: "Anchor-2" 578 2888 basechar 0
AnchorPoint: "Anchor-0" 1118 0 basechar 0
LayerCount: 2
UndoRedoHistory
Layer: 1
Undoes
UndoOperation
Index: 0
Type: 1
WasModified: 0
WasOrder2: 0
Layer: 2
Width: 1120
VWidth: 2048
LBearingChange: 0
UnicodeEnc: 0
InstructionsLength: 0
EndUndoOperation
UndoOperation
Index: 1
Type: 3
WasModified: 0
WasOrder2: 0
Layer: 2
EndUndoOperation
EndUndoes
Redoes
EndRedoes
EndUndoRedoHistory
Fore
SplineSet
332 0 m 1
 332 2888 l 1
 820 2888 l 1
 820 406 l 1
 2084 406 l 1
 2084 0 l 1
 332 0 l 1
EndSplineSet
EndChar

StartChar: M
Encoding: 77 77 47
Width: 3632
GlyphClass: 2
Flags: HW
LayerCount: 2
UndoRedoHistory
Layer: 1
Undoes
UndoOperation
Index: 0
Type: 1
WasModified: 0
WasOrder2: 0
Layer: 2
Width: 1816
VWidth: 2048
LBearingChange: 0
UnicodeEnc: 0
InstructionsLength: 0
EndUndoOperation
UndoOperation
Index: 1
Type: 3
WasModified: 0
WasOrder2: 0
Layer: 2
EndUndoOperation
EndUndoes
Redoes
EndRedoes
EndUndoRedoHistory
Fore
SplineSet
332 0 m 1
 332 2888 l 1
 1156 2888 l 1
 1802 446 l 1
 1826 446 l 1
 2478 2888 l 1
 3302 2888 l 1
 3302 0 l 1
 2850 0 l 1
 2850 2600 l 1
 2830 2600 l 1
 2084 0 l 1
 1548 0 l 1
 802 2600 l 1
 782 2600 l 1
 782 0 l 1
 332 0 l 1
EndSplineSet
EndChar

StartChar: N
Encoding: 78 78 48
Width: 2994
GlyphClass: 2
Flags: HW
AnchorPoint: "Anchor-2" 1590 2888 basechar 0
AnchorPoint: "Anchor-0" 1500 0 basechar 0
LayerCount: 2
UndoRedoHistory
Layer: 1
Undoes
UndoOperation
Index: 0
Type: 1
WasModified: 0
WasOrder2: 0
Layer: 2
Width: 1497
VWidth: 2048
LBearingChange: 0
UnicodeEnc: 0
InstructionsLength: 0
EndUndoOperation
UndoOperation
Index: 1
Type: 3
WasModified: 0
WasOrder2: 0
Layer: 2
EndUndoOperation
EndUndoes
Redoes
EndRedoes
EndUndoRedoHistory
Fore
SplineSet
332 0 m 1
 332 2888 l 1
 1130 2888 l 1
 2188 332 l 1
 2208 332 l 1
 2208 2888 l 1
 2662 2888 l 1
 2662 0 l 1
 1864 0 l 1
 812 2556 l 1
 786 2556 l 1
 786 0 l 1
 332 0 l 1
EndSplineSet
EndChar

StartChar: O
Encoding: 79 79 49
Width: 3194
GlyphClass: 2
Flags: HW
AnchorPoint: "Anchor-3" 2056 2888 basechar 0
AnchorPoint: "Anchor-2" 1602 2888 basechar 0
AnchorPoint: "Anchor-1" 2240 0 basechar 0
AnchorPoint: "Anchor-0" 1602 0 basechar 0
LayerCount: 2
UndoRedoHistory
Layer: 1
Undoes
UndoOperation
Index: 0
Type: 1
WasModified: 0
WasOrder2: 0
Layer: 2
Width: 1597
VWidth: 2048
LBearingChange: 0
UnicodeEnc: 0
InstructionsLength: 0
EndUndoOperation
UndoOperation
Index: 1
Type: 3
WasModified: 0
WasOrder2: 0
Layer: 2
EndUndoOperation
EndUndoes
Redoes
EndRedoes
EndUndoRedoHistory
Fore
SplineSet
1598 -70 m 0
 1182 -70 848 68 596 344 c 0
 344 622 218 988 218 1442 c 0
 218 1742 276 2008 388 2236 c 0
 504 2468 664 2644 872 2770 c 0
 1082 2896 1324 2958 1598 2958 c 0
 2016 2958 2350 2820 2604 2542 c 0
 2856 2264 2982 1898 2982 1442 c 0
 2982 986 2856 620 2604 344 c 0
 2350 68 2016 -70 1598 -70 c 0
734 1442 m 0
 734 1114 812 848 972 648 c 0
 1128 444 1338 344 1598 344 c 0
 1858 344 2068 444 2224 648 c 0
 2384 848 2462 1114 2462 1442 c 0
 2462 1772 2382 2038 2224 2240 c 0
 2066 2442 1856 2544 1598 2544 c 0
 1340 2544 1130 2442 972 2240 c 0
 814 2038 734 1772 734 1442 c 0
EndSplineSet
Substitution2: "Single Substitution lookup 33 subtable" ordmasculine
Substitution2: "'aalt' Access All Alternates in Latin lookup 0 subtable" ordmasculine
EndChar

StartChar: P
Encoding: 80 80 50
Width: 2632
GlyphClass: 2
Flags: HW
LayerCount: 2
UndoRedoHistory
Layer: 1
Undoes
UndoOperation
Index: 0
Type: 1
WasModified: 0
WasOrder2: 0
Layer: 2
Width: 1316
VWidth: 2048
LBearingChange: 0
UnicodeEnc: 0
InstructionsLength: 0
EndUndoOperation
UndoOperation
Index: 1
Type: 3
WasModified: 0
WasOrder2: 0
Layer: 2
EndUndoOperation
EndUndoes
Redoes
EndRedoes
EndUndoRedoHistory
Fore
SplineSet
332 0 m 1
 332 2888 l 1
 1430 2888 l 2
 1748 2888 2002 2808 2192 2646 c 0
 2380 2484 2474 2264 2474 1986 c 0
 2474 1708 2380 1488 2192 1328 c 0
 2002 1166 1748 1086 1430 1086 c 2
 820 1086 l 1
 820 0 l 1
 332 0 l 1
820 1474 m 1
 1360 1474 l 2
 1774 1474 1982 1644 1982 1986 c 0
 1982 2160 1928 2288 1822 2374 c 0
 1716 2460 1562 2502 1360 2502 c 2
 820 2502 l 1
 820 1474 l 1
EndSplineSet
EndChar

StartChar: Q
Encoding: 81 81 51
Width: 3194
GlyphClass: 2
Flags: HW
AnchorPoint: "Anchor-3" 2056 2888 basechar 0
AnchorPoint: "Anchor-2" 1602 2888 basechar 0
AnchorPoint: "Anchor-1" 2240 0 basechar 0
AnchorPoint: "Anchor-0" 1602 0 basechar 0
LayerCount: 2
UndoRedoHistory
Layer: 1
Undoes
UndoOperation
Index: 0
Type: 1
WasModified: 0
WasOrder2: 0
Layer: 2
Width: 1597
VWidth: 2048
LBearingChange: 0
UnicodeEnc: 0
InstructionsLength: 0
EndUndoOperation
UndoOperation
Index: 1
Type: 3
WasModified: 0
WasOrder2: 0
Layer: 2
EndUndoOperation
EndUndoes
Redoes
EndRedoes
EndUndoRedoHistory
Fore
SplineSet
1598 -70 m 0
 1182 -70 848 68 596 344 c 0
 344 622 218 988 218 1442 c 0
 218 1742 276 2008 388 2236 c 0
 504 2468 664 2644 872 2770 c 0
 1082 2896 1324 2958 1598 2958 c 0
 2016 2958 2350 2820 2604 2542 c 0
 2856 2264 2982 1898 2982 1442 c 0
 2982 1218 2948 1012 2884 824 c 0
 2816 636 2722 476 2600 344 c 1
 2970 -8 l 1
 2970 -566 l 1
 2278 94 l 1
 2080 -16 1852 -70 1598 -70 c 0
734 1442 m 0
 734 1114 812 848 972 648 c 0
 1128 444 1338 344 1598 344 c 0
 1858 344 2068 444 2224 648 c 0
 2384 848 2462 1114 2462 1442 c 0
 2462 1772 2382 2038 2224 2240 c 0
 2066 2442 1856 2544 1598 2544 c 0
 1340 2544 1130 2442 972 2240 c 0
 814 2038 734 1772 734 1442 c 0
EndSplineSet
EndChar

StartChar: R
Encoding: 82 82 52
Width: 2726
GlyphClass: 2
Flags: HW
AnchorPoint: "Anchor-2" 1290 2888 basechar 0
AnchorPoint: "Anchor-0" 1368 0 basechar 0
LayerCount: 2
UndoRedoHistory
Layer: 1
Undoes
UndoOperation
Index: 0
Type: 1
WasModified: 0
WasOrder2: 0
Layer: 2
Width: 1363
VWidth: 2048
LBearingChange: 0
UnicodeEnc: 0
InstructionsLength: 0
EndUndoOperation
UndoOperation
Index: 1
Type: 3
WasModified: 0
WasOrder2: 0
Layer: 2
EndUndoOperation
EndUndoes
Redoes
EndRedoes
EndUndoRedoHistory
Fore
SplineSet
332 0 m 1
 332 2888 l 1
 1450 2888 l 2
 1764 2888 2012 2812 2196 2662 c 0
 2382 2512 2474 2304 2474 2040 c 0
 2474 1828 2412 1652 2286 1510 c 0
 2160 1368 1988 1278 1770 1236 c 1
 2556 0 l 1
 2008 0 l 1
 1278 1192 l 1
 820 1192 l 1
 820 0 l 1
 332 0 l 1
820 1544 m 1
 1384 1544 l 2
 1782 1544 1982 1704 1982 2024 c 0
 1982 2342 1782 2502 1384 2502 c 2
 820 2502 l 1
 820 1544 l 1
EndSplineSet
EndChar

StartChar: S
Encoding: 83 83 53
Width: 2604
GlyphClass: 2
Flags: HW
AnchorPoint: "Anchor-2" 1388 2888 basechar 0
AnchorPoint: "Anchor-0" 1352 0 basechar 0
LayerCount: 2
UndoRedoHistory
Layer: 1
Undoes
UndoOperation
Index: 0
Type: 1
WasModified: 0
WasOrder2: 0
Layer: 2
Width: 1302
VWidth: 2048
LBearingChange: 0
UnicodeEnc: 0
InstructionsLength: 0
EndUndoOperation
UndoOperation
Index: 1
Type: 3
WasModified: 0
WasOrder2: 0
Layer: 2
EndUndoOperation
EndUndoes
Redoes
EndRedoes
EndUndoRedoHistory
Fore
SplineSet
1332 -70 m 0
 1034 -70 786 -4 584 124 c 0
 382 256 246 444 172 692 c 1
 630 860 l 1
 684 680 772 544 894 452 c 0
 1016 358 1170 312 1352 312 c 0
 1534 312 1676 354 1774 436 c 0
 1872 518 1922 636 1922 786 c 0
 1922 908 1888 1004 1818 1072 c 0
 1748 1142 1644 1194 1504 1228 c 2
 1048 1348 l 1
 568 1466 328 1722 328 2114 c 0
 328 2368 424 2572 612 2728 c 0
 804 2880 1058 2958 1376 2958 c 0
 1634 2958 1854 2906 2038 2800 c 0
 2222 2696 2350 2550 2424 2360 c 1
 1994 2174 l 1
 1938 2314 1858 2416 1756 2482 c 0
 1654 2548 1522 2580 1364 2580 c 0
 1198 2580 1070 2544 976 2472 c 0
 882 2398 836 2300 836 2174 c 0
 836 2060 870 1972 940 1910 c 0
 1008 1848 1116 1796 1266 1754 c 2
 1744 1626 l 2
 1962 1568 2130 1470 2248 1336 c 0
 2368 1202 2428 1034 2428 832 c 0
 2428 556 2330 336 2134 174 c 0
 1938 12 1670 -70 1332 -70 c 0
EndSplineSet
EndChar

StartChar: T
Encoding: 84 84 54
Width: 2440
GlyphClass: 2
Flags: HW
AnchorPoint: "Anchor-2" 1220 2888 basechar 0
AnchorPoint: "Anchor-0" 1220 0 basechar 0
LayerCount: 2
UndoRedoHistory
Layer: 1
Undoes
UndoOperation
Index: 0
Type: 1
WasModified: 0
WasOrder2: 0
Layer: 2
Width: 1220
VWidth: 2048
LBearingChange: 0
UnicodeEnc: 0
InstructionsLength: 0
EndUndoOperation
UndoOperation
Index: 1
Type: 3
WasModified: 0
WasOrder2: 0
Layer: 2
EndUndoOperation
EndUndoes
Redoes
EndRedoes
EndUndoRedoHistory
Fore
SplineSet
978 0 m 1
 978 2482 l 1
 136 2482 l 1
 136 2888 l 1
 2306 2888 l 1
 2306 2482 l 1
 1462 2482 l 1
 1462 0 l 1
 978 0 l 1
EndSplineSet
EndChar

StartChar: U
Encoding: 85 85 55
Width: 2964
GlyphClass: 2
Flags: HW
AnchorPoint: "Anchor-3" 2126 2888 basechar 0
AnchorPoint: "Anchor-2" 1482 2888 basechar 0
AnchorPoint: "Anchor-1" 2084 0 basechar 0
AnchorPoint: "Anchor-0" 1482 0 basechar 0
LayerCount: 2
UndoRedoHistory
Layer: 1
Undoes
UndoOperation
Index: 0
Type: 1
WasModified: 0
WasOrder2: 0
Layer: 2
Width: 1482
VWidth: 2048
LBearingChange: 0
UnicodeEnc: 0
InstructionsLength: 0
EndUndoOperation
UndoOperation
Index: 1
Type: 3
WasModified: 0
WasOrder2: 0
Layer: 2
EndUndoOperation
EndUndoes
Redoes
EndRedoes
EndUndoRedoHistory
Fore
SplineSet
1486 -70 m 0
 1130 -70 848 30 642 232 c 0
 436 432 332 696 332 1024 c 2
 332 2888 l 1
 840 2888 l 1
 840 1056 l 2
 840 846 896 678 1012 554 c 0
 1124 430 1284 368 1486 368 c 0
 1688 368 1844 430 1956 554 c 0
 2070 678 2126 846 2126 1056 c 2
 2126 2888 l 1
 2630 2888 l 1
 2630 1024 l 2
 2630 696 2528 432 2324 232 c 0
 2118 30 1840 -70 1486 -70 c 0
EndSplineSet
EndChar

StartChar: V
Encoding: 86 86 56
Width: 2732
GlyphClass: 2
Flags: HW
LayerCount: 2
UndoRedoHistory
Layer: 1
Undoes
UndoOperation
Index: 0
Type: 1
WasModified: 0
WasOrder2: 0
Layer: 2
Width: 1366
VWidth: 2048
LBearingChange: 0
UnicodeEnc: 0
InstructionsLength: 0
EndUndoOperation
UndoOperation
Index: 1
Type: 3
WasModified: 0
WasOrder2: 0
Layer: 2
EndUndoOperation
EndUndoes
Redoes
EndRedoes
EndUndoRedoHistory
Fore
SplineSet
1020 0 m 1
 98 2888 l 1
 630 2888 l 1
 1356 328 l 1
 1376 328 l 1
 2102 2888 l 1
 2634 2888 l 1
 1716 0 l 1
 1020 0 l 1
EndSplineSet
EndChar

StartChar: W
Encoding: 87 87 57
Width: 4022
GlyphClass: 2
Flags: HW
AnchorPoint: "Anchor-2" 2008 2888 basechar 0
AnchorPoint: "Anchor-0" 2008 0 basechar 0
LayerCount: 2
UndoRedoHistory
Layer: 1
Undoes
UndoOperation
Index: 0
Type: 1
WasModified: 0
WasOrder2: 0
Layer: 2
Width: 2011
VWidth: 2048
LBearingChange: 0
UnicodeEnc: 0
InstructionsLength: 0
EndUndoOperation
UndoOperation
Index: 1
Type: 3
WasModified: 0
WasOrder2: 0
Layer: 2
EndUndoOperation
EndUndoes
Redoes
EndRedoes
EndUndoRedoHistory
Fore
SplineSet
782 0 m 1
 136 2888 l 1
 648 2888 l 1
 1126 360 l 1
 1146 360 l 1
 1638 2888 l 1
 2384 2888 l 1
 2876 360 l 1
 2896 360 l 1
 3376 2888 l 1
 3888 2888 l 1
 3240 0 l 1
 2544 0 l 1
 2024 2528 l 1
 1994 2528 l 1
 1478 0 l 1
 782 0 l 1
EndSplineSet
EndChar

StartChar: X
Encoding: 88 88 58
Width: 2882
GlyphClass: 2
Flags: HW
LayerCount: 2
UndoRedoHistory
Layer: 1
Undoes
UndoOperation
Index: 0
Type: 1
WasModified: 0
WasOrder2: 0
Layer: 2
Width: 1441
VWidth: 2048
LBearingChange: 0
UnicodeEnc: 0
InstructionsLength: 0
EndUndoOperation
UndoOperation
Index: 1
Type: 3
WasModified: 0
WasOrder2: 0
Layer: 2
EndUndoOperation
EndUndoes
Redoes
EndRedoes
EndUndoRedoHistory
Fore
SplineSet
2220 0 m 1
 1446 1282 l 1
 1426 1282 l 1
 660 0 l 1
 98 0 l 1
 1094 1540 l 1
 218 2888 l 1
 794 2888 l 1
 1426 1814 l 1
 1446 1814 l 1
 2068 2888 l 1
 2646 2888 l 1
 1774 1552 l 1
 2786 0 l 1
 2220 0 l 1
EndSplineSet
EndChar

StartChar: Y
Encoding: 89 89 59
Width: 2686
GlyphClass: 2
Flags: HW
AnchorPoint: "Anchor-2" 1344 2888 basechar 0
AnchorPoint: "Anchor-0" 1344 0 basechar 0
LayerCount: 2
UndoRedoHistory
Layer: 1
Undoes
UndoOperation
Index: 0
Type: 1
WasModified: 0
WasOrder2: 0
Layer: 2
Width: 1343
VWidth: 2048
LBearingChange: 0
UnicodeEnc: 0
InstructionsLength: 0
EndUndoOperation
UndoOperation
Index: 1
Type: 3
WasModified: 0
WasOrder2: 0
Layer: 2
EndUndoOperation
EndUndoes
Redoes
EndRedoes
EndUndoRedoHistory
Fore
SplineSet
1098 0 m 1
 1098 1180 l 1
 82 2888 l 1
 626 2888 l 1
 1336 1582 l 1
 1352 1582 l 1
 2060 2888 l 1
 2600 2888 l 1
 1586 1180 l 1
 1586 0 l 1
 1098 0 l 1
EndSplineSet
EndChar

StartChar: Z
Encoding: 90 90 60
Width: 2612
GlyphClass: 2
Flags: HW
AnchorPoint: "Anchor-2" 1310 2888 basechar 0
AnchorPoint: "Anchor-0" 1310 0 basechar 0
LayerCount: 2
UndoRedoHistory
Layer: 1
Undoes
UndoOperation
Index: 0
Type: 1
WasModified: 0
WasOrder2: 0
Layer: 2
Width: 1306
VWidth: 2048
LBearingChange: 0
UnicodeEnc: 0
InstructionsLength: 0
EndUndoOperation
UndoOperation
Index: 1
Type: 3
WasModified: 0
WasOrder2: 0
Layer: 2
EndUndoOperation
EndUndoes
Redoes
EndRedoes
EndUndoRedoHistory
Fore
SplineSet
212 0 m 1
 212 532 l 1
 1840 2458 l 1
 1840 2482 l 1
 246 2482 l 1
 246 2888 l 1
 2322 2888 l 1
 2322 2356 l 1
 696 430 l 1
 696 406 l 1
 2408 406 l 1
 2408 0 l 1
 212 0 l 1
EndSplineSet
EndChar

StartChar: bracketleft
Encoding: 91 91 61
Width: 1510
GlyphClass: 2
Flags: HW
LayerCount: 2
UndoRedoHistory
Layer: 1
Undoes
UndoOperation
Index: 0
Type: 1
WasModified: 0
WasOrder2: 0
Layer: 2
Width: 755
VWidth: 2048
LBearingChange: 0
UnicodeEnc: 0
InstructionsLength: 0
EndUndoOperation
UndoOperation
Index: 1
Type: 3
WasModified: 0
WasOrder2: 0
Layer: 2
EndUndoOperation
EndUndoes
Redoes
EndRedoes
EndUndoRedoHistory
Fore
SplineSet
1318 3080 m 1
 1318 2720 l 1
 774 2720 l 1
 774 -290 l 1
 1318 -290 l 1
 1318 -656 l 1
 332 -656 l 1
 332 3080 l 1
 1318 3080 l 1
EndSplineSet
Substitution2: "'case' Case-Sensitive Forms in Latin lookup 23 subtable" bracketleft.case
Substitution2: "'aalt' Access All Alternates in Latin lookup 0 subtable" bracketleft.case
EndChar

StartChar: backslash
Encoding: 92 92 62
Width: 1544
GlyphClass: 2
Flags: HW
LayerCount: 2
UndoRedoHistory
Layer: 1
Undoes
UndoOperation
Index: 0
Type: 1
WasModified: 0
WasOrder2: 0
Layer: 2
Width: 772
VWidth: 2048
LBearingChange: 0
UnicodeEnc: 0
InstructionsLength: 0
EndUndoOperation
UndoOperation
Index: 1
Type: 3
WasModified: 0
WasOrder2: 0
Layer: 2
EndUndoOperation
EndUndoes
Redoes
EndRedoes
EndUndoRedoHistory
Fore
SplineSet
1478 -492 m 1
 1044 -492 l 1
 70 2958 l 1
 504 2958 l 1
 1478 -492 l 1
EndSplineSet
Substitution2: "'case' Case-Sensitive Forms in Latin lookup 23 subtable" backslash.case
Substitution2: "'aalt' Access All Alternates in Latin lookup 0 subtable" backslash.case
EndChar

StartChar: bracketright
Encoding: 93 93 63
Width: 1510
GlyphClass: 2
Flags: HW
LayerCount: 2
UndoRedoHistory
Layer: 1
Undoes
UndoOperation
Index: 0
Type: 1
WasModified: 0
WasOrder2: 0
Layer: 2
Width: 755
VWidth: 2048
LBearingChange: 0
UnicodeEnc: 0
InstructionsLength: 0
EndUndoOperation
UndoOperation
Index: 1
Type: 3
WasModified: 0
WasOrder2: 0
Layer: 2
EndUndoOperation
EndUndoes
Redoes
EndRedoes
EndUndoRedoHistory
Fore
SplineSet
192 -656 m 1
 192 -290 l 1
 738 -290 l 1
 738 2716 l 1
 192 2716 l 1
 192 3080 l 1
 1180 3080 l 1
 1180 -656 l 1
 192 -656 l 1
EndSplineSet
Substitution2: "'case' Case-Sensitive Forms in Latin lookup 23 subtable" bracketright.case
Substitution2: "'aalt' Access All Alternates in Latin lookup 0 subtable" bracketright.case
EndChar

StartChar: asciicircum
Encoding: 94 94 64
Width: 2300
GlyphClass: 2
Flags: HW
LayerCount: 2
UndoRedoHistory
Layer: 1
Undoes
UndoOperation
Index: 0
Type: 1
WasModified: 0
WasOrder2: 0
Layer: 2
Width: 1150
VWidth: 2048
LBearingChange: 0
UnicodeEnc: 0
InstructionsLength: 0
EndUndoOperation
UndoOperation
Index: 1
Type: 3
WasModified: 0
WasOrder2: 0
Layer: 2
EndUndoOperation
EndUndoes
Redoes
EndRedoes
EndUndoRedoHistory
Fore
SplineSet
906 2888 m 1
 1396 2888 l 1
 2064 1646 l 1
 1638 1646 l 1
 1160 2560 l 1
 1142 2560 l 1
 664 1646 l 1
 238 1646 l 1
 906 2888 l 1
EndSplineSet
EndChar

StartChar: underscore
Encoding: 95 95 65
Width: 1982
GlyphClass: 2
Flags: HW
LayerCount: 2
UndoRedoHistory
Layer: 1
Undoes
UndoOperation
Index: 0
Type: 1
WasModified: 0
WasOrder2: 0
Layer: 2
Width: 991
VWidth: 2048
LBearingChange: 0
UnicodeEnc: 0
InstructionsLength: 0
EndUndoOperation
UndoOperation
Index: 1
Type: 3
WasModified: 0
WasOrder2: 0
Layer: 2
EndUndoOperation
EndUndoes
Redoes
EndRedoes
EndUndoRedoHistory
Fore
SplineSet
28 -570 m 1
 28 -238 l 1
 1958 -238 l 1
 1958 -570 l 1
 28 -570 l 1
EndSplineSet
EndChar

StartChar: grave
Encoding: 96 96 66
Width: 1342
GlyphClass: 4
Flags: HW
AnchorPoint: "Anchor-5" 738 2920 basemark 0
LayerCount: 2
UndoRedoHistory
Layer: 1
Undoes
UndoOperation
Index: 0
Type: 1
WasModified: 0
WasOrder2: 0
Layer: 2
Width: 671
VWidth: 2048
LBearingChange: 0
UnicodeEnc: 0
InstructionsLength: 0
EndUndoOperation
UndoOperation
Index: 1
Type: 3
WasModified: 0
WasOrder2: 0
Layer: 2
EndUndoOperation
EndUndoes
Redoes
EndRedoes
EndUndoRedoHistory
Fore
SplineSet
676 3158 m 1
 1138 2458 l 1
 692 2458 l 1
 204 3158 l 1
 676 3158 l 1
EndSplineSet
EndChar

StartChar: a
Encoding: 97 97 67
Width: 2292
GlyphClass: 2
Flags: HW
AnchorPoint: "Anchor-2" 1138 2180 basechar 0
AnchorPoint: "Anchor-1" 2150 0 basechar 0
AnchorPoint: "Anchor-0" 1146 0 basechar 0
LayerCount: 2
UndoRedoHistory
Layer: 1
Undoes
UndoOperation
Index: 0
Type: 1
WasModified: 0
WasOrder2: 0
Layer: 2
Width: 1146
VWidth: 2048
LBearingChange: 0
UnicodeEnc: 0
InstructionsLength: 0
EndUndoOperation
UndoOperation
Index: 1
Type: 3
WasModified: 0
WasOrder2: 0
Layer: 2
EndUndoOperation
EndUndoes
Redoes
EndRedoes
EndUndoRedoHistory
Fore
SplineSet
1662 0 m 1
 1552 324 l 1
 1528 324 l 1
 1466 208 1380 116 1268 50 c 0
 1158 -16 1032 -50 892 -50 c 0
 676 -50 502 8 372 124 c 0
 242 240 176 392 176 582 c 0
 176 764 242 912 372 1030 c 0
 504 1148 700 1224 958 1258 c 2
 1532 1336 l 1
 1532 1478 l 2
 1532 1600 1496 1698 1424 1768 c 0
 1354 1840 1252 1876 1118 1876 c 0
 996 1876 898 1850 826 1796 c 0
 754 1744 702 1662 672 1548 c 1
 242 1654 l 1
 292 1836 398 1976 556 2076 c 0
 716 2178 908 2228 1130 2228 c 0
 1416 2228 1632 2160 1776 2024 c 0
 1922 1888 1994 1696 1994 1446 c 2
 1994 426 l 1
 2150 0 l 1
 1662 0 l 1
638 602 m 0
 638 504 672 428 736 372 c 0
 804 314 896 286 1016 286 c 0
 1174 286 1298 338 1392 444 c 0
 1486 550 1532 694 1532 876 c 2
 1532 1044 l 1
 1074 984 l 2
 784 944 638 816 638 602 c 0
EndSplineSet
Substitution2: "Single Substitution lookup 33 subtable" ordfeminine
Substitution2: "'sups' Superscript in Latin lookup 13 subtable" a.sups
AlternateSubs2: "'aalt' Access All Alternates in Latin lookup 1 subtable" a.sups ordfeminine
EndChar

StartChar: b
Encoding: 98 98 68
Width: 2534
GlyphClass: 2
Flags: HW
AnchorPoint: "Anchor-2" 1266 2180 basechar 0
AnchorPoint: "Anchor-0" 1266 0 basechar 0
LayerCount: 2
UndoRedoHistory
Layer: 1
Undoes
UndoOperation
Index: 0
Type: 1
WasModified: 0
WasOrder2: 0
Layer: 2
Width: 1267
VWidth: 2048
LBearingChange: 0
UnicodeEnc: 0
InstructionsLength: 0
EndUndoOperation
UndoOperation
Index: 1
Type: 3
WasModified: 0
WasOrder2: 0
Layer: 2
EndUndoOperation
EndUndoes
Redoes
EndRedoes
EndUndoRedoHistory
Fore
SplineSet
1314 316 m 0
 1492 316 1630 386 1732 524 c 0
 1834 662 1884 852 1884 1094 c 0
 1884 1332 1834 1520 1732 1658 c 0
 1630 1796 1492 1864 1314 1864 c 0
 1140 1864 998 1792 892 1650 c 0
 784 1508 730 1322 730 1094 c 0
 730 854 782 664 886 524 c 0
 990 386 1132 316 1314 316 c 0
286 0 m 1
 286 3010 l 1
 758 3010 l 1
 758 1786 l 1
 778 1786 l 1
 830 1912 916 2018 1036 2102 c 0
 1154 2186 1292 2228 1446 2228 c 0
 1724 2228 1946 2126 2116 1920 c 0
 2284 1714 2368 1440 2368 1094 c 0
 2368 744 2284 466 2116 260 c 0
 1946 54 1722 -50 1442 -50 c 0
 1284 -50 1142 -8 1016 74 c 0
 890 156 802 260 754 386 c 1
 730 386 l 1
 730 0 l 1
 286 0 l 1
EndSplineSet
Substitution2: "'sups' Superscript in Latin lookup 13 subtable" b.sups
Substitution2: "'aalt' Access All Alternates in Latin lookup 0 subtable" b.sups
EndChar

StartChar: c
Encoding: 99 99 69
Width: 2182
GlyphClass: 2
Flags: HW
AnchorPoint: "Anchor-2" 1212 2180 basechar 0
AnchorPoint: "Anchor-0" 1196 0 basechar 0
LayerCount: 2
UndoRedoHistory
Layer: 1
Undoes
UndoOperation
Index: 0
Type: 1
WasModified: 0
WasOrder2: 0
Layer: 2
Width: 1091
VWidth: 2048
LBearingChange: 0
UnicodeEnc: 0
InstructionsLength: 0
EndUndoOperation
UndoOperation
Index: 1
Type: 3
WasModified: 0
WasOrder2: 0
Layer: 2
EndUndoOperation
EndUndoes
Redoes
EndRedoes
EndUndoRedoHistory
Fore
SplineSet
1204 -50 m 0
 902 -50 652 54 460 260 c 0
 264 466 168 744 168 1094 c 0
 168 1440 264 1716 456 1920 c 0
 650 2126 896 2228 1196 2228 c 0
 1656 2228 1956 2040 2094 1662 c 1
 1692 1508 l 1
 1600 1746 1434 1864 1196 1864 c 0
 1040 1864 910 1798 804 1668 c 0
 700 1536 648 1344 648 1094 c 0
 648 840 700 646 806 514 c 0
 912 382 1044 316 1204 316 c 0
 1444 316 1610 438 1704 680 c 1
 2102 528 l 1
 1958 142 1658 -50 1204 -50 c 0
EndSplineSet
Substitution2: "'sups' Superscript in Latin lookup 13 subtable" c.sups
Substitution2: "'aalt' Access All Alternates in Latin lookup 0 subtable" c.sups
EndChar

StartChar: d
Encoding: 100 100 70
Width: 2534
GlyphClass: 2
Flags: HW
AnchorPoint: "Anchor-3" 2478 2888 basechar 0
AnchorPoint: "Anchor-2" 1266 3010 basechar 0
AnchorPoint: "Anchor-0" 1266 0 basechar 0
LayerCount: 2
UndoRedoHistory
Layer: 1
Undoes
UndoOperation
Index: 0
Type: 1
WasModified: 0
WasOrder2: 0
Layer: 2
Width: 1267
VWidth: 2048
LBearingChange: 0
UnicodeEnc: 0
InstructionsLength: 0
EndUndoOperation
UndoOperation
Index: 1
Type: 3
WasModified: 0
WasOrder2: 0
Layer: 2
EndUndoOperation
EndUndoes
Redoes
EndRedoes
EndUndoRedoHistory
Fore
SplineSet
1220 316 m 0
 1402 316 1544 386 1648 524 c 0
 1750 662 1802 852 1802 1094 c 0
 1802 1322 1748 1508 1640 1650 c 0
 1534 1792 1394 1864 1220 1864 c 0
 1042 1864 904 1796 804 1658 c 0
 702 1520 652 1332 652 1094 c 0
 652 852 702 662 804 524 c 0
 904 386 1042 316 1220 316 c 0
164 1094 m 0
 164 1440 248 1714 416 1920 c 0
 586 2126 808 2228 1086 2228 c 0
 1242 2228 1380 2186 1498 2104 c 0
 1616 2020 1702 1914 1754 1786 c 1
 1774 1786 l 1
 1774 3010 l 1
 2244 3010 l 1
 2244 0 l 1
 1802 0 l 1
 1802 386 l 1
 1782 386 l 1
 1732 260 1644 156 1518 74 c 0
 1392 -8 1252 -50 1094 -50 c 0
 814 -50 588 54 420 260 c 0
 248 468 164 746 164 1094 c 0
EndSplineSet
Substitution2: "'sups' Superscript in Latin lookup 13 subtable" d.sups
Substitution2: "'aalt' Access All Alternates in Latin lookup 0 subtable" d.sups
EndChar

StartChar: e
Encoding: 101 101 71
Width: 2366
GlyphClass: 2
Flags: HW
AnchorPoint: "Anchor-2" 1212 2180 basechar 0
AnchorPoint: "Anchor-1" 1810 0 basechar 0
AnchorPoint: "Anchor-0" 1188 0 basechar 0
LayerCount: 2
UndoRedoHistory
Layer: 1
Undoes
UndoOperation
Index: 0
Type: 1
WasModified: 0
WasOrder2: 0
Layer: 2
Width: 1183
VWidth: 2048
LBearingChange: 0
UnicodeEnc: 0
InstructionsLength: 0
EndUndoOperation
UndoOperation
Index: 1
Type: 3
WasModified: 0
WasOrder2: 0
Layer: 2
EndUndoOperation
EndUndoes
Redoes
EndRedoes
EndUndoRedoHistory
Fore
SplineSet
1232 -50 m 0
 902 -50 644 56 452 266 c 0
 264 476 168 756 168 1106 c 0
 168 1436 266 1706 464 1916 c 0
 662 2124 910 2228 1212 2228 c 0
 1518 2228 1762 2136 1940 1952 c 0
 2118 1766 2208 1516 2208 1200 c 0
 2208 1126 2206 1054 2200 988 c 1
 638 988 l 1
 646 778 704 616 810 496 c 0
 916 380 1068 320 1266 320 c 0
 1514 320 1694 416 1806 610 c 1
 2166 410 l 1
 2000 104 1688 -50 1232 -50 c 0
644 1298 m 1
 1758 1298 l 1
 1752 1490 1702 1638 1604 1740 c 0
 1506 1844 1376 1896 1212 1896 c 0
 1050 1896 920 1846 820 1748 c 0
 718 1650 660 1500 644 1298 c 1
EndSplineSet
Substitution2: "'sups' Superscript in Latin lookup 13 subtable" e.sups
Substitution2: "'aalt' Access All Alternates in Latin lookup 0 subtable" e.sups
EndChar

StartChar: f
Encoding: 102 102 72
Width: 1580
GlyphClass: 2
Flags: HW
LayerCount: 2
UndoRedoHistory
Layer: 1
Undoes
UndoOperation
Index: 0
Type: 1
WasModified: 0
WasOrder2: 0
Layer: 2
Width: 790
VWidth: 2048
LBearingChange: 0
UnicodeEnc: 0
InstructionsLength: 0
EndUndoOperation
UndoOperation
Index: 1
Type: 3
WasModified: 0
WasOrder2: 0
Layer: 2
EndUndoOperation
EndUndoes
Redoes
EndRedoes
EndUndoRedoHistory
Fore
SplineSet
500 2392 m 2
 500 2596 560 2756 680 2876 c 0
 798 2992 958 3052 1156 3052 c 0
 1252 3052 1352 3034 1454 2998 c 1
 1454 2670 l 1
 1364 2698 1296 2712 1254 2712 c 0
 1164 2712 1094 2684 1044 2630 c 0
 994 2576 970 2498 970 2400 c 2
 970 2180 l 1
 1426 2180 l 1
 1426 1844 l 1
 970 1844 l 1
 970 0 l 1
 500 0 l 1
 500 1844 l 1
 126 1844 l 1
 126 2180 l 1
 500 2180 l 1
 500 2392 l 2
EndSplineSet
Substitution2: "'sups' Superscript in Latin lookup 13 subtable" f.sups
Substitution2: "'aalt' Access All Alternates in Latin lookup 0 subtable" f.sups
EndChar

StartChar: g
Encoding: 103 103 73
Width: 2514
GlyphClass: 2
Flags: HW
AnchorPoint: "Anchor-2" 1262 2180 basechar 0
AnchorPoint: "Anchor-0" 1262 -820 basechar 0
LayerCount: 2
UndoRedoHistory
Layer: 1
Undoes
UndoOperation
Index: 0
Type: 1
WasModified: 0
WasOrder2: 0
Layer: 2
Width: 1257
VWidth: 2048
LBearingChange: 0
UnicodeEnc: 0
InstructionsLength: 0
EndUndoOperation
UndoOperation
Index: 1
Type: 3
WasModified: 0
WasOrder2: 0
Layer: 2
EndUndoOperation
EndUndoes
Redoes
EndRedoes
EndUndoRedoHistory
Fore
SplineSet
1184 -868 m 0
 670 -868 338 -686 188 -320 c 1
 614 -168 l 1
 712 -398 902 -512 1184 -512 c 0
 1374 -512 1520 -456 1618 -346 c 0
 1716 -236 1766 -74 1766 140 c 2
 1766 462 l 1
 1744 462 l 1
 1670 332 1574 230 1456 156 c 0
 1338 82 1206 46 1060 46 c 0
 796 46 582 146 416 348 c 0
 250 548 168 810 168 1134 c 0
 168 1460 252 1724 420 1924 c 0
 588 2128 808 2228 1078 2228 c 0
 1232 2228 1368 2192 1486 2124 c 0
 1604 2052 1698 1952 1766 1822 c 1
 1786 1822 l 1
 1786 2180 l 1
 2228 2180 l 1
 2228 132 l 2
 2228 -186 2136 -432 1952 -608 c 0
 1766 -780 1510 -868 1184 -868 c 0
660 1134 m 0
 660 912 710 736 808 604 c 0
 908 472 1046 406 1220 406 c 0
 1394 406 1532 472 1634 606 c 0
 1736 740 1786 916 1786 1134 c 0
 1786 1356 1736 1532 1634 1664 c 0
 1532 1798 1394 1864 1220 1864 c 0
 1046 1864 908 1798 808 1664 c 0
 710 1532 660 1356 660 1134 c 0
EndSplineSet
Substitution2: "'sups' Superscript in Latin lookup 13 subtable" g.sups
Substitution2: "'aalt' Access All Alternates in Latin lookup 0 subtable" g.sups
EndChar

StartChar: h
Encoding: 104 104 74
Width: 2420
GlyphClass: 2
Flags: HW
AnchorPoint: "Anchor-2" 1254 2888 basechar 0
AnchorPoint: "Anchor-0" 1212 0 basechar 0
LayerCount: 2
UndoRedoHistory
Layer: 1
Undoes
UndoOperation
Index: 0
Type: 1
WasModified: 0
WasOrder2: 0
Layer: 2
Width: 1210
VWidth: 2048
LBearingChange: 0
UnicodeEnc: 0
InstructionsLength: 0
EndUndoOperation
UndoOperation
Index: 1
Type: 3
WasModified: 0
WasOrder2: 0
Layer: 2
EndUndoOperation
EndUndoes
Redoes
EndRedoes
EndUndoRedoHistory
Fore
SplineSet
286 0 m 1
 286 3010 l 1
 758 3010 l 1
 758 1852 l 1
 778 1852 l 1
 836 1970 920 2064 1030 2128 c 0
 1140 2196 1268 2228 1414 2228 c 0
 1646 2228 1828 2160 1958 2024 c 0
 2088 1890 2154 1690 2154 1426 c 2
 2154 0 l 1
 1684 0 l 1
 1684 1364 l 2
 1684 1524 1646 1644 1568 1726 c 0
 1492 1808 1388 1848 1254 1848 c 0
 1100 1848 980 1802 892 1708 c 0
 802 1616 758 1484 758 1310 c 2
 758 0 l 1
 286 0 l 1
EndSplineSet
Substitution2: "'sups' Superscript in Latin lookup 13 subtable" h.sups
Substitution2: "'aalt' Access All Alternates in Latin lookup 0 subtable" h.sups
EndChar

StartChar: i
Encoding: 105 105 75
Width: 1048
GlyphClass: 2
Flags: HW
AnchorPoint: "Anchor-2" 528 3088 basechar 0
AnchorPoint: "Anchor-1" 758 0 basechar 0
AnchorPoint: "Anchor-0" 552 0 basechar 0
LayerCount: 2
UndoRedoHistory
Layer: 1
Undoes
UndoOperation
Index: 0
Type: 1
WasModified: 0
WasOrder2: 0
Layer: 2
Width: 524
VWidth: 2048
LBearingChange: 0
UnicodeEnc: 0
InstructionsLength: 0
EndUndoOperation
UndoOperation
Index: 1
Type: 3
WasModified: 0
WasOrder2: 0
Layer: 2
EndUndoOperation
EndUndoes
Redoes
EndRedoes
EndUndoRedoHistory
Fore
SplineSet
286 0 m 1
 286 2180 l 1
 758 2180 l 1
 758 0 l 1
 286 0 l 1
246 2810 m 0
 246 2888 272 2954 328 3008 c 0
 380 3062 448 3088 528 3088 c 0
 610 3088 676 3062 728 3008 c 0
 780 2954 806 2888 806 2810 c 0
 806 2728 780 2662 728 2608 c 0
 676 2554 610 2528 528 2528 c 0
 448 2528 380 2556 328 2608 c 0
 272 2664 246 2730 246 2810 c 0
EndSplineSet
Substitution2: "Single Substitution lookup 29 subtable" dotlessi
Substitution2: "'sups' Superscript in Latin lookup 13 subtable" i.sups
Substitution2: "'locl' Localized Forms in Latin lookup 6 subtable" i.loclTRK
AlternateSubs2: "'aalt' Access All Alternates in Latin lookup 1 subtable" i.loclTRK i.sups
EndChar

StartChar: j
Encoding: 106 106 76
Width: 1084
GlyphClass: 2
Flags: HW
AnchorPoint: "Anchor-2" 566 3088 basechar 0
AnchorPoint: "Anchor-0" 544 -820 basechar 0
LayerCount: 2
UndoRedoHistory
Layer: 1
Undoes
UndoOperation
Index: 0
Type: 1
WasModified: 0
WasOrder2: 0
Layer: 2
Width: 542
VWidth: 2048
LBearingChange: 0
UnicodeEnc: 0
InstructionsLength: 0
EndUndoOperation
UndoOperation
Index: 1
Type: 3
WasModified: 0
WasOrder2: 0
Layer: 2
EndUndoOperation
EndUndoes
Redoes
EndRedoes
EndUndoRedoHistory
Fore
SplineSet
36 -820 m 1
 324 32 l 1
 324 2180 l 1
 794 2180 l 1
 794 28 l 1
 500 -820 l 1
 36 -820 l 1
282 2810 m 0
 282 2888 310 2954 364 3008 c 0
 418 3062 486 3088 566 3088 c 0
 648 3088 714 3062 766 3008 c 0
 818 2954 844 2888 844 2810 c 0
 844 2728 818 2662 766 2608 c 0
 714 2554 648 2528 566 2528 c 0
 486 2528 418 2556 364 2608 c 0
 310 2664 282 2730 282 2810 c 0
EndSplineSet
Substitution2: "Single Substitution lookup 31 subtable" uni006A0301
Substitution2: "Single Substitution lookup 29 subtable" uni0237
Substitution2: "'sups' Superscript in Latin lookup 13 subtable" j.sups
AlternateSubs2: "'aalt' Access All Alternates in Latin lookup 1 subtable" uni006A0301 j.sups
EndChar

StartChar: k
Encoding: 107 107 77
Width: 2272
GlyphClass: 2
Flags: HW
AnchorPoint: "Anchor-2" 1146 3010 basechar 0
AnchorPoint: "Anchor-0" 1146 0 basechar 0
LayerCount: 2
UndoRedoHistory
Layer: 1
Undoes
UndoOperation
Index: 0
Type: 1
WasModified: 0
WasOrder2: 0
Layer: 2
Width: 1136
VWidth: 2048
LBearingChange: 0
UnicodeEnc: 0
InstructionsLength: 0
EndUndoOperation
UndoOperation
Index: 1
Type: 3
WasModified: 0
WasOrder2: 0
Layer: 2
EndUndoOperation
EndUndoes
Redoes
EndRedoes
EndUndoRedoHistory
Fore
SplineSet
286 0 m 1
 286 3010 l 1
 758 3010 l 1
 758 1200 l 1
 778 1200 l 1
 1672 2180 l 1
 2192 2180 l 1
 1376 1282 l 1
 2220 0 l 1
 1708 0 l 1
 1044 1020 l 1
 758 708 l 1
 758 0 l 1
 286 0 l 1
EndSplineSet
Substitution2: "'sups' Superscript in Latin lookup 13 subtable" k.sups
Substitution2: "'aalt' Access All Alternates in Latin lookup 0 subtable" k.sups
EndChar

StartChar: l
Encoding: 108 108 78
Width: 1048
GlyphClass: 2
Flags: HW
AnchorPoint: "Anchor-3" 992 2888 basechar 0
AnchorPoint: "Anchor-2" 524 2888 basechar 0
AnchorPoint: "Anchor-0" 524 0 basechar 0
LayerCount: 2
UndoRedoHistory
Layer: 1
Undoes
UndoOperation
Index: 0
Type: 1
WasModified: 0
WasOrder2: 0
Layer: 2
Width: 524
VWidth: 2048
LBearingChange: 0
UnicodeEnc: 0
InstructionsLength: 0
EndUndoOperation
UndoOperation
Index: 1
Type: 3
WasModified: 0
WasOrder2: 0
Layer: 2
EndUndoOperation
EndUndoes
Redoes
EndRedoes
EndUndoRedoHistory
Fore
SplineSet
286 0 m 1
 286 3010 l 1
 758 3010 l 1
 758 0 l 1
 286 0 l 1
EndSplineSet
Substitution2: "'ss03' Style Set 3 in Latin lookup 27 subtable" l.ss01
Substitution2: "'ss01' Style Set 1 in Latin lookup 25 subtable" l.ss01
Substitution2: "'sups' Superscript in Latin lookup 13 subtable" l.sups
AlternateSubs2: "'aalt' Access All Alternates in Latin lookup 1 subtable" l.sups l.ss01
EndChar

StartChar: m
Encoding: 109 109 79
Width: 3566
GlyphClass: 2
Flags: HW
AnchorPoint: "Anchor-2" 1782 2180 basechar 0
AnchorPoint: "Anchor-0" 1782 0 basechar 0
LayerCount: 2
UndoRedoHistory
Layer: 1
Undoes
UndoOperation
Index: 0
Type: 1
WasModified: 0
WasOrder2: 0
Layer: 2
Width: 1783
VWidth: 2048
LBearingChange: 0
UnicodeEnc: 0
InstructionsLength: 0
EndUndoOperation
UndoOperation
Index: 1
Type: 3
WasModified: 0
WasOrder2: 0
Layer: 2
EndUndoOperation
EndUndoes
Redoes
EndRedoes
EndUndoRedoHistory
Fore
SplineSet
286 0 m 1
 286 2180 l 1
 720 2180 l 1
 720 1818 l 1
 742 1818 l 1
 800 1952 880 2052 986 2124 c 0
 1092 2192 1214 2228 1356 2228 c 0
 1662 2228 1868 2092 1978 1818 c 1
 1998 1818 l 1
 2052 1948 2136 2050 2244 2120 c 0
 2356 2192 2482 2228 2626 2228 c 0
 2830 2228 2992 2162 3116 2032 c 0
 3236 1900 3298 1710 3298 1462 c 2
 3298 0 l 1
 2826 0 l 1
 2826 1396 l 2
 2826 1542 2792 1652 2726 1732 c 0
 2660 1808 2564 1848 2438 1848 c 0
 2308 1848 2206 1804 2136 1720 c 0
 2064 1632 2028 1510 2028 1352 c 2
 2028 0 l 1
 1556 0 l 1
 1556 1396 l 2
 1556 1538 1524 1650 1456 1728 c 0
 1392 1808 1298 1848 1180 1848 c 0
 1050 1848 946 1802 872 1710 c 0
 796 1618 758 1492 758 1332 c 2
 758 0 l 1
 286 0 l 1
EndSplineSet
Substitution2: "'sups' Superscript in Latin lookup 13 subtable" m.sups
Substitution2: "'aalt' Access All Alternates in Latin lookup 0 subtable" m.sups
EndChar

StartChar: n
Encoding: 110 110 80
Width: 2420
GlyphClass: 2
Flags: HW
AnchorPoint: "Anchor-2" 1212 2180 basechar 0
AnchorPoint: "Anchor-0" 1212 0 basechar 0
LayerCount: 2
UndoRedoHistory
Layer: 1
Undoes
UndoOperation
Index: 0
Type: 1
WasModified: 0
WasOrder2: 0
Layer: 2
Width: 1210
VWidth: 2048
LBearingChange: 0
UnicodeEnc: 0
InstructionsLength: 0
EndUndoOperation
UndoOperation
Index: 1
Type: 3
WasModified: 0
WasOrder2: 0
Layer: 2
EndUndoOperation
EndUndoes
Redoes
EndRedoes
EndUndoRedoHistory
Fore
SplineSet
1684 1364 m 2
 1684 1524 1646 1644 1568 1726 c 0
 1492 1808 1388 1848 1254 1848 c 0
 1104 1848 984 1800 892 1704 c 0
 804 1606 758 1476 758 1310 c 2
 758 0 l 1
 286 0 l 1
 286 2180 l 1
 720 2180 l 1
 720 1798 l 1
 742 1798 l 1
 798 1932 884 2038 1000 2114 c 0
 1118 2190 1256 2228 1414 2228 c 0
 1646 2228 1828 2160 1958 2024 c 0
 2088 1890 2154 1690 2154 1426 c 2
 2154 0 l 1
 1684 0 l 1
 1684 1364 l 2
EndSplineSet
Substitution2: "'sups' Superscript in Latin lookup 13 subtable" n.sups
Substitution2: "'aalt' Access All Alternates in Latin lookup 0 subtable" n.sups
EndChar

StartChar: o
Encoding: 111 111 81
Width: 2490
GlyphClass: 2
Flags: HW
AnchorPoint: "Anchor-3" 1606 2180 basechar 0
AnchorPoint: "Anchor-2" 1246 2180 basechar 0
AnchorPoint: "Anchor-1" 1748 0 basechar 0
AnchorPoint: "Anchor-0" 1246 0 basechar 0
LayerCount: 2
UndoRedoHistory
Layer: 1
Undoes
UndoOperation
Index: 0
Type: 1
WasModified: 0
WasOrder2: 0
Layer: 2
Width: 1245
VWidth: 2048
LBearingChange: 0
UnicodeEnc: 0
InstructionsLength: 0
EndUndoOperation
UndoOperation
Index: 1
Type: 3
WasModified: 0
WasOrder2: 0
Layer: 2
EndUndoOperation
EndUndoes
Redoes
EndRedoes
EndUndoRedoHistory
Fore
SplineSet
1246 -50 m 0
 928 -50 668 54 468 264 c 0
 268 474 168 748 168 1090 c 0
 168 1432 268 1706 468 1916 c 0
 668 2124 928 2228 1246 2228 c 0
 1564 2228 1824 2124 2024 1916 c 0
 2222 1706 2322 1432 2322 1090 c 0
 2322 748 2222 472 2024 264 c 0
 1824 54 1564 -50 1246 -50 c 0
652 1090 m 0
 652 834 706 640 816 512 c 0
 926 380 1068 316 1246 316 c 0
 1424 316 1566 380 1674 510 c 0
 1782 640 1836 832 1836 1090 c 0
 1836 1346 1782 1540 1674 1668 c 0
 1566 1800 1424 1864 1246 1864 c 0
 1068 1864 926 1798 816 1668 c 0
 706 1538 652 1344 652 1090 c 0
EndSplineSet
Substitution2: "Single Substitution lookup 33 subtable" ordmasculine
Substitution2: "'sups' Superscript in Latin lookup 13 subtable" o.sups
AlternateSubs2: "'aalt' Access All Alternates in Latin lookup 1 subtable" o.sups ordmasculine
EndChar

StartChar: p
Encoding: 112 112 82
Width: 2534
GlyphClass: 2
Flags: HW
AnchorPoint: "Anchor-2" 1266 2180 basechar 0
AnchorPoint: "Anchor-0" 1266 0 basechar 0
LayerCount: 2
UndoRedoHistory
Layer: 1
Undoes
UndoOperation
Index: 0
Type: 1
WasModified: 0
WasOrder2: 0
Layer: 2
Width: 1267
VWidth: 2048
LBearingChange: 0
UnicodeEnc: 0
InstructionsLength: 0
EndUndoOperation
UndoOperation
Index: 1
Type: 3
WasModified: 0
WasOrder2: 0
Layer: 2
EndUndoOperation
EndUndoes
Redoes
EndRedoes
EndUndoRedoHistory
Fore
SplineSet
286 -820 m 1
 286 2180 l 1
 730 2180 l 1
 730 1794 l 1
 754 1794 l 1
 802 1920 888 2024 1016 2104 c 0
 1140 2188 1284 2228 1442 2228 c 0
 1722 2228 1946 2124 2116 1920 c 0
 2284 1712 2368 1436 2368 1090 c 0
 2368 742 2284 464 2116 260 c 0
 1946 52 1724 -50 1446 -50 c 0
 1292 -50 1154 -8 1034 76 c 0
 914 162 828 268 778 398 c 1
 758 398 l 1
 758 -820 l 1
 286 -820 l 1
730 1090 m 0
 730 862 784 676 892 532 c 0
 998 388 1140 316 1314 316 c 0
 1492 316 1630 386 1732 524 c 0
 1834 662 1884 852 1884 1090 c 0
 1884 1328 1834 1518 1732 1656 c 0
 1630 1794 1492 1864 1314 1864 c 0
 1132 1864 990 1794 886 1656 c 0
 782 1518 730 1328 730 1090 c 0
EndSplineSet
Substitution2: "'sups' Superscript in Latin lookup 13 subtable" p.sups
Substitution2: "'aalt' Access All Alternates in Latin lookup 0 subtable" p.sups
EndChar

StartChar: q
Encoding: 113 113 83
Width: 2534
GlyphClass: 2
Flags: HW
AnchorPoint: "Anchor-2" 1266 2180 basechar 0
AnchorPoint: "Anchor-0" 1266 0 basechar 0
LayerCount: 2
UndoRedoHistory
Layer: 1
Undoes
UndoOperation
Index: 0
Type: 1
WasModified: 0
WasOrder2: 0
Layer: 2
Width: 1267
VWidth: 2048
LBearingChange: 0
UnicodeEnc: 0
InstructionsLength: 0
EndUndoOperation
UndoOperation
Index: 1
Type: 3
WasModified: 0
WasOrder2: 0
Layer: 2
EndUndoOperation
EndUndoes
Redoes
EndRedoes
EndUndoRedoHistory
Fore
SplineSet
1774 -820 m 1
 1774 398 l 1
 1754 398 l 1
 1702 268 1616 162 1498 76 c 0
 1380 -8 1242 -50 1086 -50 c 0
 808 -50 586 52 416 260 c 0
 248 464 164 742 164 1090 c 0
 164 1436 248 1712 420 1920 c 0
 588 2124 814 2228 1094 2228 c 0
 1252 2228 1394 2188 1520 2106 c 0
 1644 2024 1732 1920 1782 1794 c 1
 1802 1794 l 1
 1802 2180 l 1
 2244 2180 l 1
 2244 -820 l 1
 1774 -820 l 1
652 1090 m 0
 652 852 702 662 804 524 c 0
 904 386 1042 316 1220 316 c 0
 1394 316 1534 388 1640 532 c 0
 1748 676 1802 862 1802 1090 c 0
 1802 1328 1750 1518 1648 1656 c 0
 1544 1794 1402 1864 1220 1864 c 0
 1042 1864 904 1794 804 1656 c 0
 702 1518 652 1328 652 1090 c 0
EndSplineSet
Substitution2: "'sups' Superscript in Latin lookup 13 subtable" q.sups
Substitution2: "'aalt' Access All Alternates in Latin lookup 0 subtable" q.sups
EndChar

StartChar: r
Encoding: 114 114 84
Width: 1536
GlyphClass: 2
Flags: HW
AnchorPoint: "Anchor-2" 926 2180 basechar 0
AnchorPoint: "Anchor-0" 524 0 basechar 0
LayerCount: 2
UndoRedoHistory
Layer: 1
Undoes
UndoOperation
Index: 0
Type: 1
WasModified: 0
WasOrder2: 0
Layer: 2
Width: 768
VWidth: 2048
LBearingChange: 0
UnicodeEnc: 0
InstructionsLength: 0
EndUndoOperation
UndoOperation
Index: 1
Type: 3
WasModified: 0
WasOrder2: 0
Layer: 2
EndUndoOperation
EndUndoes
Redoes
EndRedoes
EndUndoRedoHistory
Fore
SplineSet
286 0 m 1
 286 2180 l 1
 720 2180 l 1
 720 1754 l 1
 742 1754 l 1
 780 1898 850 2012 954 2100 c 0
 1058 2184 1180 2228 1318 2228 c 0
 1380 2228 1426 2222 1454 2212 c 1
 1454 1786 l 1
 1412 1796 1352 1802 1270 1802 c 0
 1118 1802 994 1752 900 1652 c 0
 806 1554 758 1424 758 1262 c 2
 758 0 l 1
 286 0 l 1
EndSplineSet
Substitution2: "'sups' Superscript in Latin lookup 13 subtable" r.sups
Substitution2: "'aalt' Access All Alternates in Latin lookup 0 subtable" r.sups
EndChar

StartChar: s
Encoding: 115 115 85
Width: 2064
GlyphClass: 2
Flags: HW
AnchorPoint: "Anchor-2" 1090 2180 basechar 0
AnchorPoint: "Anchor-0" 1064 0 basechar 0
LayerCount: 2
UndoRedoHistory
Layer: 1
Undoes
UndoOperation
Index: 0
Type: 1
WasModified: 0
WasOrder2: 0
Layer: 2
Width: 1032
VWidth: 2048
LBearingChange: 0
UnicodeEnc: 0
InstructionsLength: 0
EndUndoOperation
UndoOperation
Index: 1
Type: 3
WasModified: 0
WasOrder2: 0
Layer: 2
EndUndoOperation
EndUndoes
Redoes
EndRedoes
EndUndoRedoHistory
Fore
SplineSet
1052 -50 m 0
 806 -50 604 -2 444 92 c 0
 288 188 180 326 126 504 c 1
 558 634 l 1
 596 510 658 420 742 364 c 0
 826 310 936 282 1074 282 c 0
 1200 282 1300 308 1368 364 c 0
 1440 416 1474 492 1474 590 c 0
 1474 672 1452 736 1404 780 c 0
 1360 828 1286 862 1184 888 c 2
 778 996 l 2
 412 1086 230 1282 230 1582 c 0
 230 1776 308 1932 468 2052 c 0
 624 2168 832 2228 1090 2228 c 0
 1306 2228 1488 2186 1636 2100 c 0
 1786 2016 1884 1898 1934 1748 c 1
 1524 1614 l 1
 1452 1802 1304 1896 1078 1896 c 0
 954 1896 860 1872 794 1824 c 0
 728 1776 696 1706 696 1614 c 0
 696 1480 794 1388 992 1336 c 2
 1410 1232 l 2
 1762 1144 1938 942 1938 626 c 0
 1938 418 1858 254 1700 132 c 0
 1540 10 1324 -50 1052 -50 c 0
EndSplineSet
Substitution2: "'sups' Superscript in Latin lookup 13 subtable" s.sups
Substitution2: "'aalt' Access All Alternates in Latin lookup 0 subtable" s.sups
EndChar

StartChar: t
Encoding: 116 116 86
Width: 1556
GlyphClass: 2
Flags: HW
AnchorPoint: "Anchor-3" 1134 2888 basechar 0
AnchorPoint: "Anchor-2" 778 2180 basechar 0
AnchorPoint: "Anchor-0" 996 0 basechar 0
LayerCount: 2
UndoRedoHistory
Layer: 1
Undoes
UndoOperation
Index: 0
Type: 1
WasModified: 0
WasOrder2: 0
Layer: 2
Width: 778
VWidth: 2048
LBearingChange: 0
UnicodeEnc: 0
InstructionsLength: 0
EndUndoOperation
UndoOperation
Index: 1
Type: 3
WasModified: 0
WasOrder2: 0
Layer: 2
EndUndoOperation
EndUndoes
Redoes
EndRedoes
EndUndoRedoHistory
Fore
SplineSet
1106 -40 m 0
 702 -40 500 164 500 574 c 2
 500 1844 l 1
 126 1844 l 1
 126 2180 l 1
 500 2180 l 1
 500 2638 l 1
 970 2880 l 1
 970 2180 l 1
 1430 2180 l 1
 1430 1844 l 1
 970 1844 l 1
 970 630 l 2
 970 434 1056 336 1228 336 c 0
 1296 336 1364 348 1430 372 c 1
 1430 20 l 1
 1334 -20 1226 -40 1106 -40 c 0
EndSplineSet
Substitution2: "'sups' Superscript in Latin lookup 13 subtable" t.sups
Substitution2: "'aalt' Access All Alternates in Latin lookup 0 subtable" t.sups
EndChar

StartChar: u
Encoding: 117 117 87
Width: 2362
GlyphClass: 2
Flags: HW
AnchorPoint: "Anchor-3" 1626 2180 basechar 0
AnchorPoint: "Anchor-2" 1184 2180 basechar 0
AnchorPoint: "Anchor-1" 1672 0 basechar 0
AnchorPoint: "Anchor-0" 1184 0 basechar 0
LayerCount: 2
UndoRedoHistory
Layer: 1
Undoes
UndoOperation
Index: 0
Type: 1
WasModified: 0
WasOrder2: 0
Layer: 2
Width: 1181
VWidth: 2048
LBearingChange: 0
UnicodeEnc: 0
InstructionsLength: 0
EndUndoOperation
UndoOperation
Index: 1
Type: 3
WasModified: 0
WasOrder2: 0
Layer: 2
EndUndoOperation
EndUndoes
Redoes
EndRedoes
EndUndoRedoHistory
Fore
SplineSet
1184 -50 m 0
 890 -50 662 24 504 172 c 0
 346 322 266 546 266 844 c 2
 266 2180 l 1
 738 2180 l 1
 738 856 l 2
 738 680 776 548 854 462 c 0
 932 376 1042 332 1184 332 c 0
 1322 332 1430 376 1508 464 c 0
 1586 550 1626 682 1626 856 c 2
 1626 2180 l 1
 2098 2180 l 1
 2098 844 l 2
 2098 546 2018 322 1860 172 c 0
 1700 24 1474 -50 1184 -50 c 0
EndSplineSet
Substitution2: "'sups' Superscript in Latin lookup 13 subtable" u.sups
Substitution2: "'aalt' Access All Alternates in Latin lookup 0 subtable" u.sups
EndChar

StartChar: v
Encoding: 118 118 88
Width: 2224
GlyphClass: 2
Flags: HW
AnchorPoint: "Anchor-2" 1114 2180 basechar 0
AnchorPoint: "Anchor-0" 1114 0 basechar 0
LayerCount: 2
UndoRedoHistory
Layer: 1
Undoes
UndoOperation
Index: 0
Type: 1
WasModified: 0
WasOrder2: 0
Layer: 2
Width: 1112
VWidth: 2048
LBearingChange: 0
UnicodeEnc: 0
InstructionsLength: 0
EndUndoOperation
UndoOperation
Index: 1
Type: 3
WasModified: 0
WasOrder2: 0
Layer: 2
EndUndoOperation
EndUndoes
Redoes
EndRedoes
EndUndoRedoHistory
Fore
SplineSet
782 0 m 1
 70 2180 l 1
 570 2180 l 1
 1102 300 l 1
 1122 300 l 1
 1654 2180 l 1
 2154 2180 l 1
 1442 0 l 1
 782 0 l 1
EndSplineSet
Substitution2: "'sups' Superscript in Latin lookup 13 subtable" v.sups
Substitution2: "'aalt' Access All Alternates in Latin lookup 0 subtable" v.sups
EndChar

StartChar: w
Encoding: 119 119 89
Width: 3206
GlyphClass: 2
Flags: HW
AnchorPoint: "Anchor-2" 1618 2180 basechar 0
AnchorPoint: "Anchor-0" 1618 0 basechar 0
LayerCount: 2
UndoRedoHistory
Layer: 1
Undoes
UndoOperation
Index: 0
Type: 1
WasModified: 0
WasOrder2: 0
Layer: 2
Width: 1603
VWidth: 2048
LBearingChange: 0
UnicodeEnc: 0
InstructionsLength: 0
EndUndoOperation
UndoOperation
Index: 1
Type: 3
WasModified: 0
WasOrder2: 0
Layer: 2
EndUndoOperation
EndUndoes
Redoes
EndRedoes
EndUndoRedoHistory
Fore
SplineSet
586 0 m 1
 90 2180 l 1
 548 2180 l 1
 898 312 l 1
 914 312 l 1
 1286 2180 l 1
 1922 2180 l 1
 2294 312 l 1
 2310 312 l 1
 2658 2180 l 1
 3118 2180 l 1
 2622 0 l 1
 1990 0 l 1
 1614 1868 l 1
 1594 1868 l 1
 1216 0 l 1
 586 0 l 1
EndSplineSet
Substitution2: "'sups' Superscript in Latin lookup 13 subtable" w.sups
Substitution2: "'aalt' Access All Alternates in Latin lookup 0 subtable" w.sups
EndChar

StartChar: x
Encoding: 120 120 90
Width: 2268
GlyphClass: 2
Flags: HW
AnchorPoint: "Anchor-2" 1134 2180 basechar 0
AnchorPoint: "Anchor-0" 1134 0 basechar 0
LayerCount: 2
UndoRedoHistory
Layer: 1
Undoes
UndoOperation
Index: 0
Type: 1
WasModified: 0
WasOrder2: 0
Layer: 2
Width: 1134
VWidth: 2048
LBearingChange: 0
UnicodeEnc: 0
InstructionsLength: 0
EndUndoOperation
UndoOperation
Index: 1
Type: 3
WasModified: 0
WasOrder2: 0
Layer: 2
EndUndoOperation
EndUndoes
Redoes
EndRedoes
EndUndoRedoHistory
Fore
SplineSet
1672 0 m 1
 1146 888 l 1
 1126 888 l 1
 598 0 l 1
 70 0 l 1
 812 1142 l 1
 152 2180 l 1
 684 2180 l 1
 1122 1404 l 1
 1146 1404 l 1
 1576 2180 l 1
 2106 2180 l 1
 1454 1150 l 1
 2200 0 l 1
 1672 0 l 1
EndSplineSet
Substitution2: "'sups' Superscript in Latin lookup 13 subtable" x.sups
Substitution2: "'aalt' Access All Alternates in Latin lookup 0 subtable" x.sups
EndChar

StartChar: y
Encoding: 121 121 91
Width: 2272
GlyphClass: 2
Flags: HW
AnchorPoint: "Anchor-2" 1110 2180 basechar 0
AnchorPoint: "Anchor-0" 1778 0 basechar 0
LayerCount: 2
UndoRedoHistory
Layer: 1
Undoes
UndoOperation
Index: 0
Type: 1
WasModified: 0
WasOrder2: 0
Layer: 2
Width: 1136
VWidth: 2048
LBearingChange: 0
UnicodeEnc: 0
InstructionsLength: 0
EndUndoOperation
UndoOperation
Index: 1
Type: 3
WasModified: 0
WasOrder2: 0
Layer: 2
EndUndoOperation
EndUndoes
Redoes
EndRedoes
EndUndoRedoHistory
Fore
SplineSet
660 -820 m 1
 922 -122 l 1
 70 2180 l 1
 570 2180 l 1
 1138 390 l 1
 1164 390 l 1
 1704 2180 l 1
 2204 2180 l 1
 1134 -820 l 1
 660 -820 l 1
EndSplineSet
Substitution2: "'sups' Superscript in Latin lookup 13 subtable" y.sups
Substitution2: "'aalt' Access All Alternates in Latin lookup 0 subtable" y.sups
EndChar

StartChar: z
Encoding: 122 122 92
Width: 2158
GlyphClass: 2
Flags: HW
AnchorPoint: "Anchor-2" 1082 2180 basechar 0
AnchorPoint: "Anchor-0" 1082 0 basechar 0
LayerCount: 2
UndoRedoHistory
Layer: 1
Undoes
UndoOperation
Index: 0
Type: 1
WasModified: 0
WasOrder2: 0
Layer: 2
Width: 1079
VWidth: 2048
LBearingChange: 0
UnicodeEnc: 0
InstructionsLength: 0
EndUndoOperation
UndoOperation
Index: 1
Type: 3
WasModified: 0
WasOrder2: 0
Layer: 2
EndUndoOperation
EndUndoes
Redoes
EndRedoes
EndUndoRedoHistory
Fore
SplineSet
180 0 m 1
 180 528 l 1
 1500 1786 l 1
 1500 1806 l 1
 218 1806 l 1
 218 2180 l 1
 1908 2180 l 1
 1908 1650 l 1
 590 394 l 1
 590 376 l 1
 1994 376 l 1
 1994 0 l 1
 180 0 l 1
EndSplineSet
Substitution2: "'sups' Superscript in Latin lookup 13 subtable" z.sups
Substitution2: "'aalt' Access All Alternates in Latin lookup 0 subtable" z.sups
EndChar

StartChar: braceleft
Encoding: 123 123 93
Width: 1698
GlyphClass: 2
Flags: HW
LayerCount: 2
UndoRedoHistory
Layer: 1
Undoes
UndoOperation
Index: 0
Type: 1
WasModified: 0
WasOrder2: 0
Layer: 2
Width: 849
VWidth: 2048
LBearingChange: 0
UnicodeEnc: 0
InstructionsLength: 0
EndUndoOperation
UndoOperation
Index: 1
Type: 3
WasModified: 0
WasOrder2: 0
Layer: 2
EndUndoOperation
EndUndoes
Redoes
EndRedoes
EndUndoRedoHistory
Fore
SplineSet
1082 -12 m 2
 1082 -110 1104 -182 1144 -224 c 0
 1188 -268 1252 -290 1340 -290 c 2
 1512 -290 l 1
 1512 -656 l 1
 1224 -656 l 2
 1042 -656 898 -608 794 -508 c 0
 690 -412 638 -270 638 -86 c 2
 638 648 l 2
 638 770 612 860 562 916 c 0
 512 972 428 1000 312 1000 c 2
 218 1000 l 1
 218 1426 l 1
 312 1426 l 2
 428 1426 512 1454 562 1510 c 0
 612 1566 638 1656 638 1778 c 2
 638 2510 l 2
 638 2694 690 2836 794 2932 c 0
 898 3032 1042 3080 1224 3080 c 2
 1512 3080 l 1
 1512 2716 l 1
 1340 2716 l 2
 1252 2716 1188 2694 1144 2652 c 0
 1104 2608 1082 2536 1082 2438 c 2
 1082 1762 l 2
 1082 1594 1046 1468 976 1380 c 0
 904 1296 790 1246 634 1232 c 1
 634 1192 l 1
 790 1178 904 1130 976 1044 c 0
 1046 958 1082 832 1082 664 c 2
 1082 -12 l 2
EndSplineSet
Substitution2: "'case' Case-Sensitive Forms in Latin lookup 23 subtable" braceleft.case
Substitution2: "'aalt' Access All Alternates in Latin lookup 0 subtable" braceleft.case
EndChar

StartChar: bar
Encoding: 124 124 94
Width: 1146
GlyphClass: 2
Flags: HW
LayerCount: 2
UndoRedoHistory
Layer: 1
Undoes
UndoOperation
Index: 0
Type: 1
WasModified: 0
WasOrder2: 0
Layer: 2
Width: 573
VWidth: 2048
LBearingChange: 0
UnicodeEnc: 0
InstructionsLength: 0
EndUndoOperation
UndoOperation
Index: 1
Type: 3
WasModified: 0
WasOrder2: 0
Layer: 2
EndUndoOperation
EndUndoes
Redoes
EndRedoes
EndUndoRedoHistory
Fore
SplineSet
360 -492 m 1
 360 2958 l 1
 786 2958 l 1
 786 -492 l 1
 360 -492 l 1
EndSplineSet
Substitution2: "'case' Case-Sensitive Forms in Latin lookup 23 subtable" bar.case
Substitution2: "'aalt' Access All Alternates in Latin lookup 0 subtable" bar.case
EndChar

StartChar: braceright
Encoding: 125 125 95
Width: 1698
GlyphClass: 2
Flags: HW
LayerCount: 2
UndoRedoHistory
Layer: 1
Undoes
UndoOperation
Index: 0
Type: 1
WasModified: 0
WasOrder2: 0
Layer: 2
Width: 849
VWidth: 2048
LBearingChange: 0
UnicodeEnc: 0
InstructionsLength: 0
EndUndoOperation
UndoOperation
Index: 1
Type: 3
WasModified: 0
WasOrder2: 0
Layer: 2
EndUndoOperation
EndUndoes
Redoes
EndRedoes
EndUndoRedoHistory
Fore
SplineSet
1064 1232 m 1
 910 1246 796 1296 724 1380 c 0
 654 1468 618 1594 618 1762 c 2
 618 2438 l 2
 618 2536 596 2608 556 2652 c 0
 512 2694 448 2716 360 2716 c 2
 192 2716 l 1
 192 3080 l 1
 476 3080 l 2
 660 3080 804 3032 906 2932 c 0
 1008 2836 1060 2694 1060 2510 c 2
 1060 1778 l 2
 1060 1656 1086 1568 1138 1512 c 0
 1190 1454 1274 1426 1388 1426 c 2
 1482 1426 l 1
 1482 1000 l 1
 1388 1000 l 2
 1274 1000 1190 972 1138 916 c 0
 1086 858 1060 770 1060 648 c 2
 1060 -86 l 2
 1060 -270 1008 -412 906 -508 c 0
 804 -608 660 -656 476 -656 c 2
 192 -656 l 1
 192 -290 l 1
 360 -290 l 2
 448 -290 512 -268 556 -224 c 0
 596 -182 618 -110 618 -12 c 2
 618 664 l 2
 618 830 654 956 724 1044 c 0
 796 1128 910 1178 1064 1192 c 1
 1064 1232 l 1
EndSplineSet
Substitution2: "'case' Case-Sensitive Forms in Latin lookup 23 subtable" braceright.case
Substitution2: "'aalt' Access All Alternates in Latin lookup 0 subtable" braceright.case
EndChar

StartChar: asciitilde
Encoding: 126 126 96
Width: 2784
GlyphClass: 2
Flags: HW
LayerCount: 2
UndoRedoHistory
Layer: 1
Undoes
UndoOperation
Index: 0
Type: 1
WasModified: 0
WasOrder2: 0
Layer: 2
Width: 1392
VWidth: 2048
LBearingChange: 0
UnicodeEnc: 0
InstructionsLength: 0
EndUndoOperation
UndoOperation
Index: 1
Type: 3
WasModified: 0
WasOrder2: 0
Layer: 2
EndUndoOperation
EndUndoes
Redoes
EndRedoes
EndUndoRedoHistory
Fore
SplineSet
2528 1478 m 1
 2508 1262 2438 1090 2320 962 c 0
 2202 834 2050 770 1864 770 c 0
 1716 770 1564 824 1410 934 c 2
 1208 1082 l 2
 1106 1156 1020 1192 950 1192 c 0
 870 1192 804 1162 752 1100 c 0
 700 1038 670 954 660 844 c 1
 262 844 l 1
 280 1060 350 1232 468 1362 c 0
 588 1492 740 1556 926 1556 c 0
 1070 1556 1222 1502 1380 1392 c 2
 1582 1242 l 2
 1684 1170 1770 1134 1840 1134 c 0
 1918 1134 1982 1164 2034 1226 c 0
 2086 1288 2118 1372 2130 1478 c 1
 2528 1478 l 1
EndSplineSet
EndChar

StartChar: exclamdown
Encoding: 161 161 98
Width: 1494
GlyphClass: 2
Flags: HW
LayerCount: 2
UndoRedoHistory
Layer: 1
Undoes
UndoOperation
Index: 0
Type: 1
WasModified: 0
WasOrder2: 0
Layer: 2
Width: 747
VWidth: 2048
LBearingChange: 0
UnicodeEnc: 0
InstructionsLength: 0
EndUndoOperation
UndoOperation
Index: 1
Type: 3
WasModified: 0
WasOrder2: 0
Layer: 2
EndUndoOperation
EndUndoes
Redoes
EndRedoes
EndUndoRedoHistory
Fore
SplineSet
500 1224 m 1
 996 1224 l 1
 996 -746 l 1
 500 -746 l 1
 500 1224 l 1
422 1840 m 0
 422 1932 454 2010 516 2072 c 0
 578 2134 656 2166 746 2166 c 0
 840 2166 918 2134 980 2072 c 0
 1042 2010 1074 1932 1074 1840 c 0
 1074 1750 1042 1672 980 1610 c 0
 918 1548 840 1516 746 1516 c 0
 656 1516 580 1548 516 1610 c 0
 454 1672 422 1750 422 1840 c 0
EndSplineSet
Substitution2: "'case' Case-Sensitive Forms in Latin lookup 23 subtable" exclamdown.case
Substitution2: "'aalt' Access All Alternates in Latin lookup 0 subtable" exclamdown.case
EndChar

StartChar: cent
Encoding: 162 162 99
Width: 2224
GlyphClass: 2
Flags: HW
LayerCount: 2
UndoRedoHistory
Layer: 1
Undoes
UndoOperation
Index: 0
Type: 1
WasModified: 0
WasOrder2: 0
Layer: 2
Width: 1112
VWidth: 2048
LBearingChange: 0
UnicodeEnc: 0
InstructionsLength: 0
EndUndoOperation
UndoOperation
Index: 1
Type: 3
WasModified: 0
WasOrder2: 0
Layer: 2
EndUndoOperation
EndUndoes
Redoes
EndRedoes
EndUndoRedoHistory
Fore
SplineSet
1754 1630 m 1
 1666 1840 1522 1960 1324 1990 c 1
 1324 536 l 1
 1522 566 1666 686 1754 898 c 1
 2142 754 l 1
 2016 390 1744 192 1324 160 c 1
 1324 -212 l 1
 1056 -212 l 1
 1056 164 l 1
 792 198 578 312 414 508 c 0
 250 702 168 954 168 1262 c 0
 168 1572 250 1824 414 2020 c 0
 578 2216 792 2330 1056 2364 c 1
 1056 2700 l 1
 1324 2700 l 1
 1324 2368 l 1
 1742 2336 2016 2138 2142 1774 c 1
 1754 1630 l 1
614 1262 m 0
 614 1062 654 902 736 780 c 0
 818 658 924 582 1056 548 c 1
 1056 1978 l 1
 924 1944 818 1868 736 1746 c 0
 654 1624 614 1464 614 1262 c 0
EndSplineSet
Substitution2: "'tnum' Tabular Numbers in Latin lookup 21 subtable" cent.tf
Substitution2: "'aalt' Access All Alternates in Latin lookup 0 subtable" cent.tf
EndChar

StartChar: sterling
Encoding: 163 163 100
Width: 2534
GlyphClass: 2
Flags: HW
LayerCount: 2
UndoRedoHistory
Layer: 1
Undoes
UndoOperation
Index: 0
Type: 1
WasModified: 0
WasOrder2: 0
Layer: 2
Width: 1267
VWidth: 2048
LBearingChange: 0
UnicodeEnc: 0
InstructionsLength: 0
EndUndoOperation
UndoOperation
Index: 1
Type: 3
WasModified: 0
WasOrder2: 0
Layer: 2
EndUndoOperation
EndUndoes
Redoes
EndRedoes
EndUndoRedoHistory
Fore
SplineSet
274 386 m 1
 450 464 578 556 656 660 c 0
 734 764 774 888 774 1032 c 0
 774 1114 760 1206 734 1306 c 1
 274 1306 l 1
 274 1598 l 1
 626 1598 l 1
 550 1808 512 1980 512 2114 c 0
 512 2366 600 2570 774 2724 c 0
 948 2880 1176 2958 1458 2958 c 0
 1696 2958 1892 2906 2048 2800 c 0
 2206 2694 2314 2540 2376 2338 c 1
 1962 2204 l 1
 1886 2458 1718 2584 1458 2584 c 0
 1302 2584 1180 2538 1096 2446 c 0
 1008 2354 966 2234 966 2084 c 0
 966 2034 972 1976 988 1916 c 0
 1000 1852 1014 1804 1028 1768 c 0
 1040 1732 1060 1676 1090 1598 c 1
 1990 1598 l 1
 1990 1306 l 1
 1192 1306 l 1
 1214 1218 1224 1136 1224 1060 c 0
 1224 918 1188 792 1116 684 c 0
 1042 572 942 486 812 422 c 1
 812 406 l 1
 2330 406 l 1
 2330 0 l 1
 274 0 l 1
 274 386 l 1
EndSplineSet
Substitution2: "'tnum' Tabular Numbers in Latin lookup 21 subtable" sterling.tf
Substitution2: "'aalt' Access All Alternates in Latin lookup 0 subtable" sterling.tf
EndChar

StartChar: currency
Encoding: 164 164 101
Width: 2346
GlyphClass: 2
Flags: HW
LayerCount: 2
UndoRedoHistory
Layer: 1
Undoes
UndoOperation
Index: 0
Type: 1
WasModified: 0
WasOrder2: 0
Layer: 2
Width: 1173
VWidth: 2048
LBearingChange: 0
UnicodeEnc: 0
InstructionsLength: 0
EndUndoOperation
UndoOperation
Index: 1
Type: 3
WasModified: 0
WasOrder2: 0
Layer: 2
EndUndoOperation
EndUndoes
Redoes
EndRedoes
EndUndoRedoHistory
Fore
SplineSet
1168 574 m 0
 1022 574 884 610 758 680 c 1
 484 406 l 1
 218 672 l 1
 492 946 l 1
 414 1068 376 1208 376 1364 c 0
 376 1512 414 1652 488 1782 c 1
 204 2060 l 1
 472 2326 l 1
 754 2044 l 1
 878 2118 1016 2154 1168 2154 c 0
 1328 2154 1468 2116 1590 2040 c 1
 1860 2310 l 1
 2130 2044 l 1
 1856 1774 l 1
 1926 1648 1962 1510 1962 1364 c 0
 1962 1212 1926 1074 1852 950 c 1
 2142 660 l 1
 1872 390 l 1
 1586 684 l 1
 1458 610 1318 574 1168 574 c 0
720 1364 m 0
 720 1234 762 1124 848 1036 c 0
 932 950 1038 906 1168 906 c 0
 1298 906 1406 950 1492 1036 c 0
 1576 1122 1618 1232 1618 1364 c 0
 1618 1496 1576 1606 1492 1692 c 0
 1406 1778 1298 1822 1168 1822 c 0
 1038 1822 932 1778 848 1692 c 0
 762 1604 720 1494 720 1364 c 0
EndSplineSet
Substitution2: "'tnum' Tabular Numbers in Latin lookup 21 subtable" currency.tf
Substitution2: "'aalt' Access All Alternates in Latin lookup 0 subtable" currency.tf
EndChar

StartChar: yen
Encoding: 165 165 102
Width: 2584
GlyphClass: 2
Flags: HW
LayerCount: 2
UndoRedoHistory
Layer: 1
Undoes
UndoOperation
Index: 0
Type: 1
WasModified: 0
WasOrder2: 0
Layer: 2
Width: 1292
VWidth: 2048
LBearingChange: 0
UnicodeEnc: 0
InstructionsLength: 0
EndUndoOperation
UndoOperation
Index: 1
Type: 3
WasModified: 0
WasOrder2: 0
Layer: 2
EndUndoOperation
EndUndoes
Redoes
EndRedoes
EndUndoRedoHistory
Fore
SplineSet
1056 0 m 1
 1056 648 l 1
 360 648 l 1
 360 892 l 1
 1056 892 l 1
 1056 1168 l 1
 360 1168 l 1
 360 1418 l 1
 974 1418 l 1
 82 2888 l 1
 586 2888 l 1
 1294 1614 l 1
 1998 2888 l 1
 2498 2888 l 1
 1610 1418 l 1
 2228 1418 l 1
 2228 1168 l 1
 1528 1168 l 1
 1528 892 l 1
 2228 892 l 1
 2228 648 l 1
 1528 648 l 1
 1528 0 l 1
 1056 0 l 1
EndSplineSet
Substitution2: "'tnum' Tabular Numbers in Latin lookup 21 subtable" yen.tf
Substitution2: "'aalt' Access All Alternates in Latin lookup 0 subtable" yen.tf
EndChar

StartChar: section
Encoding: 167 167 103
Width: 2120
GlyphClass: 2
Flags: HW
LayerCount: 2
UndoRedoHistory
Layer: 1
Undoes
UndoOperation
Index: 0
Type: 1
WasModified: 0
WasOrder2: 0
Layer: 2
Width: 1060
VWidth: 2048
LBearingChange: 0
UnicodeEnc: 0
InstructionsLength: 0
EndUndoOperation
UndoOperation
Index: 1
Type: 3
WasModified: 0
WasOrder2: 0
Layer: 2
EndUndoOperation
EndUndoes
Redoes
EndRedoes
EndUndoRedoHistory
Fore
SplineSet
1056 -446 m 0
 820 -446 624 -396 470 -300 c 0
 316 -200 218 -64 176 114 c 1
 598 208 l 1
 668 -6 822 -114 1060 -114 c 0
 1190 -114 1292 -90 1360 -40 c 0
 1432 10 1466 82 1466 176 c 0
 1466 246 1442 304 1392 352 c 0
 1344 400 1264 444 1150 484 c 2
 692 652 l 2
 612 680 544 708 488 740 c 0
 432 768 380 806 332 852 c 0
 282 896 246 950 220 1014 c 0
 196 1078 184 1152 184 1236 c 0
 184 1366 218 1476 288 1568 c 0
 358 1660 460 1726 594 1766 c 1
 594 1786 l 1
 340 1904 212 2080 212 2310 c 0
 212 2508 292 2664 452 2782 c 0
 610 2900 818 2958 1074 2958 c 0
 1298 2958 1486 2916 1636 2828 c 0
 1788 2744 1888 2624 1938 2470 c 1
 1516 2352 l 1
 1442 2534 1296 2626 1074 2626 c 0
 948 2626 850 2600 780 2550 c 0
 710 2500 676 2428 676 2334 c 0
 676 2264 700 2206 746 2160 c 0
 792 2112 872 2068 984 2028 c 2
 1442 1860 l 2
 1522 1832 1590 1804 1646 1772 c 0
 1702 1744 1754 1706 1804 1660 c 0
 1852 1616 1888 1562 1912 1496 c 0
 1938 1432 1950 1358 1950 1274 c 0
 1950 1144 1916 1034 1846 944 c 0
 1776 852 1674 786 1540 746 c 1
 1540 724 l 1
 1670 666 1768 594 1832 510 c 0
 1898 426 1930 322 1930 200 c 0
 1930 2 1850 -154 1688 -272 c 0
 1528 -388 1318 -446 1056 -446 c 0
610 1298 m 0
 610 1218 634 1154 682 1106 c 0
 730 1058 808 1014 918 974 c 2
 1246 852 l 1
 1334 882 1402 926 1448 988 c 0
 1496 1050 1520 1124 1520 1212 c 0
 1520 1292 1496 1356 1450 1404 c 0
 1404 1452 1326 1496 1216 1536 c 2
 888 1658 l 1
 798 1628 730 1584 682 1520 c 0
 634 1460 610 1384 610 1298 c 0
EndSplineSet
EndChar

StartChar: dieresis
Encoding: 168 168 104
Width: 1810
GlyphClass: 4
Flags: HW
AnchorPoint: "Anchor-5" 906 3032 basemark 0
LayerCount: 2
UndoRedoHistory
Layer: 1
Undoes
UndoOperation
Index: 0
Type: 1
WasModified: 0
WasOrder2: 0
Layer: 2
Width: 905
VWidth: 2048
LBearingChange: 0
UnicodeEnc: 0
InstructionsLength: 0
EndUndoOperation
UndoOperation
Index: 1
Type: 3
WasModified: 0
WasOrder2: 0
Layer: 2
EndUndoOperation
EndUndoes
Redoes
EndRedoes
EndUndoRedoHistory
Fore
SplineSet
1344 2548 m 0
 1270 2548 1210 2572 1160 2624 c 0
 1110 2672 1086 2734 1086 2806 c 0
 1086 2882 1110 2944 1160 2994 c 0
 1208 3044 1270 3068 1344 3068 c 0
 1420 3068 1482 3044 1532 2994 c 0
 1582 2944 1606 2882 1606 2806 c 0
 1606 2732 1580 2672 1532 2622 c 0
 1480 2572 1418 2548 1344 2548 c 0
204 2806 m 0
 204 2884 228 2946 278 2996 c 0
 328 3044 390 3068 466 3068 c 0
 540 3068 600 3044 650 2996 c 0
 700 2946 724 2884 724 2806 c 0
 724 2734 700 2672 648 2624 c 0
 600 2572 538 2548 466 2548 c 0
 390 2548 328 2572 278 2622 c 0
 228 2672 204 2732 204 2806 c 0
EndSplineSet
EndChar

StartChar: copyright
Encoding: 169 169 105
Width: 4234
GlyphClass: 2
Flags: HW
LayerCount: 2
UndoRedoHistory
Layer: 1
Undoes
UndoOperation
Index: 0
Type: 1
WasModified: 0
WasOrder2: 0
Layer: 2
Width: 2117
VWidth: 2048
LBearingChange: 0
UnicodeEnc: 0
InstructionsLength: 0
EndUndoOperation
UndoOperation
Index: 1
Type: 3
WasModified: 0
WasOrder2: 0
Layer: 2
EndUndoOperation
EndUndoes
Redoes
EndRedoes
EndUndoRedoHistory
Fore
SplineSet
2118 -450 m 0
 1848 -450 1596 -402 1360 -308 c 0
 1126 -212 924 -80 756 86 c 0
 590 252 458 454 362 688 c 0
 266 924 218 1178 218 1450 c 0
 218 1722 266 1976 362 2212 c 0
 458 2446 590 2648 756 2814 c 0
 924 2980 1126 3112 1360 3208 c 0
 1596 3302 1848 3350 2118 3350 c 0
 2388 3350 2640 3302 2874 3208 c 0
 3108 3112 3310 2980 3476 2814 c 0
 3644 2648 3776 2446 3872 2210 c 0
 3970 1974 4018 1720 4018 1450 c 0
 4018 1180 3970 926 3872 690 c 0
 3776 454 3644 252 3476 86 c 0
 3310 -80 3108 -212 2874 -308 c 0
 2640 -402 2388 -450 2118 -450 c 0
598 1450 m 0
 598 1150 662 880 792 644 c 0
 922 404 1102 220 1332 86 c 0
 1564 -48 1826 -114 2118 -114 c 0
 2336 -114 2538 -76 2726 4 c 0
 2914 80 3074 188 3208 326 c 0
 3340 464 3444 628 3520 824 c 0
 3596 1016 3634 1226 3634 1450 c 0
 3634 1674 3596 1884 3520 2076 c 0
 3444 2272 3340 2436 3208 2574 c 0
 3074 2712 2914 2820 2726 2896 c 0
 2538 2976 2336 3014 2118 3014 c 0
 1826 3014 1564 2948 1332 2814 c 0
 1102 2680 922 2496 792 2256 c 0
 662 2020 598 1750 598 1450 c 0
1270 1454 m 0
 1270 1752 1352 1994 1512 2178 c 0
 1676 2362 1888 2454 2150 2454 c 0
 2350 2454 2516 2410 2650 2322 c 0
 2784 2234 2878 2104 2936 1934 c 1
 2588 1814 l 1
 2514 2036 2368 2146 2146 2146 c 0
 1996 2146 1876 2084 1792 1960 c 0
 1704 1838 1662 1668 1662 1454 c 0
 1662 1242 1706 1074 1792 948 c 0
 1878 824 1996 762 2146 762 c 0
 2376 762 2526 878 2596 1110 c 1
 2946 1008 l 1
 2892 826 2796 688 2664 596 c 0
 2528 500 2360 454 2154 454 c 0
 1890 454 1676 546 1514 730 c 0
 1352 914 1270 1156 1270 1454 c 0
EndSplineSet
EndChar

StartChar: ordfeminine
Encoding: 170 170 106
Width: 2174
GlyphClass: 2
Flags: HW
LayerCount: 2
UndoRedoHistory
Layer: 1
Undoes
UndoOperation
Index: 0
Type: 1
WasModified: 0
WasOrder2: 0
Layer: 2
Width: 1087
VWidth: 2048
LBearingChange: 0
UnicodeEnc: 0
InstructionsLength: 0
EndUndoOperation
UndoOperation
Index: 1
Type: 3
WasModified: 0
WasOrder2: 0
Layer: 2
EndUndoOperation
EndUndoes
Redoes
EndRedoes
EndUndoRedoHistory
Fore
SplineSet
1474 1336 m 1
 1388 1564 l 1
 1364 1564 l 1
 1318 1480 1250 1414 1164 1368 c 0
 1076 1322 976 1298 864 1298 c 0
 692 1298 554 1342 448 1428 c 0
 342 1516 290 1632 290 1774 c 0
 290 1912 344 2024 450 2112 c 0
 556 2198 716 2256 926 2282 c 2
 1368 2334 l 1
 1368 2434 l 2
 1368 2514 1342 2578 1288 2624 c 0
 1234 2672 1158 2696 1060 2696 c 0
 880 2696 768 2622 724 2474 c 1
 344 2560 l 1
 388 2698 476 2804 608 2878 c 0
 740 2952 896 2990 1074 2990 c 0
 1308 2990 1486 2938 1604 2836 c 0
 1722 2732 1782 2586 1782 2400 c 2
 1782 1642 l 1
 1900 1336 l 1
 1474 1336 l 1
692 1794 m 0
 692 1730 718 1678 772 1640 c 0
 824 1602 896 1582 988 1582 c 0
 1102 1582 1194 1616 1264 1684 c 0
 1334 1754 1368 1848 1368 1970 c 2
 1368 2098 l 1
 1032 2056 l 2
 918 2042 832 2014 776 1972 c 0
 720 1930 692 1872 692 1794 c 0
EndSplineSet
EndChar

StartChar: guillemotleft
Encoding: 171 171 107
Width: 2628
GlyphClass: 2
Flags: HW
LayerCount: 2
UndoRedoHistory
Layer: 1
Undoes
UndoOperation
Index: 0
Type: 1
WasModified: 0
WasOrder2: 0
Layer: 2
Width: 1314
VWidth: 2048
LBearingChange: 0
UnicodeEnc: 0
InstructionsLength: 0
EndUndoOperation
UndoOperation
Index: 1
Type: 3
WasModified: 0
WasOrder2: 0
Layer: 2
EndUndoOperation
EndUndoes
Redoes
EndRedoes
EndUndoRedoHistory
Fore
SplineSet
332 1150 m 1
 892 1990 l 1
 1324 1990 l 1
 758 1150 l 1
 1324 312 l 1
 892 312 l 1
 332 1150 l 1
1306 1150 m 1
 1868 1990 l 1
 2298 1990 l 1
 1736 1150 l 1
 2298 312 l 1
 1868 312 l 1
 1306 1150 l 1
EndSplineSet
Substitution2: "'case' Case-Sensitive Forms in Latin lookup 23 subtable" guillemotleft.case
Substitution2: "'aalt' Access All Alternates in Latin lookup 0 subtable" guillemotleft.case
EndChar

StartChar: registered
Encoding: 174 174 108
Width: 2522
GlyphClass: 2
Flags: HW
LayerCount: 2
UndoRedoHistory
Layer: 1
Undoes
UndoOperation
Index: 0
Type: 1
WasModified: 0
WasOrder2: 0
Layer: 2
Width: 1261
VWidth: 2048
LBearingChange: 0
UnicodeEnc: 0
InstructionsLength: 0
EndUndoOperation
UndoOperation
Index: 1
Type: 3
WasModified: 0
WasOrder2: 0
Layer: 2
EndUndoOperation
EndUndoes
Redoes
EndRedoes
EndUndoRedoHistory
Fore
SplineSet
1262 868 m 0
 962 868 712 968 516 1164 c 0
 316 1364 218 1612 218 1912 c 0
 218 2110 264 2288 352 2448 c 0
 444 2608 568 2732 728 2824 c 0
 886 2912 1064 2958 1262 2958 c 0
 1460 2958 1638 2912 1796 2824 c 0
 1956 2732 2080 2608 2172 2448 c 0
 2260 2288 2306 2110 2306 1912 c 0
 2306 1612 2208 1364 2008 1164 c 0
 1812 968 1562 868 1262 868 c 0
480 1912 m 0
 480 1680 554 1488 700 1336 c 0
 848 1186 1036 1110 1262 1110 c 0
 1488 1110 1676 1186 1824 1336 c 0
 1970 1488 2044 1680 2044 1912 c 0
 2044 2144 1970 2336 1824 2488 c 0
 1676 2640 1488 2716 1262 2716 c 0
 1036 2716 848 2640 700 2488 c 0
 554 2336 480 2144 480 1912 c 0
852 1384 m 1
 852 2466 l 1
 1306 2466 l 2
 1428 2466 1524 2436 1594 2378 c 0
 1664 2320 1700 2240 1700 2138 c 0
 1700 2064 1680 2000 1638 1946 c 0
 1596 1892 1540 1856 1470 1836 c 1
 1728 1384 l 1
 1446 1384 l 1
 1220 1806 l 1
 1106 1806 l 1
 1106 1384 l 1
 852 1384 l 1
1106 1978 m 1
 1262 1978 l 2
 1382 1978 1442 2028 1442 2126 c 0
 1442 2176 1426 2212 1396 2240 c 0
 1364 2264 1320 2278 1262 2278 c 2
 1106 2278 l 1
 1106 1978 l 1
EndSplineSet
EndChar

StartChar: macron
Encoding: 175 175 109
Width: 1678
GlyphClass: 4
Flags: HW
AnchorPoint: "Anchor-5" 840 2950 basemark 0
LayerCount: 2
UndoRedoHistory
Layer: 1
Undoes
UndoOperation
Index: 0
Type: 1
WasModified: 0
WasOrder2: 0
Layer: 2
Width: 839
VWidth: 2048
LBearingChange: 0
UnicodeEnc: 0
InstructionsLength: 0
EndUndoOperation
UndoOperation
Index: 1
Type: 3
WasModified: 0
WasOrder2: 0
Layer: 2
EndUndoOperation
EndUndoes
Redoes
EndRedoes
EndUndoRedoHistory
Fore
SplineSet
204 2936 m 1
 1474 2936 l 1
 1474 2610 l 1
 204 2610 l 1
 204 2936 l 1
EndSplineSet
EndChar

StartChar: degree
Encoding: 176 176 110
Width: 1870
GlyphClass: 2
Flags: HW
LayerCount: 2
UndoRedoHistory
Layer: 1
Undoes
UndoOperation
Index: 0
Type: 1
WasModified: 0
WasOrder2: 0
Layer: 2
Width: 935
VWidth: 2048
LBearingChange: 0
UnicodeEnc: 0
InstructionsLength: 0
EndUndoOperation
UndoOperation
Index: 1
Type: 3
WasModified: 0
WasOrder2: 0
Layer: 2
EndUndoOperation
EndUndoes
Redoes
EndRedoes
EndUndoRedoHistory
Fore
SplineSet
938 1372 m 0
 708 1372 520 1446 368 1596 c 0
 220 1746 144 1936 144 2166 c 0
 144 2394 220 2584 370 2732 c 0
 520 2884 710 2958 938 2958 c 0
 1166 2958 1354 2884 1504 2732 c 0
 1654 2584 1728 2394 1728 2166 c 0
 1728 1936 1654 1746 1504 1596 c 0
 1356 1446 1168 1372 938 1372 c 0
516 2166 m 0
 516 2030 554 1920 632 1836 c 0
 710 1750 812 1708 938 1708 c 0
 1062 1708 1162 1750 1240 1836 c 0
 1318 1920 1356 2030 1356 2166 c 0
 1356 2300 1318 2408 1240 2494 c 0
 1162 2580 1062 2622 938 2622 c 0
 812 2622 710 2580 632 2496 c 0
 554 2410 516 2300 516 2166 c 0
EndSplineSet
EndChar

StartChar: plusminus
Encoding: 177 177 111
Width: 2784
GlyphClass: 2
Flags: HW
LayerCount: 2
UndoRedoHistory
Layer: 1
Undoes
UndoOperation
Index: 0
Type: 1
WasModified: 0
WasOrder2: 0
Layer: 2
Width: 1392
VWidth: 2048
LBearingChange: 0
UnicodeEnc: 0
InstructionsLength: 0
EndUndoOperation
UndoOperation
Index: 1
Type: 3
WasModified: 0
WasOrder2: 0
Layer: 2
EndUndoOperation
EndUndoes
Redoes
EndRedoes
EndUndoRedoHistory
Fore
SplineSet
2338 1658 m 1
 2338 1282 l 1
 1586 1282 l 1
 1586 566 l 1
 1200 566 l 1
 1200 1282 l 1
 446 1282 l 1
 446 1658 l 1
 1200 1658 l 1
 1200 2376 l 1
 1586 2376 l 1
 1586 1658 l 1
 2338 1658 l 1
446 0 m 1
 446 386 l 1
 2338 386 l 1
 2338 0 l 1
 446 0 l 1
EndSplineSet
Substitution2: "Single Substitution lookup 34 subtable" plusminus.case
Substitution2: "'case' Case-Sensitive Forms in Latin lookup 23 subtable" plusminus.case
Substitution2: "'aalt' Access All Alternates in Latin lookup 0 subtable" plusminus.case
EndChar

StartChar: uni00B2
Encoding: 178 178 112
Width: 2386
GlyphClass: 2
Flags: HW
LayerCount: 2
UndoRedoHistory
Layer: 1
Undoes
UndoOperation
Index: 0
Type: 1
WasModified: 0
WasOrder2: 0
Layer: 2
Width: 1193
VWidth: 2048
LBearingChange: 0
UnicodeEnc: 0
InstructionsLength: 0
EndUndoOperation
UndoOperation
Index: 1
Type: 3
WasModified: 0
WasOrder2: 0
Layer: 2
EndUndoOperation
EndUndoes
Redoes
EndRedoes
EndUndoRedoHistory
Fore
SplineSet
402 1352 m 1
 402 1794 l 1
 1200 2400 l 2
 1320 2494 1406 2578 1456 2654 c 0
 1506 2730 1532 2810 1532 2892 c 0
 1532 2988 1500 3064 1434 3120 c 0
 1368 3176 1278 3204 1164 3204 c 0
 1042 3204 944 3172 868 3108 c 0
 792 3042 744 2948 724 2826 c 1
 332 2892 l 1
 358 3094 448 3252 598 3368 c 0
 748 3480 944 3538 1184 3538 c 0
 1422 3538 1612 3482 1752 3372 c 0
 1892 3260 1962 3110 1962 2920 c 0
 1962 2786 1924 2664 1850 2552 c 0
 1776 2438 1650 2314 1474 2180 c 2
 880 1724 l 1
 880 1704 l 1
 2056 1704 l 1
 2056 1352 l 1
 402 1352 l 1
EndSplineSet
EndChar

StartChar: uni00B3
Encoding: 179 179 113
Width: 2408
GlyphClass: 2
Flags: HW
LayerCount: 2
UndoRedoHistory
Layer: 1
Undoes
UndoOperation
Index: 0
Type: 1
WasModified: 0
WasOrder2: 0
Layer: 2
Width: 1204
VWidth: 2048
LBearingChange: 0
UnicodeEnc: 0
InstructionsLength: 0
EndUndoOperation
UndoOperation
Index: 1
Type: 3
WasModified: 0
WasOrder2: 0
Layer: 2
EndUndoOperation
EndUndoes
Redoes
EndRedoes
EndUndoRedoHistory
Fore
SplineSet
1172 1298 m 0
 950 1298 760 1344 606 1436 c 0
 452 1530 346 1664 290 1840 c 1
 672 1954 l 1
 738 1740 908 1634 1180 1634 c 0
 1316 1634 1424 1668 1500 1736 c 0
 1580 1806 1618 1894 1618 2002 c 0
 1618 2112 1576 2200 1492 2262 c 0
 1408 2324 1288 2356 1134 2356 c 2
 836 2356 l 1
 836 2626 l 1
 1470 3118 l 1
 1470 3138 l 1
 426 3138 l 1
 426 3490 l 1
 1916 3490 l 1
 1916 3122 l 1
 1298 2654 l 1
 1298 2638 l 1
 1532 2632 1714 2574 1844 2462 c 0
 1972 2350 2036 2196 2036 2002 c 0
 2036 1794 1960 1624 1804 1494 c 0
 1652 1364 1440 1298 1172 1298 c 0
EndSplineSet
EndChar

StartChar: acute
Encoding: 180 180 114
Width: 1342
GlyphClass: 4
Flags: HW
AnchorPoint: "Anchor-5" 586 2970 basemark 0
LayerCount: 2
UndoRedoHistory
Layer: 1
Undoes
UndoOperation
Index: 0
Type: 1
WasModified: 0
WasOrder2: 0
Layer: 2
Width: 671
VWidth: 2048
LBearingChange: 0
UnicodeEnc: 0
InstructionsLength: 0
EndUndoOperation
UndoOperation
Index: 1
Type: 3
WasModified: 0
WasOrder2: 0
Layer: 2
EndUndoOperation
EndUndoes
Redoes
EndRedoes
EndUndoRedoHistory
Fore
SplineSet
668 3158 m 1
 1138 3158 l 1
 648 2458 l 1
 204 2458 l 1
 668 3158 l 1
EndSplineSet
EndChar

StartChar: paragraph
Encoding: 182 182 115
Width: 2736
GlyphClass: 2
Flags: HW
LayerCount: 2
UndoRedoHistory
Layer: 1
Undoes
UndoOperation
Index: 0
Type: 1
WasModified: 0
WasOrder2: 0
Layer: 2
Width: 1368
VWidth: 2048
LBearingChange: 0
UnicodeEnc: 0
InstructionsLength: 0
EndUndoOperation
UndoOperation
Index: 1
Type: 3
WasModified: 0
WasOrder2: 0
Layer: 2
EndUndoOperation
EndUndoes
Redoes
EndRedoes
EndUndoRedoHistory
Fore
SplineSet
1216 -480 m 1
 1216 1242 l 1
 1200 1242 l 2
 906 1242 670 1314 488 1460 c 0
 308 1604 218 1802 218 2056 c 0
 218 2316 308 2520 488 2668 c 0
 670 2814 910 2888 1212 2888 c 2
 1582 2888 l 1
 1582 -480 l 1
 1216 -480 l 1
2016 -480 m 1
 2016 2888 l 1
 2376 2888 l 1
 2376 -480 l 1
 2016 -480 l 1
EndSplineSet
EndChar

StartChar: periodcentered
Encoding: 183 183 116
Width: 1272
GlyphClass: 2
Flags: HW
LayerCount: 2
UndoRedoHistory
Layer: 1
Undoes
UndoOperation
Index: 0
Type: 1
WasModified: 0
WasOrder2: 0
Layer: 2
Width: 636
VWidth: 2048
LBearingChange: 0
UnicodeEnc: 0
InstructionsLength: 0
EndUndoOperation
UndoOperation
Index: 1
Type: 3
WasModified: 0
WasOrder2: 0
Layer: 2
EndUndoOperation
EndUndoes
Redoes
EndRedoes
EndUndoRedoHistory
Fore
SplineSet
634 872 m 0
 552 872 480 902 424 962 c 0
 364 1022 336 1094 336 1176 c 0
 336 1256 364 1324 422 1384 c 0
 480 1440 550 1470 634 1470 c 0
 720 1470 792 1442 852 1384 c 0
 908 1326 938 1258 938 1176 c 0
 938 1092 908 1020 852 960 c 0
 792 902 720 872 634 872 c 0
EndSplineSet
Substitution2: "Single Substitution lookup 31 subtable" periodcentered.loclCAT.case
Substitution2: "Single Substitution lookup 30 subtable" periodcentered.loclCAT
Substitution2: "'case' Case-Sensitive Forms in Latin lookup 23 subtable" periodcentered.case
AlternateSubs2: "'aalt' Access All Alternates in Latin lookup 1 subtable" periodcentered.loclCAT periodcentered.loclCAT.case periodcentered.case
EndChar

StartChar: cedilla
Encoding: 184 184 117
Width: 1334
GlyphClass: 4
Flags: HW
AnchorPoint: "Anchor-4" 586 -868 basemark 0
LayerCount: 2
UndoRedoHistory
Layer: 1
Undoes
UndoOperation
Index: 0
Type: 1
WasModified: 0
WasOrder2: 0
Layer: 2
Width: 667
VWidth: 2048
LBearingChange: 0
UnicodeEnc: 0
InstructionsLength: 0
EndUndoOperation
UndoOperation
Index: 1
Type: 3
WasModified: 0
WasOrder2: 0
Layer: 2
EndUndoOperation
EndUndoes
Redoes
EndRedoes
EndUndoRedoHistory
Fore
SplineSet
586 -992 m 0
 448 -992 320 -968 204 -922 c 1
 204 -676 l 1
 332 -714 440 -734 528 -734 c 0
 686 -734 766 -680 766 -574 c 0
 766 -476 696 -426 558 -426 c 0
 498 -426 434 -430 368 -438 c 1
 426 94 l 1
 734 94 l 1
 696 -208 l 1
 724 -208 l 2
 848 -208 946 -240 1020 -302 c 0
 1094 -364 1130 -456 1130 -574 c 0
 1130 -708 1084 -810 988 -884 c 0
 896 -956 760 -992 586 -992 c 0
EndSplineSet
EndChar

StartChar: uni00B9
Encoding: 185 185 118
Width: 1880
GlyphClass: 2
Flags: HW
LayerCount: 2
UndoRedoHistory
Layer: 1
Undoes
UndoOperation
Index: 0
Type: 1
WasModified: 0
WasOrder2: 0
Layer: 2
Width: 940
VWidth: 2048
LBearingChange: 0
UnicodeEnc: 0
InstructionsLength: 0
EndUndoOperation
UndoOperation
Index: 1
Type: 3
WasModified: 0
WasOrder2: 0
Layer: 2
EndUndoOperation
EndUndoes
Redoes
EndRedoes
EndUndoRedoHistory
Fore
SplineSet
906 1352 m 1
 906 3122 l 1
 888 3122 l 1
 258 2592 l 1
 258 3026 l 1
 824 3490 l 1
 1328 3490 l 1
 1328 1352 l 1
 906 1352 l 1
EndSplineSet
EndChar

StartChar: ordmasculine
Encoding: 186 186 119
Width: 2334
GlyphClass: 2
Flags: HW
LayerCount: 2
UndoRedoHistory
Layer: 1
Undoes
UndoOperation
Index: 0
Type: 1
WasModified: 0
WasOrder2: 0
Layer: 2
Width: 1167
VWidth: 2048
LBearingChange: 0
UnicodeEnc: 0
InstructionsLength: 0
EndUndoOperation
UndoOperation
Index: 1
Type: 3
WasModified: 0
WasOrder2: 0
Layer: 2
EndUndoOperation
EndUndoes
Redoes
EndRedoes
EndUndoRedoHistory
Fore
SplineSet
1168 1298 m 0
 908 1298 696 1376 534 1532 c 0
 372 1690 290 1892 290 2142 c 0
 290 2396 372 2600 532 2756 c 0
 696 2912 906 2990 1168 2990 c 0
 1428 2990 1640 2912 1800 2756 c 0
 1964 2600 2044 2396 2044 2142 c 0
 2044 1892 1964 1688 1800 1532 c 0
 1640 1376 1428 1298 1168 1298 c 0
720 2142 m 0
 720 1968 760 1836 844 1744 c 0
 924 1656 1034 1610 1168 1610 c 0
 1302 1610 1410 1654 1492 1744 c 0
 1574 1834 1614 1966 1614 2142 c 0
 1614 2320 1574 2454 1492 2544 c 0
 1412 2634 1304 2678 1168 2678 c 0
 1034 2678 924 2632 844 2544 c 0
 760 2452 720 2320 720 2142 c 0
EndSplineSet
EndChar

StartChar: guillemotright
Encoding: 187 187 120
Width: 2628
GlyphClass: 2
Flags: HW
LayerCount: 2
UndoRedoHistory
Layer: 1
Undoes
UndoOperation
Index: 0
Type: 1
WasModified: 0
WasOrder2: 0
Layer: 2
Width: 1314
VWidth: 2048
LBearingChange: 0
UnicodeEnc: 0
InstructionsLength: 0
EndUndoOperation
UndoOperation
Index: 1
Type: 3
WasModified: 0
WasOrder2: 0
Layer: 2
EndUndoOperation
EndUndoes
Redoes
EndRedoes
EndUndoRedoHistory
Fore
SplineSet
332 312 m 1
 898 1150 l 1
 332 1990 l 1
 762 1990 l 1
 1324 1150 l 1
 762 312 l 1
 332 312 l 1
1306 312 m 1
 1872 1150 l 1
 1306 1990 l 1
 1736 1990 l 1
 2298 1150 l 1
 1736 312 l 1
 1306 312 l 1
EndSplineSet
Substitution2: "'case' Case-Sensitive Forms in Latin lookup 23 subtable" guillemotright.case
Substitution2: "'aalt' Access All Alternates in Latin lookup 0 subtable" guillemotright.case
EndChar

StartChar: onequarter
Encoding: 188 188 121
Width: 3480
GlyphClass: 2
Flags: HW
LayerCount: 2
UndoRedoHistory
Layer: 1
Undoes
UndoOperation
Index: 0
Type: 1
WasModified: 0
WasOrder2: 0
Layer: 2
Width: 1740
VWidth: 2048
LBearingChange: 0
UnicodeEnc: 0
InstructionsLength: 0
EndUndoOperation
UndoOperation
Index: 1
Type: 3
WasModified: 0
WasOrder2: 0
Layer: 2
EndUndoOperation
EndUndoes
Redoes
EndRedoes
EndUndoRedoHistory
Fore
SplineSet
696 1298 m 1
 696 2572 l 1
 680 2572 l 1
 204 2180 l 1
 204 2548 l 1
 630 2888 l 1
 1060 2888 l 1
 1060 1298 l 1
 696 1298 l 1
570 0 m 1
 2368 2888 l 1
 2736 2888 l 1
 938 0 l 1
 570 0 l 1
1818 320 m 1
 1818 656 l 1
 2576 1590 l 1
 3048 1590 l 1
 3048 610 l 1
 3276 610 l 1
 3276 320 l 1
 3048 320 l 1
 3048 0 l 1
 2666 0 l 1
 2666 320 l 1
 1818 320 l 1
2098 590 m 1
 2708 590 l 1
 2708 1336 l 1
 2696 1336 l 1
 2098 606 l 1
 2098 590 l 1
EndSplineSet
EndChar

StartChar: onehalf
Encoding: 189 189 122
Width: 3584
GlyphClass: 2
Flags: HW
LayerCount: 2
UndoRedoHistory
Layer: 1
Undoes
UndoOperation
Index: 0
Type: 1
WasModified: 0
WasOrder2: 0
Layer: 2
Width: 1792
VWidth: 2048
LBearingChange: 0
UnicodeEnc: 0
InstructionsLength: 0
EndUndoOperation
UndoOperation
Index: 1
Type: 3
WasModified: 0
WasOrder2: 0
Layer: 2
EndUndoOperation
EndUndoes
Redoes
EndRedoes
EndUndoRedoHistory
Fore
SplineSet
696 1298 m 1
 696 2572 l 1
 680 2572 l 1
 204 2180 l 1
 204 2548 l 1
 630 2888 l 1
 1060 2888 l 1
 1060 1298 l 1
 696 1298 l 1
570 0 m 1
 2368 2888 l 1
 2736 2888 l 1
 938 0 l 1
 570 0 l 1
2060 1134 m 1
 2078 1286 2146 1406 2260 1494 c 0
 2376 1582 2528 1626 2716 1626 c 0
 2896 1626 3040 1584 3146 1500 c 0
 3252 1416 3306 1304 3306 1164 c 0
 3306 1058 3278 966 3224 884 c 0
 3168 802 3080 720 2962 638 c 2
 2502 316 l 1
 2502 300 l 1
 3380 300 l 1
 3380 0 l 1
 2114 0 l 1
 2114 380 l 1
 2720 812 l 2
 2802 870 2860 924 2894 976 c 0
 2928 1024 2946 1078 2946 1134 c 0
 2946 1196 2924 1246 2880 1288 c 0
 2836 1328 2774 1348 2696 1348 c 0
 2520 1348 2420 1258 2396 1078 c 1
 2060 1134 l 1
EndSplineSet
EndChar

StartChar: threequarters
Encoding: 190 190 123
Width: 3734
GlyphClass: 2
Flags: HW
LayerCount: 2
UndoRedoHistory
Layer: 1
Undoes
UndoOperation
Index: 0
Type: 1
WasModified: 0
WasOrder2: 0
Layer: 2
Width: 1867
VWidth: 2048
LBearingChange: 0
UnicodeEnc: 0
InstructionsLength: 0
EndUndoOperation
UndoOperation
Index: 1
Type: 3
WasModified: 0
WasOrder2: 0
Layer: 2
EndUndoOperation
EndUndoes
Redoes
EndRedoes
EndUndoRedoHistory
Fore
SplineSet
868 1262 m 0
 700 1262 558 1296 440 1364 c 0
 322 1432 244 1530 204 1658 c 1
 528 1754 l 1
 574 1612 690 1540 872 1540 c 0
 966 1540 1040 1562 1094 1608 c 0
 1148 1654 1176 1712 1176 1786 c 0
 1176 1860 1146 1918 1088 1960 c 0
 1030 2002 946 2024 836 2024 c 2
 602 2024 l 1
 602 2248 l 1
 1070 2572 l 1
 1070 2588 l 1
 308 2588 l 1
 308 2888 l 1
 1434 2888 l 1
 1434 2580 l 1
 1004 2270 l 1
 1004 2256 l 1
 1170 2252 1300 2208 1392 2126 c 0
 1486 2044 1532 1932 1532 1790 c 0
 1532 1632 1474 1506 1356 1408 c 0
 1240 1310 1078 1262 868 1262 c 0
844 0 m 1
 2642 2888 l 1
 3010 2888 l 1
 1212 0 l 1
 844 0 l 1
2072 320 m 1
 2072 656 l 1
 2826 1590 l 1
 3298 1590 l 1
 3298 610 l 1
 3530 610 l 1
 3530 320 l 1
 3298 320 l 1
 3298 0 l 1
 2920 0 l 1
 2920 320 l 1
 2072 320 l 1
2352 590 m 1
 2962 590 l 1
 2962 1336 l 1
 2946 1336 l 1
 2352 606 l 1
 2352 590 l 1
EndSplineSet
EndChar

StartChar: questiondown
Encoding: 191 191 124
Width: 2400
GlyphClass: 2
Flags: HW
LayerCount: 2
UndoRedoHistory
Layer: 1
Undoes
UndoOperation
Index: 0
Type: 1
WasModified: 0
WasOrder2: 0
Layer: 2
Width: 1200
VWidth: 2048
LBearingChange: 0
UnicodeEnc: 0
InstructionsLength: 0
EndUndoOperation
UndoOperation
Index: 1
Type: 3
WasModified: 0
WasOrder2: 0
Layer: 2
EndUndoOperation
EndUndoes
Redoes
EndRedoes
EndUndoRedoHistory
Fore
SplineSet
1496 1224 m 1
 1496 524 l 1
 1274 508 l 2
 1108 496 978 448 884 366 c 0
 790 284 742 176 742 46 c 0
 742 -96 786 -208 872 -290 c 0
 960 -372 1080 -414 1232 -414 c 0
 1538 -414 1722 -264 1782 36 c 1
 2244 -54 l 1
 2204 -298 2092 -486 1908 -616 c 0
 1724 -746 1488 -812 1200 -812 c 0
 904 -812 668 -736 488 -582 c 0
 312 -428 222 -224 222 32 c 0
 222 242 292 418 436 564 c 0
 576 708 770 798 1016 836 c 1
 1016 1224 l 1
 1496 1224 l 1
934 1840 m 0
 934 1932 966 2010 1028 2072 c 0
 1092 2134 1170 2166 1262 2166 c 0
 1352 2166 1430 2134 1492 2072 c 0
 1554 2010 1586 1932 1586 1840 c 0
 1586 1750 1554 1672 1492 1610 c 0
 1428 1548 1352 1516 1262 1516 c 0
 1170 1516 1092 1548 1028 1610 c 0
 966 1672 934 1750 934 1840 c 0
EndSplineSet
Substitution2: "'case' Case-Sensitive Forms in Latin lookup 23 subtable" questiondown.case
Substitution2: "'aalt' Access All Alternates in Latin lookup 0 subtable" questiondown.case
EndChar

StartChar: Agrave
Encoding: 192 192 125
Width: 2822
GlyphClass: 2
Flags: HW
AnchorPoint: "Anchor-2" 1200 3706 basechar 0
AnchorPoint: "Anchor-1" 2724 0 basechar 0
AnchorPoint: "Anchor-0" 1422 0 basechar 0
LayerCount: 2
UndoRedoHistory
Layer: 1
Undoes
UndoOperation
Index: 0
Type: 1
WasModified: 0
WasOrder2: 0
Layer: 2
Width: 1411
VWidth: 2048
LBearingChange: 0
UnicodeEnc: 0
InstructionsLength: 0
EndUndoOperation
UndoOperation
Index: 1
Type: 3
WasModified: 0
WasOrder2: 0
Layer: 2
EndUndoOperation
EndUndoes
Redoes
EndRedoes
EndUndoRedoHistory
Fore
SplineSet
98 0 m 1
 1052 2888 l 1
 1770 2888 l 1
 2724 0 l 1
 2216 0 l 1
 1982 770 l 1
 840 770 l 1
 606 0 l 1
 98 0 l 1
762 3706 m 1
 1232 3706 l 1
 1630 3130 l 1
 1188 3130 l 1
 762 3706 l 1
958 1156 m 1
 1864 1156 l 1
 1422 2606 l 1
 1400 2606 l 1
 958 1156 l 1
EndSplineSet
EndChar

StartChar: Aacute
Encoding: 193 193 126
Width: 2822
GlyphClass: 2
Flags: HW
AnchorPoint: "Anchor-2" 1626 3706 basechar 0
AnchorPoint: "Anchor-1" 2724 0 basechar 0
AnchorPoint: "Anchor-0" 1422 0 basechar 0
LayerCount: 2
UndoRedoHistory
Layer: 1
Undoes
UndoOperation
Index: 0
Type: 1
WasModified: 0
WasOrder2: 0
Layer: 2
Width: 1411
VWidth: 2048
LBearingChange: 0
UnicodeEnc: 0
InstructionsLength: 0
EndUndoOperation
UndoOperation
Index: 1
Type: 3
WasModified: 0
WasOrder2: 0
Layer: 2
EndUndoOperation
EndUndoes
Redoes
EndRedoes
EndUndoRedoHistory
Fore
SplineSet
98 0 m 1
 1052 2888 l 1
 1770 2888 l 1
 2724 0 l 1
 2216 0 l 1
 1982 770 l 1
 840 770 l 1
 606 0 l 1
 98 0 l 1
958 1156 m 1
 1864 1156 l 1
 1422 2606 l 1
 1400 2606 l 1
 958 1156 l 1
1188 3130 m 1
 1586 3706 l 1
 2056 3706 l 1
 1630 3130 l 1
 1188 3130 l 1
EndSplineSet
EndChar

StartChar: Acircumflex
Encoding: 194 194 127
Width: 2822
GlyphClass: 2
Flags: HW
AnchorPoint: "Anchor-2" 1410 3706 basechar 0
AnchorPoint: "Anchor-1" 2724 0 basechar 0
AnchorPoint: "Anchor-0" 1422 0 basechar 0
LayerCount: 2
UndoRedoHistory
Layer: 1
Undoes
UndoOperation
Index: 0
Type: 1
WasModified: 0
WasOrder2: 0
Layer: 2
Width: 1411
VWidth: 2048
LBearingChange: 0
UnicodeEnc: 0
InstructionsLength: 0
EndUndoOperation
UndoOperation
Index: 1
Type: 3
WasModified: 0
WasOrder2: 0
Layer: 2
EndUndoOperation
EndUndoes
Redoes
EndRedoes
EndUndoRedoHistory
Fore
SplineSet
98 0 m 1
 1052 2888 l 1
 1770 2888 l 1
 2724 0 l 1
 2216 0 l 1
 1982 770 l 1
 840 770 l 1
 606 0 l 1
 98 0 l 1
712 3130 m 1
 1156 3706 l 1
 1662 3706 l 1
 2106 3130 l 1
 1688 3130 l 1
 1410 3494 l 1
 1130 3130 l 1
 712 3130 l 1
958 1156 m 1
 1864 1156 l 1
 1422 2606 l 1
 1400 2606 l 1
 958 1156 l 1
EndSplineSet
EndChar

StartChar: Atilde
Encoding: 195 195 128
Width: 2822
GlyphClass: 2
Flags: HW
AnchorPoint: "Anchor-2" 1414 3698 basechar 0
AnchorPoint: "Anchor-1" 2724 0 basechar 0
AnchorPoint: "Anchor-0" 1422 0 basechar 0
LayerCount: 2
UndoRedoHistory
Layer: 1
Undoes
UndoOperation
Index: 0
Type: 1
WasModified: 0
WasOrder2: 0
Layer: 2
Width: 1411
VWidth: 2048
LBearingChange: 0
UnicodeEnc: 0
InstructionsLength: 0
EndUndoOperation
UndoOperation
Index: 1
Type: 3
WasModified: 0
WasOrder2: 0
Layer: 2
EndUndoOperation
EndUndoes
Redoes
EndRedoes
EndUndoRedoHistory
Fore
SplineSet
98 0 m 1
 1052 2888 l 1
 1770 2888 l 1
 2724 0 l 1
 2216 0 l 1
 1982 770 l 1
 840 770 l 1
 606 0 l 1
 98 0 l 1
644 3138 m 1
 644 3310 686 3446 770 3548 c 0
 854 3648 968 3698 1110 3698 c 0
 1172 3698 1236 3684 1296 3656 c 0
 1360 3628 1410 3598 1452 3564 c 0
 1492 3532 1534 3502 1580 3474 c 0
 1624 3446 1662 3432 1692 3432 c 0
 1742 3432 1782 3454 1810 3496 c 0
 1838 3538 1852 3598 1852 3674 c 1
 2174 3674 l 1
 2174 3504 2132 3368 2048 3264 c 0
 1964 3164 1850 3112 1708 3112 c 0
 1646 3112 1586 3126 1524 3154 c 0
 1464 3182 1414 3214 1372 3248 c 0
 1332 3282 1290 3314 1244 3342 c 0
 1198 3370 1160 3384 1126 3384 c 0
 1076 3384 1038 3362 1008 3320 c 0
 980 3276 966 3216 966 3138 c 1
 644 3138 l 1
958 1156 m 1
 1864 1156 l 1
 1422 2606 l 1
 1400 2606 l 1
 958 1156 l 1
EndSplineSet
EndChar

StartChar: Adieresis
Encoding: 196 196 129
Width: 2822
GlyphClass: 2
Flags: HW
AnchorPoint: "Anchor-2" 1410 3654 basechar 0
AnchorPoint: "Anchor-1" 2724 0 basechar 0
AnchorPoint: "Anchor-0" 1422 0 basechar 0
LayerCount: 2
UndoRedoHistory
Layer: 1
Undoes
UndoOperation
Index: 0
Type: 1
WasModified: 0
WasOrder2: 0
Layer: 2
Width: 1411
VWidth: 2048
LBearingChange: 0
UnicodeEnc: 0
InstructionsLength: 0
EndUndoOperation
UndoOperation
Index: 1
Type: 3
WasModified: 0
WasOrder2: 0
Layer: 2
EndUndoOperation
EndUndoes
Redoes
EndRedoes
EndUndoRedoHistory
Fore
SplineSet
98 0 m 1
 1052 2888 l 1
 1770 2888 l 1
 2724 0 l 1
 2216 0 l 1
 1982 770 l 1
 840 770 l 1
 606 0 l 1
 98 0 l 1
742 3400 m 0
 742 3474 766 3536 812 3584 c 0
 860 3630 922 3654 996 3654 c 0
 1066 3654 1126 3630 1174 3582 c 0
 1222 3534 1246 3474 1246 3400 c 0
 1246 3330 1222 3272 1174 3224 c 0
 1126 3178 1066 3154 996 3154 c 0
 922 3154 862 3178 814 3224 c 0
 766 3270 742 3330 742 3400 c 0
958 1156 m 1
 1864 1156 l 1
 1422 2606 l 1
 1400 2606 l 1
 958 1156 l 1
1572 3400 m 0
 1572 3474 1596 3534 1644 3582 c 0
 1694 3630 1754 3654 1826 3654 c 0
 1898 3654 1958 3630 2004 3582 c 0
 2052 3534 2076 3474 2076 3400 c 0
 2076 3330 2052 3270 2004 3224 c 0
 1958 3178 1898 3154 1826 3154 c 0
 1754 3154 1694 3178 1644 3224 c 0
 1596 3272 1572 3330 1572 3400 c 0
EndSplineSet
EndChar

StartChar: Aring
Encoding: 197 197 130
Width: 2822
GlyphClass: 2
Flags: HW
AnchorPoint: "Anchor-2" 1410 3998 basechar 0
AnchorPoint: "Anchor-1" 2724 0 basechar 0
AnchorPoint: "Anchor-0" 1422 0 basechar 0
LayerCount: 2
UndoRedoHistory
Layer: 1
Undoes
UndoOperation
Index: 0
Type: 1
WasModified: 0
WasOrder2: 0
Layer: 2
Width: 1411
VWidth: 2048
LBearingChange: 0
UnicodeEnc: 0
InstructionsLength: 0
EndUndoOperation
UndoOperation
Index: 1
Type: 3
WasModified: 0
WasOrder2: 0
Layer: 2
EndUndoOperation
EndUndoes
Redoes
EndRedoes
EndUndoRedoHistory
Fore
SplineSet
98 0 m 1
 1052 2888 l 1
 1770 2888 l 1
 2724 0 l 1
 2216 0 l 1
 1982 770 l 1
 840 770 l 1
 606 0 l 1
 98 0 l 1
898 3604 m 0
 898 3744 946 3860 1044 3948 c 0
 1142 4040 1264 4084 1410 4084 c 0
 1558 4084 1680 4040 1776 3948 c 0
 1874 3860 1922 3744 1922 3604 c 0
 1922 3464 1874 3350 1776 3262 c 0
 1680 3174 1558 3130 1410 3130 c 0
 1264 3130 1142 3174 1044 3262 c 0
 946 3350 898 3464 898 3604 c 0
958 1156 m 1
 1864 1156 l 1
 1422 2606 l 1
 1400 2606 l 1
 958 1156 l 1
1184 3604 m 0
 1184 3536 1206 3480 1250 3436 c 0
 1294 3394 1348 3372 1410 3372 c 0
 1472 3372 1524 3394 1568 3436 c 0
 1608 3478 1630 3534 1630 3604 c 0
 1630 3674 1608 3730 1568 3772 c 0
 1524 3814 1472 3834 1410 3834 c 0
 1346 3834 1292 3812 1248 3772 c 0
 1206 3728 1184 3674 1184 3604 c 0
EndSplineSet
EndChar

StartChar: AE
Encoding: 198 198 131
Width: 3836
GlyphClass: 2
Flags: HW
AnchorPoint: "Anchor-2" 2646 2888 basechar 0
AnchorPoint: "Anchor-0" 1926 0 basechar 0
LayerCount: 2
UndoRedoHistory
Layer: 1
Undoes
UndoOperation
Index: 0
Type: 1
WasModified: 0
WasOrder2: 0
Layer: 2
Width: 1918
VWidth: 2048
LBearingChange: 0
UnicodeEnc: 0
InstructionsLength: 0
EndUndoOperation
UndoOperation
Index: 1
Type: 3
WasModified: 0
WasOrder2: 0
Layer: 2
EndUndoOperation
EndUndoes
Redoes
EndRedoes
EndUndoRedoHistory
Fore
SplineSet
106 0 m 1
 1552 2888 l 1
 3600 2888 l 1
 3600 2486 l 1
 2434 2486 l 1
 2434 1708 l 1
 3428 1708 l 1
 3428 1314 l 1
 2434 1314 l 1
 2434 402 l 1
 3608 402 l 1
 3608 0 l 1
 1966 0 l 1
 1966 770 l 1
 1016 770 l 1
 644 0 l 1
 106 0 l 1
1200 1156 m 1
 1966 1156 l 1
 1966 2692 l 1
 1942 2692 l 1
 1200 1156 l 1
EndSplineSet
EndChar

StartChar: Ccedilla
Encoding: 199 199 132
Width: 2912
GlyphClass: 2
Flags: HW
AnchorPoint: "Anchor-2" 1582 2888 basechar 0
AnchorPoint: "Anchor-0" 1618 -868 basechar 0
LayerCount: 2
UndoRedoHistory
Layer: 1
Undoes
UndoOperation
Index: 0
Type: 1
WasModified: 0
WasOrder2: 0
Layer: 2
Width: 1456
VWidth: 2048
LBearingChange: 0
UnicodeEnc: 0
InstructionsLength: 0
EndUndoOperation
UndoOperation
Index: 1
Type: 3
WasModified: 0
WasOrder2: 0
Layer: 2
EndUndoOperation
EndUndoes
Redoes
EndRedoes
EndUndoRedoHistory
Fore
SplineSet
1618 -992 m 0
 1480 -992 1352 -968 1236 -922 c 1
 1236 -676 l 1
 1364 -714 1472 -734 1560 -734 c 0
 1718 -734 1798 -680 1798 -574 c 0
 1798 -476 1728 -426 1590 -426 c 0
 1530 -426 1466 -430 1400 -438 c 1
 1442 -66 l 1
 1072 -40 776 110 552 384 c 0
 330 656 218 1008 218 1442 c 0
 218 1898 340 2264 584 2540 c 0
 828 2816 1148 2954 1544 2954 c 0
 1850 2954 2102 2888 2304 2756 c 0
 2504 2622 2646 2426 2732 2166 c 1
 2274 2012 l 1
 2156 2364 1912 2540 1540 2540 c 0
 1290 2540 1094 2442 950 2246 c 0
 806 2050 734 1782 734 1442 c 0
 734 1102 806 834 950 638 c 0
 1094 442 1290 344 1540 344 c 0
 1916 344 2162 526 2278 888 c 1
 2740 750 l 1
 2586 266 2254 -4 1748 -58 c 1
 1728 -208 l 1
 1758 -208 l 2
 1882 -208 1980 -240 2052 -302 c 0
 2126 -364 2162 -456 2162 -574 c 0
 2162 -708 2116 -810 2020 -884 c 0
 1928 -956 1792 -992 1618 -992 c 0
EndSplineSet
EndChar

StartChar: Egrave
Encoding: 200 200 133
Width: 2370
GlyphClass: 2
Flags: HW
AnchorPoint: "Anchor-2" 1060 3706 basechar 0
AnchorPoint: "Anchor-1" 2138 0 basechar 0
AnchorPoint: "Anchor-0" 1278 0 basechar 0
LayerCount: 2
UndoRedoHistory
Layer: 1
Undoes
UndoOperation
Index: 0
Type: 1
WasModified: 0
WasOrder2: 0
Layer: 2
Width: 1185
VWidth: 2048
LBearingChange: 0
UnicodeEnc: 0
InstructionsLength: 0
EndUndoOperation
UndoOperation
Index: 1
Type: 3
WasModified: 0
WasOrder2: 0
Layer: 2
EndUndoOperation
EndUndoes
Redoes
EndRedoes
EndUndoRedoHistory
Fore
SplineSet
332 0 m 1
 332 2888 l 1
 2134 2888 l 1
 2134 2486 l 1
 820 2486 l 1
 820 1708 l 1
 1916 1708 l 1
 1916 1314 l 1
 820 1314 l 1
 820 402 l 1
 2138 402 l 1
 2138 0 l 1
 332 0 l 1
622 3706 m 1
 1094 3706 l 1
 1490 3130 l 1
 1048 3130 l 1
 622 3706 l 1
EndSplineSet
EndChar

StartChar: Eacute
Encoding: 201 201 134
Width: 2370
GlyphClass: 2
Flags: HW
AnchorPoint: "Anchor-2" 1486 3706 basechar 0
AnchorPoint: "Anchor-1" 2138 0 basechar 0
AnchorPoint: "Anchor-0" 1278 0 basechar 0
LayerCount: 2
UndoRedoHistory
Layer: 1
Undoes
UndoOperation
Index: 0
Type: 1
WasModified: 0
WasOrder2: 0
Layer: 2
Width: 1185
VWidth: 2048
LBearingChange: 0
UnicodeEnc: 0
InstructionsLength: 0
EndUndoOperation
UndoOperation
Index: 1
Type: 3
WasModified: 0
WasOrder2: 0
Layer: 2
EndUndoOperation
EndUndoes
Redoes
EndRedoes
EndUndoRedoHistory
Fore
SplineSet
332 0 m 1
 332 2888 l 1
 2134 2888 l 1
 2134 2486 l 1
 820 2486 l 1
 820 1708 l 1
 1916 1708 l 1
 1916 1314 l 1
 820 1314 l 1
 820 402 l 1
 2138 402 l 1
 2138 0 l 1
 332 0 l 1
1048 3130 m 1
 1446 3706 l 1
 1916 3706 l 1
 1490 3130 l 1
 1048 3130 l 1
EndSplineSet
EndChar

StartChar: Ecircumflex
Encoding: 202 202 135
Width: 2370
GlyphClass: 2
Flags: HW
AnchorPoint: "Anchor-2" 1270 3706 basechar 0
AnchorPoint: "Anchor-1" 2138 0 basechar 0
AnchorPoint: "Anchor-0" 1278 0 basechar 0
LayerCount: 2
UndoRedoHistory
Layer: 1
Undoes
UndoOperation
Index: 0
Type: 1
WasModified: 0
WasOrder2: 0
Layer: 2
Width: 1185
VWidth: 2048
LBearingChange: 0
UnicodeEnc: 0
InstructionsLength: 0
EndUndoOperation
UndoOperation
Index: 1
Type: 3
WasModified: 0
WasOrder2: 0
Layer: 2
EndUndoOperation
EndUndoes
Redoes
EndRedoes
EndUndoRedoHistory
Fore
SplineSet
332 0 m 1
 332 2888 l 1
 2134 2888 l 1
 2134 2486 l 1
 820 2486 l 1
 820 1708 l 1
 1916 1708 l 1
 1916 1314 l 1
 820 1314 l 1
 820 402 l 1
 2138 402 l 1
 2138 0 l 1
 332 0 l 1
574 3130 m 1
 1016 3706 l 1
 1524 3706 l 1
 1966 3130 l 1
 1548 3130 l 1
 1270 3494 l 1
 992 3130 l 1
 574 3130 l 1
EndSplineSet
EndChar

StartChar: Edieresis
Encoding: 203 203 136
Width: 2370
GlyphClass: 2
Flags: HW
AnchorPoint: "Anchor-2" 1270 3654 basechar 0
AnchorPoint: "Anchor-1" 2138 0 basechar 0
AnchorPoint: "Anchor-0" 1278 0 basechar 0
LayerCount: 2
UndoRedoHistory
Layer: 1
Undoes
UndoOperation
Index: 0
Type: 1
WasModified: 0
WasOrder2: 0
Layer: 2
Width: 1185
VWidth: 2048
LBearingChange: 0
UnicodeEnc: 0
InstructionsLength: 0
EndUndoOperation
UndoOperation
Index: 1
Type: 3
WasModified: 0
WasOrder2: 0
Layer: 2
EndUndoOperation
EndUndoes
Redoes
EndRedoes
EndUndoRedoHistory
Fore
SplineSet
332 0 m 1
 332 2888 l 1
 2134 2888 l 1
 2134 2486 l 1
 820 2486 l 1
 820 1708 l 1
 1916 1708 l 1
 1916 1314 l 1
 820 1314 l 1
 820 402 l 1
 2138 402 l 1
 2138 0 l 1
 332 0 l 1
602 3400 m 0
 602 3474 626 3536 672 3584 c 0
 720 3630 782 3654 856 3654 c 0
 926 3654 986 3630 1034 3582 c 0
 1082 3534 1106 3474 1106 3400 c 0
 1106 3330 1082 3272 1034 3224 c 0
 986 3178 926 3154 856 3154 c 0
 782 3154 722 3178 674 3224 c 0
 626 3270 602 3330 602 3400 c 0
1434 3400 m 0
 1434 3474 1458 3534 1508 3582 c 0
 1556 3630 1616 3654 1688 3654 c 0
 1760 3654 1820 3630 1868 3582 c 0
 1914 3534 1938 3474 1938 3400 c 0
 1938 3330 1914 3270 1868 3224 c 0
 1820 3178 1760 3154 1688 3154 c 0
 1616 3154 1556 3178 1508 3224 c 0
 1458 3272 1434 3330 1434 3400 c 0
EndSplineSet
EndChar

StartChar: Igrave
Encoding: 204 204 137
Width: 1150
GlyphClass: 2
Flags: HW
AnchorPoint: "Anchor-2" 364 3706 basechar 0
AnchorPoint: "Anchor-1" 820 0 basechar 0
AnchorPoint: "Anchor-0" 578 0 basechar 0
LayerCount: 2
UndoRedoHistory
Layer: 1
Undoes
UndoOperation
Index: 0
Type: 1
WasModified: 0
WasOrder2: 0
Layer: 2
Width: 575
VWidth: 2048
LBearingChange: 0
UnicodeEnc: 0
InstructionsLength: 0
EndUndoOperation
UndoOperation
Index: 1
Type: 3
WasModified: 0
WasOrder2: 0
Layer: 2
EndUndoOperation
EndUndoes
Redoes
EndRedoes
EndUndoRedoHistory
Fore
SplineSet
332 0 m 1
 332 2888 l 1
 820 2888 l 1
 820 0 l 1
 332 0 l 1
-74 3706 m 1
 398 3706 l 1
 794 3130 l 1
 352 3130 l 1
 -74 3706 l 1
EndSplineSet
Substitution2: "'ss02' Style Set 2 in Latin lookup 26 subtable" Igrave.ss01
Substitution2: "'ss01' Style Set 1 in Latin lookup 25 subtable" Igrave.ss01
Substitution2: "'aalt' Access All Alternates in Latin lookup 0 subtable" Igrave.ss01
EndChar

StartChar: Iacute
Encoding: 205 205 138
Width: 1150
GlyphClass: 2
Flags: HW
AnchorPoint: "Anchor-2" 790 3706 basechar 0
AnchorPoint: "Anchor-1" 820 0 basechar 0
AnchorPoint: "Anchor-0" 578 0 basechar 0
LayerCount: 2
UndoRedoHistory
Layer: 1
Undoes
UndoOperation
Index: 0
Type: 1
WasModified: 0
WasOrder2: 0
Layer: 2
Width: 575
VWidth: 2048
LBearingChange: 0
UnicodeEnc: 0
InstructionsLength: 0
EndUndoOperation
UndoOperation
Index: 1
Type: 3
WasModified: 0
WasOrder2: 0
Layer: 2
EndUndoOperation
EndUndoes
Redoes
EndRedoes
EndUndoRedoHistory
Fore
SplineSet
332 0 m 1
 332 2888 l 1
 820 2888 l 1
 820 0 l 1
 332 0 l 1
352 3130 m 1
 750 3706 l 1
 1220 3706 l 1
 794 3130 l 1
 352 3130 l 1
EndSplineSet
Substitution2: "'ss02' Style Set 2 in Latin lookup 26 subtable" Iacute.ss01
Substitution2: "'ss01' Style Set 1 in Latin lookup 25 subtable" Iacute.ss01
Substitution2: "'aalt' Access All Alternates in Latin lookup 0 subtable" Iacute.ss01
EndChar

StartChar: Icircumflex
Encoding: 206 206 139
Width: 1150
GlyphClass: 2
Flags: HW
AnchorPoint: "Anchor-2" 578 3706 basechar 0
AnchorPoint: "Anchor-1" 820 0 basechar 0
AnchorPoint: "Anchor-0" 578 0 basechar 0
LayerCount: 2
UndoRedoHistory
Layer: 1
Undoes
UndoOperation
Index: 0
Type: 1
WasModified: 0
WasOrder2: 0
Layer: 2
Width: 575
VWidth: 2048
LBearingChange: 0
UnicodeEnc: 0
InstructionsLength: 0
EndUndoOperation
UndoOperation
Index: 1
Type: 3
WasModified: 0
WasOrder2: 0
Layer: 2
EndUndoOperation
EndUndoes
Redoes
EndRedoes
EndUndoRedoHistory
Fore
SplineSet
332 0 m 1
 332 2888 l 1
 820 2888 l 1
 820 0 l 1
 332 0 l 1
-118 3130 m 1
 324 3706 l 1
 832 3706 l 1
 1274 3130 l 1
 856 3130 l 1
 578 3494 l 1
 300 3130 l 1
 -118 3130 l 1
EndSplineSet
Substitution2: "'ss02' Style Set 2 in Latin lookup 26 subtable" Icircumflex.ss01
Substitution2: "'ss01' Style Set 1 in Latin lookup 25 subtable" Icircumflex.ss01
Substitution2: "'aalt' Access All Alternates in Latin lookup 0 subtable" Icircumflex.ss01
EndChar

StartChar: Idieresis
Encoding: 207 207 140
Width: 1150
GlyphClass: 2
Flags: HW
AnchorPoint: "Anchor-2" 574 3654 basechar 0
AnchorPoint: "Anchor-1" 820 0 basechar 0
AnchorPoint: "Anchor-0" 578 0 basechar 0
LayerCount: 2
UndoRedoHistory
Layer: 1
Undoes
UndoOperation
Index: 0
Type: 1
WasModified: 0
WasOrder2: 0
Layer: 2
Width: 575
VWidth: 2048
LBearingChange: 0
UnicodeEnc: 0
InstructionsLength: 0
EndUndoOperation
UndoOperation
Index: 1
Type: 3
WasModified: 0
WasOrder2: 0
Layer: 2
EndUndoOperation
EndUndoes
Redoes
EndRedoes
EndUndoRedoHistory
Fore
SplineSet
332 0 m 1
 332 2888 l 1
 820 2888 l 1
 820 0 l 1
 332 0 l 1
-94 3400 m 0
 -94 3474 -70 3536 -24 3584 c 0
 24 3630 86 3654 160 3654 c 0
 230 3654 290 3630 338 3582 c 0
 386 3534 410 3474 410 3400 c 0
 410 3330 386 3272 338 3224 c 0
 290 3178 230 3154 160 3154 c 0
 86 3154 26 3178 -22 3224 c 0
 -70 3270 -94 3330 -94 3400 c 0
738 3400 m 0
 738 3474 762 3534 812 3582 c 0
 860 3630 920 3654 992 3654 c 0
 1064 3654 1124 3630 1172 3582 c 0
 1218 3534 1242 3474 1242 3400 c 0
 1242 3330 1218 3270 1172 3224 c 0
 1124 3178 1064 3154 992 3154 c 0
 920 3154 860 3178 812 3224 c 0
 762 3272 738 3330 738 3400 c 0
EndSplineSet
Substitution2: "'ss02' Style Set 2 in Latin lookup 26 subtable" Idieresis.ss01
Substitution2: "'ss01' Style Set 1 in Latin lookup 25 subtable" Idieresis.ss01
Substitution2: "'aalt' Access All Alternates in Latin lookup 0 subtable" Idieresis.ss01
EndChar

StartChar: Eth
Encoding: 208 208 141
Width: 2932
GlyphClass: 2
Flags: HW
AnchorPoint: "Anchor-2" 1356 2888 basechar 0
AnchorPoint: "Anchor-0" 1466 0 basechar 0
LayerCount: 2
UndoRedoHistory
Layer: 1
Undoes
UndoOperation
Index: 0
Type: 1
WasModified: 0
WasOrder2: 0
Layer: 2
Width: 1466
VWidth: 2048
LBearingChange: 0
UnicodeEnc: 0
InstructionsLength: 0
EndUndoOperation
UndoOperation
Index: 1
Type: 3
WasModified: 0
WasOrder2: 0
Layer: 2
EndUndoOperation
EndUndoes
Redoes
EndRedoes
EndUndoRedoHistory
Fore
SplineSet
332 0 m 1
 332 1298 l 1
 58 1298 l 1
 58 1594 l 1
 332 1594 l 1
 332 2888 l 1
 1250 2888 l 2
 1704 2888 2060 2760 2324 2504 c 0
 2584 2250 2716 1896 2716 1446 c 0
 2716 992 2584 638 2322 384 c 0
 2060 128 1702 0 1250 0 c 2
 332 0 l 1
820 410 m 1
 1212 410 l 2
 1532 410 1776 498 1946 676 c 0
 2116 852 2200 1108 2200 1442 c 0
 2200 1776 2114 2032 1944 2212 c 0
 1774 2388 1530 2478 1212 2478 c 2
 820 2478 l 1
 820 1594 l 1
 1540 1594 l 1
 1540 1298 l 1
 820 1298 l 1
 820 410 l 1
EndSplineSet
EndChar

StartChar: Ntilde
Encoding: 209 209 142
Width: 2994
GlyphClass: 2
Flags: HW
AnchorPoint: "Anchor-2" 1590 3698 basechar 0
AnchorPoint: "Anchor-0" 1500 0 basechar 0
LayerCount: 2
UndoRedoHistory
Layer: 1
Undoes
UndoOperation
Index: 0
Type: 1
WasModified: 0
WasOrder2: 0
Layer: 2
Width: 1497
VWidth: 2048
LBearingChange: 0
UnicodeEnc: 0
InstructionsLength: 0
EndUndoOperation
UndoOperation
Index: 1
Type: 3
WasModified: 0
WasOrder2: 0
Layer: 2
EndUndoOperation
EndUndoes
Redoes
EndRedoes
EndUndoRedoHistory
Fore
SplineSet
332 0 m 1
 332 2888 l 1
 1130 2888 l 1
 2188 332 l 1
 2208 332 l 1
 2208 2888 l 1
 2662 2888 l 1
 2662 0 l 1
 1864 0 l 1
 812 2556 l 1
 786 2556 l 1
 786 0 l 1
 332 0 l 1
820 3138 m 1
 820 3310 862 3446 946 3548 c 0
 1030 3648 1144 3698 1286 3698 c 0
 1348 3698 1412 3684 1472 3656 c 0
 1536 3628 1586 3598 1628 3564 c 0
 1668 3532 1710 3502 1756 3474 c 0
 1800 3446 1838 3432 1868 3432 c 0
 1918 3432 1958 3454 1986 3496 c 0
 2014 3538 2028 3598 2028 3674 c 1
 2352 3674 l 1
 2352 3504 2310 3368 2224 3264 c 0
 2140 3164 2026 3112 1884 3112 c 0
 1822 3112 1762 3126 1700 3154 c 0
 1640 3182 1590 3214 1548 3248 c 0
 1508 3282 1466 3314 1420 3342 c 0
 1374 3370 1336 3384 1302 3384 c 0
 1252 3384 1214 3362 1184 3320 c 0
 1156 3276 1142 3216 1142 3138 c 1
 820 3138 l 1
EndSplineSet
EndChar

StartChar: Ograve
Encoding: 210 210 143
Width: 3194
GlyphClass: 2
Flags: HW
AnchorPoint: "Anchor-3" 2056 2888 basechar 0
AnchorPoint: "Anchor-2" 1388 3706 basechar 0
AnchorPoint: "Anchor-1" 2240 0 basechar 0
AnchorPoint: "Anchor-0" 1602 0 basechar 0
LayerCount: 2
UndoRedoHistory
Layer: 1
Undoes
UndoOperation
Index: 0
Type: 1
WasModified: 0
WasOrder2: 0
Layer: 2
Width: 1597
VWidth: 2048
LBearingChange: 0
UnicodeEnc: 0
InstructionsLength: 0
EndUndoOperation
UndoOperation
Index: 1
Type: 3
WasModified: 0
WasOrder2: 0
Layer: 2
EndUndoOperation
EndUndoes
Redoes
EndRedoes
EndUndoRedoHistory
Fore
SplineSet
1598 -70 m 0
 1182 -70 848 68 596 344 c 0
 344 622 218 988 218 1442 c 0
 218 1742 276 2008 388 2236 c 0
 504 2468 664 2644 872 2770 c 0
 1082 2896 1324 2958 1598 2958 c 0
 2016 2958 2350 2820 2604 2542 c 0
 2856 2264 2982 1898 2982 1442 c 0
 2982 986 2856 620 2604 344 c 0
 2350 68 2016 -70 1598 -70 c 0
734 1442 m 0
 734 1114 812 848 972 648 c 0
 1128 444 1338 344 1598 344 c 0
 1858 344 2068 444 2224 648 c 0
 2384 848 2462 1114 2462 1442 c 0
 2462 1772 2382 2038 2224 2240 c 0
 2066 2442 1856 2544 1598 2544 c 0
 1340 2544 1130 2442 972 2240 c 0
 814 2038 734 1772 734 1442 c 0
950 3706 m 1
 1422 3706 l 1
 1818 3130 l 1
 1376 3130 l 1
 950 3706 l 1
EndSplineSet
EndChar

StartChar: Oacute
Encoding: 211 211 144
Width: 3194
GlyphClass: 2
Flags: HW
AnchorPoint: "Anchor-3" 2056 2888 basechar 0
AnchorPoint: "Anchor-2" 1814 3706 basechar 0
AnchorPoint: "Anchor-1" 2240 0 basechar 0
AnchorPoint: "Anchor-0" 1602 0 basechar 0
LayerCount: 2
UndoRedoHistory
Layer: 1
Undoes
UndoOperation
Index: 0
Type: 1
WasModified: 0
WasOrder2: 0
Layer: 2
Width: 1597
VWidth: 2048
LBearingChange: 0
UnicodeEnc: 0
InstructionsLength: 0
EndUndoOperation
UndoOperation
Index: 1
Type: 3
WasModified: 0
WasOrder2: 0
Layer: 2
EndUndoOperation
EndUndoes
Redoes
EndRedoes
EndUndoRedoHistory
Fore
SplineSet
1598 -70 m 0
 1182 -70 848 68 596 344 c 0
 344 622 218 988 218 1442 c 0
 218 1742 276 2008 388 2236 c 0
 504 2468 664 2644 872 2770 c 0
 1082 2896 1324 2958 1598 2958 c 0
 2016 2958 2350 2820 2604 2542 c 0
 2856 2264 2982 1898 2982 1442 c 0
 2982 986 2856 620 2604 344 c 0
 2350 68 2016 -70 1598 -70 c 0
734 1442 m 0
 734 1114 812 848 972 648 c 0
 1128 444 1338 344 1598 344 c 0
 1858 344 2068 444 2224 648 c 0
 2384 848 2462 1114 2462 1442 c 0
 2462 1772 2382 2038 2224 2240 c 0
 2066 2442 1856 2544 1598 2544 c 0
 1340 2544 1130 2442 972 2240 c 0
 814 2038 734 1772 734 1442 c 0
1376 3130 m 1
 1774 3706 l 1
 2244 3706 l 1
 1818 3130 l 1
 1376 3130 l 1
EndSplineSet
EndChar

StartChar: Ocircumflex
Encoding: 212 212 145
Width: 3194
GlyphClass: 2
Flags: HW
AnchorPoint: "Anchor-3" 2056 2888 basechar 0
AnchorPoint: "Anchor-2" 1598 3706 basechar 0
AnchorPoint: "Anchor-1" 2240 0 basechar 0
AnchorPoint: "Anchor-0" 1602 0 basechar 0
LayerCount: 2
UndoRedoHistory
Layer: 1
Undoes
UndoOperation
Index: 0
Type: 1
WasModified: 0
WasOrder2: 0
Layer: 2
Width: 1597
VWidth: 2048
LBearingChange: 0
UnicodeEnc: 0
InstructionsLength: 0
EndUndoOperation
UndoOperation
Index: 1
Type: 3
WasModified: 0
WasOrder2: 0
Layer: 2
EndUndoOperation
EndUndoes
Redoes
EndRedoes
EndUndoRedoHistory
Fore
SplineSet
1598 -70 m 0
 1182 -70 848 68 596 344 c 0
 344 622 218 988 218 1442 c 0
 218 1742 276 2008 388 2236 c 0
 504 2468 664 2644 872 2770 c 0
 1082 2896 1324 2958 1598 2958 c 0
 2016 2958 2350 2820 2604 2542 c 0
 2856 2264 2982 1898 2982 1442 c 0
 2982 986 2856 620 2604 344 c 0
 2350 68 2016 -70 1598 -70 c 0
734 1442 m 0
 734 1114 812 848 972 648 c 0
 1128 444 1338 344 1598 344 c 0
 1858 344 2068 444 2224 648 c 0
 2384 848 2462 1114 2462 1442 c 0
 2462 1772 2382 2038 2224 2240 c 0
 2066 2442 1856 2544 1598 2544 c 0
 1340 2544 1130 2442 972 2240 c 0
 814 2038 734 1772 734 1442 c 0
902 3130 m 1
 1344 3706 l 1
 1852 3706 l 1
 2294 3130 l 1
 1876 3130 l 1
 1598 3494 l 1
 1318 3130 l 1
 902 3130 l 1
EndSplineSet
EndChar

StartChar: Otilde
Encoding: 213 213 146
Width: 3194
GlyphClass: 2
Flags: HW
AnchorPoint: "Anchor-3" 2056 2888 basechar 0
AnchorPoint: "Anchor-2" 1602 3698 basechar 0
AnchorPoint: "Anchor-1" 2240 0 basechar 0
AnchorPoint: "Anchor-0" 1602 0 basechar 0
LayerCount: 2
UndoRedoHistory
Layer: 1
Undoes
UndoOperation
Index: 0
Type: 1
WasModified: 0
WasOrder2: 0
Layer: 2
Width: 1597
VWidth: 2048
LBearingChange: 0
UnicodeEnc: 0
InstructionsLength: 0
EndUndoOperation
UndoOperation
Index: 1
Type: 3
WasModified: 0
WasOrder2: 0
Layer: 2
EndUndoOperation
EndUndoes
Redoes
EndRedoes
EndUndoRedoHistory
Fore
SplineSet
1598 -70 m 0
 1182 -70 848 68 596 344 c 0
 344 622 218 988 218 1442 c 0
 218 1742 276 2008 388 2236 c 0
 504 2468 664 2644 872 2770 c 0
 1082 2896 1324 2958 1598 2958 c 0
 2016 2958 2350 2820 2604 2542 c 0
 2856 2264 2982 1898 2982 1442 c 0
 2982 986 2856 620 2604 344 c 0
 2350 68 2016 -70 1598 -70 c 0
734 1442 m 0
 734 1114 812 848 972 648 c 0
 1128 444 1338 344 1598 344 c 0
 1858 344 2068 444 2224 648 c 0
 2384 848 2462 1114 2462 1442 c 0
 2462 1772 2382 2038 2224 2240 c 0
 2066 2442 1856 2544 1598 2544 c 0
 1340 2544 1130 2442 972 2240 c 0
 814 2038 734 1772 734 1442 c 0
832 3138 m 1
 832 3310 874 3446 958 3548 c 0
 1042 3648 1156 3698 1298 3698 c 0
 1360 3698 1424 3684 1484 3656 c 0
 1548 3628 1598 3598 1640 3564 c 0
 1680 3532 1722 3502 1768 3474 c 0
 1812 3446 1850 3432 1880 3432 c 0
 1930 3432 1970 3454 1998 3496 c 0
 2026 3538 2040 3598 2040 3674 c 1
 2364 3674 l 1
 2364 3504 2322 3368 2236 3264 c 0
 2152 3164 2038 3112 1896 3112 c 0
 1834 3112 1774 3126 1712 3154 c 0
 1652 3182 1602 3214 1560 3248 c 0
 1520 3282 1478 3314 1432 3342 c 0
 1386 3370 1348 3384 1314 3384 c 0
 1264 3384 1226 3362 1198 3320 c 0
 1170 3276 1156 3216 1156 3138 c 1
 832 3138 l 1
EndSplineSet
EndChar

StartChar: Odieresis
Encoding: 214 214 147
Width: 3194
GlyphClass: 2
Flags: HW
AnchorPoint: "Anchor-3" 2056 2888 basechar 0
AnchorPoint: "Anchor-2" 1598 3654 basechar 0
AnchorPoint: "Anchor-1" 2240 0 basechar 0
AnchorPoint: "Anchor-0" 1602 0 basechar 0
LayerCount: 2
UndoRedoHistory
Layer: 1
Undoes
UndoOperation
Index: 0
Type: 1
WasModified: 0
WasOrder2: 0
Layer: 2
Width: 1597
VWidth: 2048
LBearingChange: 0
UnicodeEnc: 0
InstructionsLength: 0
EndUndoOperation
UndoOperation
Index: 1
Type: 3
WasModified: 0
WasOrder2: 0
Layer: 2
EndUndoOperation
EndUndoes
Redoes
EndRedoes
EndUndoRedoHistory
Fore
SplineSet
1598 -70 m 0
 1182 -70 848 68 596 344 c 0
 344 622 218 988 218 1442 c 0
 218 1742 276 2008 388 2236 c 0
 504 2468 664 2644 872 2770 c 0
 1082 2896 1324 2958 1598 2958 c 0
 2016 2958 2350 2820 2604 2542 c 0
 2856 2264 2982 1898 2982 1442 c 0
 2982 986 2856 620 2604 344 c 0
 2350 68 2016 -70 1598 -70 c 0
734 1442 m 0
 734 1114 812 848 972 648 c 0
 1128 444 1338 344 1598 344 c 0
 1858 344 2068 444 2224 648 c 0
 2384 848 2462 1114 2462 1442 c 0
 2462 1772 2382 2038 2224 2240 c 0
 2066 2442 1856 2544 1598 2544 c 0
 1340 2544 1130 2442 972 2240 c 0
 814 2038 734 1772 734 1442 c 0
930 3400 m 0
 930 3474 954 3536 1000 3584 c 0
 1048 3630 1110 3654 1184 3654 c 0
 1254 3654 1314 3630 1362 3582 c 0
 1410 3534 1434 3474 1434 3400 c 0
 1434 3330 1410 3272 1362 3224 c 0
 1314 3178 1254 3154 1184 3154 c 0
 1110 3154 1050 3178 1002 3224 c 0
 954 3270 930 3330 930 3400 c 0
1762 3400 m 0
 1762 3474 1786 3534 1836 3582 c 0
 1884 3630 1944 3654 2016 3654 c 0
 2088 3654 2148 3630 2196 3582 c 0
 2242 3534 2266 3474 2266 3400 c 0
 2266 3330 2242 3270 2196 3224 c 0
 2148 3178 2088 3154 2016 3154 c 0
 1944 3154 1884 3178 1836 3224 c 0
 1786 3272 1762 3330 1762 3400 c 0
EndSplineSet
EndChar

StartChar: multiply
Encoding: 215 215 148
Width: 2784
GlyphClass: 2
Flags: HW
LayerCount: 2
UndoRedoHistory
Layer: 1
Undoes
UndoOperation
Index: 0
Type: 1
WasModified: 0
WasOrder2: 0
Layer: 2
Width: 1392
VWidth: 2048
LBearingChange: 0
UnicodeEnc: 0
InstructionsLength: 0
EndUndoOperation
UndoOperation
Index: 1
Type: 3
WasModified: 0
WasOrder2: 0
Layer: 2
EndUndoOperation
EndUndoes
Redoes
EndRedoes
EndUndoRedoHistory
Fore
SplineSet
2052 2032 m 1
 2318 1762 l 1
 1662 1106 l 1
 2330 438 l 1
 2064 168 l 1
 1392 840 l 1
 734 184 l 1
 466 450 l 1
 1122 1106 l 1
 454 1774 l 1
 720 2048 l 1
 1392 1376 l 1
 2052 2032 l 1
EndSplineSet
Substitution2: "Single Substitution lookup 34 subtable" multiply.case
Substitution2: "'case' Case-Sensitive Forms in Latin lookup 23 subtable" multiply.case
Substitution2: "'aalt' Access All Alternates in Latin lookup 0 subtable" multiply.case
EndChar

StartChar: Oslash
Encoding: 216 216 149
Width: 3194
GlyphClass: 2
Flags: HW
AnchorPoint: "Anchor-3" 2056 2888 basechar 0
AnchorPoint: "Anchor-2" 1626 2888 basechar 0
AnchorPoint: "Anchor-1" 2240 0 basechar 0
AnchorPoint: "Anchor-0" 1626 0 basechar 0
LayerCount: 2
UndoRedoHistory
Layer: 1
Undoes
UndoOperation
Index: 0
Type: 1
WasModified: 0
WasOrder2: 0
Layer: 2
Width: 1597
VWidth: 2048
LBearingChange: 0
UnicodeEnc: 0
InstructionsLength: 0
EndUndoOperation
UndoOperation
Index: 1
Type: 3
WasModified: 0
WasOrder2: 0
Layer: 2
EndUndoOperation
EndUndoes
Redoes
EndRedoes
EndUndoRedoHistory
Fore
SplineSet
1598 -70 m 0
 1260 -70 976 22 742 208 c 1
 562 0 l 1
 156 0 l 1
 524 430 l 1
 320 698 218 1036 218 1442 c 0
 218 1742 276 2008 388 2236 c 0
 504 2468 664 2644 872 2770 c 0
 1082 2896 1324 2958 1598 2958 c 0
 1934 2958 2220 2864 2454 2678 c 1
 2634 2888 l 1
 3040 2888 l 1
 2670 2458 l 1
 2878 2190 2982 1852 2982 1442 c 0
 2982 986 2856 620 2604 344 c 0
 2350 68 2016 -70 1598 -70 c 0
734 1442 m 0
 734 1206 776 1000 860 824 c 1
 2150 2322 l 1
 2002 2470 1818 2544 1598 2544 c 0
 1340 2544 1130 2442 972 2240 c 0
 814 2038 734 1772 734 1442 c 0
1044 566 m 1
 1192 418 1376 344 1598 344 c 0
 1858 344 2068 444 2224 648 c 0
 2384 848 2462 1114 2462 1442 c 0
 2462 1680 2418 1888 2330 2064 c 1
 1044 566 l 1
EndSplineSet
EndChar

StartChar: Ugrave
Encoding: 217 217 150
Width: 2964
GlyphClass: 2
Flags: HW
AnchorPoint: "Anchor-3" 2126 2888 basechar 0
AnchorPoint: "Anchor-2" 1274 3706 basechar 0
AnchorPoint: "Anchor-1" 2084 0 basechar 0
AnchorPoint: "Anchor-0" 1482 0 basechar 0
LayerCount: 2
UndoRedoHistory
Layer: 1
Undoes
UndoOperation
Index: 0
Type: 1
WasModified: 0
WasOrder2: 0
Layer: 2
Width: 1482
VWidth: 2048
LBearingChange: 0
UnicodeEnc: 0
InstructionsLength: 0
EndUndoOperation
UndoOperation
Index: 1
Type: 3
WasModified: 0
WasOrder2: 0
Layer: 2
EndUndoOperation
EndUndoes
Redoes
EndRedoes
EndUndoRedoHistory
Fore
SplineSet
1486 -70 m 0
 1130 -70 848 30 642 232 c 0
 436 432 332 696 332 1024 c 2
 332 2888 l 1
 840 2888 l 1
 840 1056 l 2
 840 846 896 678 1012 554 c 0
 1124 430 1284 368 1486 368 c 0
 1688 368 1844 430 1956 554 c 0
 2070 678 2126 846 2126 1056 c 2
 2126 2888 l 1
 2630 2888 l 1
 2630 1024 l 2
 2630 696 2528 432 2324 232 c 0
 2118 30 1840 -70 1486 -70 c 0
836 3706 m 1
 1306 3706 l 1
 1704 3130 l 1
 1262 3130 l 1
 836 3706 l 1
EndSplineSet
EndChar

StartChar: Uacute
Encoding: 218 218 151
Width: 2964
GlyphClass: 2
Flags: HW
AnchorPoint: "Anchor-3" 2126 2888 basechar 0
AnchorPoint: "Anchor-2" 1696 3706 basechar 0
AnchorPoint: "Anchor-1" 2084 0 basechar 0
AnchorPoint: "Anchor-0" 1482 0 basechar 0
LayerCount: 2
UndoRedoHistory
Layer: 1
Undoes
UndoOperation
Index: 0
Type: 1
WasModified: 0
WasOrder2: 0
Layer: 2
Width: 1482
VWidth: 2048
LBearingChange: 0
UnicodeEnc: 0
InstructionsLength: 0
EndUndoOperation
UndoOperation
Index: 1
Type: 3
WasModified: 0
WasOrder2: 0
Layer: 2
EndUndoOperation
EndUndoes
Redoes
EndRedoes
EndUndoRedoHistory
Fore
SplineSet
1486 -70 m 0
 1130 -70 848 30 642 232 c 0
 436 432 332 696 332 1024 c 2
 332 2888 l 1
 840 2888 l 1
 840 1056 l 2
 840 846 896 678 1012 554 c 0
 1124 430 1284 368 1486 368 c 0
 1688 368 1844 430 1956 554 c 0
 2070 678 2126 846 2126 1056 c 2
 2126 2888 l 1
 2630 2888 l 1
 2630 1024 l 2
 2630 696 2528 432 2324 232 c 0
 2118 30 1840 -70 1486 -70 c 0
1258 3130 m 1
 1654 3706 l 1
 2126 3706 l 1
 1700 3130 l 1
 1258 3130 l 1
EndSplineSet
EndChar

StartChar: Ucircumflex
Encoding: 219 219 152
Width: 2964
GlyphClass: 2
Flags: HW
AnchorPoint: "Anchor-3" 2126 2888 basechar 0
AnchorPoint: "Anchor-2" 1482 3706 basechar 0
AnchorPoint: "Anchor-1" 2084 0 basechar 0
AnchorPoint: "Anchor-0" 1482 0 basechar 0
LayerCount: 2
UndoRedoHistory
Layer: 1
Undoes
UndoOperation
Index: 0
Type: 1
WasModified: 0
WasOrder2: 0
Layer: 2
Width: 1482
VWidth: 2048
LBearingChange: 0
UnicodeEnc: 0
InstructionsLength: 0
EndUndoOperation
UndoOperation
Index: 1
Type: 3
WasModified: 0
WasOrder2: 0
Layer: 2
EndUndoOperation
EndUndoes
Redoes
EndRedoes
EndUndoRedoHistory
Fore
SplineSet
1486 -70 m 0
 1130 -70 848 30 642 232 c 0
 436 432 332 696 332 1024 c 2
 332 2888 l 1
 840 2888 l 1
 840 1056 l 2
 840 846 896 678 1012 554 c 0
 1124 430 1284 368 1486 368 c 0
 1688 368 1844 430 1956 554 c 0
 2070 678 2126 846 2126 1056 c 2
 2126 2888 l 1
 2630 2888 l 1
 2630 1024 l 2
 2630 696 2528 432 2324 232 c 0
 2118 30 1840 -70 1486 -70 c 0
786 3130 m 1
 1228 3706 l 1
 1736 3706 l 1
 2180 3130 l 1
 1762 3130 l 1
 1482 3494 l 1
 1204 3130 l 1
 786 3130 l 1
EndSplineSet
EndChar

StartChar: Udieresis
Encoding: 220 220 153
Width: 2964
GlyphClass: 2
Flags: HW
AnchorPoint: "Anchor-3" 2126 2888 basechar 0
AnchorPoint: "Anchor-2" 1482 3654 basechar 0
AnchorPoint: "Anchor-1" 2084 0 basechar 0
AnchorPoint: "Anchor-0" 1482 0 basechar 0
LayerCount: 2
UndoRedoHistory
Layer: 1
Undoes
UndoOperation
Index: 0
Type: 1
WasModified: 0
WasOrder2: 0
Layer: 2
Width: 1482
VWidth: 2048
LBearingChange: 0
UnicodeEnc: 0
InstructionsLength: 0
EndUndoOperation
UndoOperation
Index: 1
Type: 3
WasModified: 0
WasOrder2: 0
Layer: 2
EndUndoOperation
EndUndoes
Redoes
EndRedoes
EndUndoRedoHistory
Fore
SplineSet
1486 -70 m 0
 1130 -70 848 30 642 232 c 0
 436 432 332 696 332 1024 c 2
 332 2888 l 1
 840 2888 l 1
 840 1056 l 2
 840 846 896 678 1012 554 c 0
 1124 430 1284 368 1486 368 c 0
 1688 368 1844 430 1956 554 c 0
 2070 678 2126 846 2126 1056 c 2
 2126 2888 l 1
 2630 2888 l 1
 2630 1024 l 2
 2630 696 2528 432 2324 232 c 0
 2118 30 1840 -70 1486 -70 c 0
816 3400 m 0
 816 3474 840 3536 888 3584 c 0
 936 3630 996 3654 1070 3654 c 0
 1140 3654 1200 3630 1248 3582 c 0
 1294 3534 1318 3474 1318 3400 c 0
 1318 3330 1294 3272 1248 3224 c 0
 1200 3178 1140 3154 1070 3154 c 0
 996 3154 936 3178 888 3224 c 0
 840 3270 816 3330 816 3400 c 0
1646 3400 m 0
 1646 3474 1670 3534 1720 3582 c 0
 1768 3630 1828 3654 1900 3654 c 0
 1972 3654 2032 3630 2080 3582 c 0
 2126 3534 2150 3474 2150 3400 c 0
 2150 3330 2126 3270 2080 3224 c 0
 2032 3178 1972 3154 1900 3154 c 0
 1828 3154 1768 3178 1720 3224 c 0
 1670 3272 1646 3330 1646 3400 c 0
EndSplineSet
EndChar

StartChar: Yacute
Encoding: 221 221 154
Width: 2686
GlyphClass: 2
Flags: HW
AnchorPoint: "Anchor-2" 1556 3706 basechar 0
AnchorPoint: "Anchor-0" 1344 0 basechar 0
LayerCount: 2
UndoRedoHistory
Layer: 1
Undoes
UndoOperation
Index: 0
Type: 1
WasModified: 0
WasOrder2: 0
Layer: 2
Width: 1343
VWidth: 2048
LBearingChange: 0
UnicodeEnc: 0
InstructionsLength: 0
EndUndoOperation
UndoOperation
Index: 1
Type: 3
WasModified: 0
WasOrder2: 0
Layer: 2
EndUndoOperation
EndUndoes
Redoes
EndRedoes
EndUndoRedoHistory
Fore
SplineSet
1098 0 m 1
 1098 1180 l 1
 82 2888 l 1
 626 2888 l 1
 1336 1582 l 1
 1352 1582 l 1
 2060 2888 l 1
 2600 2888 l 1
 1586 1180 l 1
 1586 0 l 1
 1098 0 l 1
1118 3130 m 1
 1516 3706 l 1
 1986 3706 l 1
 1560 3130 l 1
 1118 3130 l 1
EndSplineSet
EndChar

StartChar: Thorn
Encoding: 222 222 155
Width: 2632
GlyphClass: 2
Flags: HW
LayerCount: 2
UndoRedoHistory
Layer: 1
Undoes
UndoOperation
Index: 0
Type: 1
WasModified: 0
WasOrder2: 0
Layer: 2
Width: 1316
VWidth: 2048
LBearingChange: 0
UnicodeEnc: 0
InstructionsLength: 0
EndUndoOperation
UndoOperation
Index: 1
Type: 3
WasModified: 0
WasOrder2: 0
Layer: 2
EndUndoOperation
EndUndoes
Redoes
EndRedoes
EndUndoRedoHistory
Fore
SplineSet
1430 2408 m 2
 1748 2408 2002 2328 2192 2166 c 0
 2380 2004 2474 1786 2474 1508 c 0
 2474 1230 2380 1010 2192 848 c 0
 2002 686 1748 606 1430 606 c 2
 820 606 l 1
 820 0 l 1
 332 0 l 1
 332 2888 l 1
 820 2888 l 1
 820 2408 l 1
 1430 2408 l 2
820 992 m 1
 1360 992 l 2
 1562 992 1716 1034 1822 1120 c 0
 1928 1206 1982 1334 1982 1508 c 0
 1982 1682 1928 1810 1822 1896 c 0
 1716 1982 1562 2024 1360 2024 c 2
 820 2024 l 1
 820 992 l 1
EndSplineSet
EndChar

StartChar: germandbls
Encoding: 223 223 156
Width: 2568
GlyphClass: 2
Flags: HW
LayerCount: 2
UndoRedoHistory
Layer: 1
Undoes
UndoOperation
Index: 0
Type: 1
WasModified: 0
WasOrder2: 0
Layer: 2
Width: 1284
VWidth: 2048
LBearingChange: 0
UnicodeEnc: 0
InstructionsLength: 0
EndUndoOperation
UndoOperation
Index: 1
Type: 3
WasModified: 0
WasOrder2: 0
Layer: 2
EndUndoOperation
EndUndoes
Redoes
EndRedoes
EndUndoRedoHistory
Fore
SplineSet
1470 -40 m 0
 1368 -40 1252 -28 1126 -4 c 1
 1126 376 l 1
 1222 354 1314 344 1404 344 c 0
 1578 344 1714 388 1808 474 c 0
 1902 560 1950 686 1950 848 c 0
 1950 1190 1742 1360 1328 1360 c 2
 1168 1360 l 1
 1168 1720 l 1
 1294 1720 l 2
 1444 1720 1568 1766 1660 1858 c 0
 1756 1950 1802 2070 1802 2220 c 0
 1802 2368 1758 2482 1670 2560 c 0
 1582 2638 1460 2678 1302 2678 c 0
 936 2678 754 2474 754 2064 c 2
 754 0 l 1
 282 0 l 1
 282 2048 l 2
 282 2362 372 2604 552 2780 c 0
 734 2952 984 3040 1302 3040 c 0
 1596 3040 1828 2972 1998 2832 c 0
 2168 2696 2252 2508 2252 2274 c 0
 2252 2102 2204 1956 2110 1832 c 0
 2016 1712 1890 1632 1732 1598 c 1
 1732 1568 l 1
 1938 1554 2104 1480 2228 1346 c 0
 2354 1212 2416 1038 2416 824 c 0
 2416 558 2330 346 2160 192 c 0
 1988 38 1758 -40 1470 -40 c 0
EndSplineSet
Substitution2: "Single Substitution lookup 31 subtable" uni1E9E
Substitution2: "'aalt' Access All Alternates in Latin lookup 0 subtable" uni1E9E
EndChar

StartChar: agrave
Encoding: 224 224 157
Width: 2292
GlyphClass: 2
Flags: HW
AnchorPoint: "Anchor-2" 950 2920 basechar 0
AnchorPoint: "Anchor-1" 2150 0 basechar 0
AnchorPoint: "Anchor-0" 1146 0 basechar 0
LayerCount: 2
UndoRedoHistory
Layer: 1
Undoes
UndoOperation
Index: 0
Type: 1
WasModified: 0
WasOrder2: 0
Layer: 2
Width: 1146
VWidth: 2048
LBearingChange: 0
UnicodeEnc: 0
InstructionsLength: 0
EndUndoOperation
UndoOperation
Index: 1
Type: 3
WasModified: 0
WasOrder2: 0
Layer: 2
EndUndoOperation
EndUndoes
Redoes
EndRedoes
EndUndoRedoHistory
Fore
SplineSet
1662 0 m 1
 1552 324 l 1
 1528 324 l 1
 1466 208 1380 116 1268 50 c 0
 1158 -16 1032 -50 892 -50 c 0
 676 -50 502 8 372 124 c 0
 242 240 176 392 176 582 c 0
 176 764 242 912 372 1030 c 0
 504 1148 700 1224 958 1258 c 2
 1532 1336 l 1
 1532 1478 l 2
 1532 1600 1496 1698 1424 1768 c 0
 1354 1840 1252 1876 1118 1876 c 0
 996 1876 898 1850 826 1796 c 0
 754 1744 702 1662 672 1548 c 1
 242 1654 l 1
 292 1836 398 1976 556 2076 c 0
 716 2178 908 2228 1130 2228 c 0
 1416 2228 1632 2160 1776 2024 c 0
 1922 1888 1994 1696 1994 1446 c 2
 1994 426 l 1
 2150 0 l 1
 1662 0 l 1
418 3158 m 1
 888 3158 l 1
 1352 2458 l 1
 906 2458 l 1
 418 3158 l 1
638 602 m 0
 638 504 672 428 736 372 c 0
 804 314 896 286 1016 286 c 0
 1174 286 1298 338 1392 444 c 0
 1486 550 1532 694 1532 876 c 2
 1532 1044 l 1
 1074 984 l 2
 784 944 638 816 638 602 c 0
EndSplineSet
EndChar

StartChar: aacute
Encoding: 225 225 158
Width: 2292
GlyphClass: 2
Flags: HW
AnchorPoint: "Anchor-2" 1294 2970 basechar 0
AnchorPoint: "Anchor-1" 2150 0 basechar 0
AnchorPoint: "Anchor-0" 1146 0 basechar 0
LayerCount: 2
UndoRedoHistory
Layer: 1
Undoes
UndoOperation
Index: 0
Type: 1
WasModified: 0
WasOrder2: 0
Layer: 2
Width: 1146
VWidth: 2048
LBearingChange: 0
UnicodeEnc: 0
InstructionsLength: 0
EndUndoOperation
UndoOperation
Index: 1
Type: 3
WasModified: 0
WasOrder2: 0
Layer: 2
EndUndoOperation
EndUndoes
Redoes
EndRedoes
EndUndoRedoHistory
Fore
SplineSet
1662 0 m 1
 1552 324 l 1
 1528 324 l 1
 1466 208 1380 116 1268 50 c 0
 1158 -16 1032 -50 892 -50 c 0
 676 -50 502 8 372 124 c 0
 242 240 176 392 176 582 c 0
 176 764 242 912 372 1030 c 0
 504 1148 700 1224 958 1258 c 2
 1532 1336 l 1
 1532 1478 l 2
 1532 1600 1496 1698 1424 1768 c 0
 1354 1840 1252 1876 1118 1876 c 0
 996 1876 898 1850 826 1796 c 0
 754 1744 702 1662 672 1548 c 1
 242 1654 l 1
 292 1836 398 1976 556 2076 c 0
 716 2178 908 2228 1130 2228 c 0
 1416 2228 1632 2160 1776 2024 c 0
 1922 1888 1994 1696 1994 1446 c 2
 1994 426 l 1
 2150 0 l 1
 1662 0 l 1
638 602 m 0
 638 504 672 428 736 372 c 0
 804 314 896 286 1016 286 c 0
 1174 286 1298 338 1392 444 c 0
 1486 550 1532 694 1532 876 c 2
 1532 1044 l 1
 1074 984 l 2
 784 944 638 816 638 602 c 0
914 2458 m 1
 1376 3158 l 1
 1848 3158 l 1
 1356 2458 l 1
 914 2458 l 1
EndSplineSet
EndChar

StartChar: acircumflex
Encoding: 226 226 159
Width: 2292
GlyphClass: 2
Flags: HW
AnchorPoint: "Anchor-2" 1138 3072 basechar 0
AnchorPoint: "Anchor-1" 2150 0 basechar 0
AnchorPoint: "Anchor-0" 1146 0 basechar 0
LayerCount: 2
UndoRedoHistory
Layer: 1
Undoes
UndoOperation
Index: 0
Type: 1
WasModified: 0
WasOrder2: 0
Layer: 2
Width: 1146
VWidth: 2048
LBearingChange: 0
UnicodeEnc: 0
InstructionsLength: 0
EndUndoOperation
UndoOperation
Index: 1
Type: 3
WasModified: 0
WasOrder2: 0
Layer: 2
EndUndoOperation
EndUndoes
Redoes
EndRedoes
EndUndoRedoHistory
Fore
SplineSet
1662 0 m 1
 1552 324 l 1
 1528 324 l 1
 1466 208 1380 116 1268 50 c 0
 1158 -16 1032 -50 892 -50 c 0
 676 -50 502 8 372 124 c 0
 242 240 176 392 176 582 c 0
 176 764 242 912 372 1030 c 0
 504 1148 700 1224 958 1258 c 2
 1532 1336 l 1
 1532 1478 l 2
 1532 1600 1496 1698 1424 1768 c 0
 1354 1840 1252 1876 1118 1876 c 0
 996 1876 898 1850 826 1796 c 0
 754 1744 702 1662 672 1548 c 1
 242 1654 l 1
 292 1836 398 1976 556 2076 c 0
 716 2178 908 2228 1130 2228 c 0
 1416 2228 1632 2160 1776 2024 c 0
 1922 1888 1994 1696 1994 1446 c 2
 1994 426 l 1
 2150 0 l 1
 1662 0 l 1
402 2458 m 1
 884 3158 l 1
 1392 3158 l 1
 1876 2458 l 1
 1458 2458 l 1
 1138 2924 l 1
 820 2458 l 1
 402 2458 l 1
638 602 m 0
 638 504 672 428 736 372 c 0
 804 314 896 286 1016 286 c 0
 1174 286 1298 338 1392 444 c 0
 1486 550 1532 694 1532 876 c 2
 1532 1044 l 1
 1074 984 l 2
 784 944 638 816 638 602 c 0
EndSplineSet
EndChar

StartChar: atilde
Encoding: 227 227 160
Width: 2292
GlyphClass: 2
Flags: HW
AnchorPoint: "Anchor-2" 1138 2970 basechar 0
AnchorPoint: "Anchor-1" 2150 0 basechar 0
AnchorPoint: "Anchor-0" 1146 0 basechar 0
LayerCount: 2
UndoRedoHistory
Layer: 1
Undoes
UndoOperation
Index: 0
Type: 1
WasModified: 0
WasOrder2: 0
Layer: 2
Width: 1146
VWidth: 2048
LBearingChange: 0
UnicodeEnc: 0
InstructionsLength: 0
EndUndoOperation
UndoOperation
Index: 1
Type: 3
WasModified: 0
WasOrder2: 0
Layer: 2
EndUndoOperation
EndUndoes
Redoes
EndRedoes
EndUndoRedoHistory
Fore
SplineSet
1662 0 m 1
 1552 324 l 1
 1528 324 l 1
 1466 208 1380 116 1268 50 c 0
 1158 -16 1032 -50 892 -50 c 0
 676 -50 502 8 372 124 c 0
 242 240 176 392 176 582 c 0
 176 764 242 912 372 1030 c 0
 504 1148 700 1224 958 1258 c 2
 1532 1336 l 1
 1532 1478 l 2
 1532 1600 1496 1698 1424 1768 c 0
 1354 1840 1252 1876 1118 1876 c 0
 996 1876 898 1850 826 1796 c 0
 754 1744 702 1662 672 1548 c 1
 242 1654 l 1
 292 1836 398 1976 556 2076 c 0
 716 2178 908 2228 1130 2228 c 0
 1416 2228 1632 2160 1776 2024 c 0
 1922 1888 1994 1696 1994 1446 c 2
 1994 426 l 1
 2150 0 l 1
 1662 0 l 1
406 2556 m 1
 406 2738 448 2876 536 2976 c 0
 620 3072 730 3122 864 3122 c 0
 926 3122 988 3108 1048 3080 c 0
 1112 3050 1162 3020 1202 2986 c 0
 1242 2952 1284 2922 1326 2892 c 0
 1368 2864 1404 2850 1434 2850 c 0
 1478 2850 1516 2870 1544 2912 c 0
 1576 2954 1590 3014 1590 3096 c 1
 1916 3096 l 1
 1916 2914 1872 2776 1786 2678 c 0
 1700 2580 1590 2532 1458 2532 c 0
 1396 2532 1336 2546 1272 2574 c 0
 1212 2602 1160 2632 1120 2668 c 0
 1078 2700 1036 2732 994 2760 c 0
 952 2788 916 2802 888 2802 c 0
 844 2802 806 2782 776 2740 c 0
 746 2698 730 2638 730 2556 c 1
 406 2556 l 1
638 602 m 0
 638 504 672 428 736 372 c 0
 804 314 896 286 1016 286 c 0
 1174 286 1298 338 1392 444 c 0
 1486 550 1532 694 1532 876 c 2
 1532 1044 l 1
 1074 984 l 2
 784 944 638 816 638 602 c 0
EndSplineSet
EndChar

StartChar: adieresis
Encoding: 228 228 161
Width: 2292
GlyphClass: 2
Flags: HW
AnchorPoint: "Anchor-2" 1138 3032 basechar 0
AnchorPoint: "Anchor-1" 2150 0 basechar 0
AnchorPoint: "Anchor-0" 1146 0 basechar 0
LayerCount: 2
UndoRedoHistory
Layer: 1
Undoes
UndoOperation
Index: 0
Type: 1
WasModified: 0
WasOrder2: 0
Layer: 2
Width: 1146
VWidth: 2048
LBearingChange: 0
UnicodeEnc: 0
InstructionsLength: 0
EndUndoOperation
UndoOperation
Index: 1
Type: 3
WasModified: 0
WasOrder2: 0
Layer: 2
EndUndoOperation
EndUndoes
Redoes
EndRedoes
EndUndoRedoHistory
Fore
SplineSet
1662 0 m 1
 1552 324 l 1
 1528 324 l 1
 1466 208 1380 116 1268 50 c 0
 1158 -16 1032 -50 892 -50 c 0
 676 -50 502 8 372 124 c 0
 242 240 176 392 176 582 c 0
 176 764 242 912 372 1030 c 0
 504 1148 700 1224 958 1258 c 2
 1532 1336 l 1
 1532 1478 l 2
 1532 1600 1496 1698 1424 1768 c 0
 1354 1840 1252 1876 1118 1876 c 0
 996 1876 898 1850 826 1796 c 0
 754 1744 702 1662 672 1548 c 1
 242 1654 l 1
 292 1836 398 1976 556 2076 c 0
 716 2178 908 2228 1130 2228 c 0
 1416 2228 1632 2160 1776 2024 c 0
 1922 1888 1994 1696 1994 1446 c 2
 1994 426 l 1
 2150 0 l 1
 1662 0 l 1
438 2806 m 0
 438 2884 462 2946 512 2996 c 0
 562 3044 624 3068 700 3068 c 0
 774 3068 834 3044 884 2996 c 0
 934 2946 958 2884 958 2806 c 0
 958 2734 932 2672 884 2624 c 0
 832 2572 772 2548 700 2548 c 0
 626 2548 564 2572 512 2622 c 0
 464 2672 438 2732 438 2806 c 0
638 602 m 0
 638 504 672 428 736 372 c 0
 804 314 896 286 1016 286 c 0
 1174 286 1298 338 1392 444 c 0
 1486 550 1532 694 1532 876 c 2
 1532 1044 l 1
 1074 984 l 2
 784 944 638 816 638 602 c 0
1318 2806 m 0
 1318 2882 1342 2944 1392 2994 c 0
 1440 3044 1502 3068 1576 3068 c 0
 1652 3068 1716 3044 1764 2994 c 0
 1816 2944 1840 2882 1840 2806 c 0
 1840 2734 1816 2672 1764 2624 c 0
 1716 2572 1652 2548 1576 2548 c 0
 1502 2548 1442 2572 1392 2624 c 0
 1342 2672 1318 2734 1318 2806 c 0
EndSplineSet
EndChar

StartChar: aring
Encoding: 229 229 162
Width: 2292
GlyphClass: 2
Flags: HW
AnchorPoint: "Anchor-2" 1138 3310 basechar 0
AnchorPoint: "Anchor-1" 2150 0 basechar 0
AnchorPoint: "Anchor-0" 1146 0 basechar 0
LayerCount: 2
UndoRedoHistory
Layer: 1
Undoes
UndoOperation
Index: 0
Type: 1
WasModified: 0
WasOrder2: 0
Layer: 2
Width: 1146
VWidth: 2048
LBearingChange: 0
UnicodeEnc: 0
InstructionsLength: 0
EndUndoOperation
UndoOperation
Index: 1
Type: 3
WasModified: 0
WasOrder2: 0
Layer: 2
EndUndoOperation
EndUndoes
Redoes
EndRedoes
EndUndoRedoHistory
Fore
SplineSet
1662 0 m 1
 1552 324 l 1
 1528 324 l 1
 1466 208 1380 116 1268 50 c 0
 1158 -16 1032 -50 892 -50 c 0
 676 -50 502 8 372 124 c 0
 242 240 176 392 176 582 c 0
 176 764 242 912 372 1030 c 0
 504 1148 700 1224 958 1258 c 2
 1532 1336 l 1
 1532 1478 l 2
 1532 1600 1496 1698 1424 1768 c 0
 1354 1840 1252 1876 1118 1876 c 0
 996 1876 898 1850 826 1796 c 0
 754 1744 702 1662 672 1548 c 1
 242 1654 l 1
 292 1836 398 1976 556 2076 c 0
 716 2178 908 2228 1130 2228 c 0
 1416 2228 1632 2160 1776 2024 c 0
 1922 1888 1994 1696 1994 1446 c 2
 1994 426 l 1
 2150 0 l 1
 1662 0 l 1
630 2932 m 0
 630 3068 678 3180 776 3270 c 0
 872 3360 992 3404 1138 3404 c 0
 1282 3404 1402 3360 1500 3270 c 0
 1598 3180 1646 3068 1646 2932 c 0
 1646 2794 1598 2680 1500 2592 c 0
 1404 2502 1284 2458 1138 2458 c 0
 992 2458 870 2502 774 2590 c 0
 678 2678 630 2792 630 2932 c 0
638 602 m 0
 638 504 672 428 736 372 c 0
 804 314 896 286 1016 286 c 0
 1174 286 1298 338 1392 444 c 0
 1486 550 1532 694 1532 876 c 2
 1532 1044 l 1
 1074 984 l 2
 784 944 638 816 638 602 c 0
918 2932 m 0
 918 2862 940 2804 980 2764 c 0
 1024 2720 1076 2700 1138 2700 c 0
 1200 2700 1254 2720 1296 2764 c 0
 1338 2804 1360 2862 1360 2932 c 0
 1360 2998 1338 3052 1296 3096 c 0
 1254 3136 1200 3158 1138 3158 c 0
 1076 3158 1024 3136 980 3096 c 0
 940 3052 918 2998 918 2932 c 0
EndSplineSet
EndChar

StartChar: ae
Encoding: 230 230 163
Width: 3624
GlyphClass: 2
Flags: HW
AnchorPoint: "Anchor-2" 1818 2180 basechar 0
AnchorPoint: "Anchor-0" 1818 0 basechar 0
LayerCount: 2
UndoRedoHistory
Layer: 1
Undoes
UndoOperation
Index: 0
Type: 1
WasModified: 0
WasOrder2: 0
Layer: 2
Width: 1812
VWidth: 2048
LBearingChange: 0
UnicodeEnc: 0
InstructionsLength: 0
EndUndoOperation
UndoOperation
Index: 1
Type: 3
WasModified: 0
WasOrder2: 0
Layer: 2
EndUndoOperation
EndUndoes
Redoes
EndRedoes
EndUndoRedoHistory
Fore
SplineSet
1074 984 m 2
 784 944 638 816 638 602 c 0
 638 504 672 428 736 372 c 0
 804 314 896 286 1016 286 c 0
 1174 286 1300 340 1392 448 c 0
 1486 554 1532 698 1532 876 c 2
 1532 1044 l 1
 1074 984 l 2
176 582 m 0
 176 764 242 912 372 1030 c 0
 504 1148 700 1224 958 1258 c 2
 1532 1336 l 1
 1532 1446 l 2
 1532 1584 1496 1692 1424 1764 c 0
 1352 1840 1246 1876 1106 1876 c 0
 874 1876 730 1770 672 1556 c 1
 242 1654 l 1
 292 1832 392 1972 544 2076 c 0
 696 2176 880 2228 1098 2228 c 0
 1260 2228 1406 2196 1536 2128 c 0
 1666 2064 1760 1972 1818 1856 c 1
 1840 1856 l 1
 1906 1972 2002 2064 2132 2128 c 0
 2260 2196 2402 2228 2556 2228 c 0
 2836 2228 3058 2136 3224 1952 c 0
 3388 1766 3470 1516 3470 1200 c 0
 3470 1126 3466 1054 3458 988 c 1
 1994 988 l 1
 2004 768 2060 602 2164 488 c 0
 2270 376 2416 320 2606 320 c 0
 2826 320 2982 418 3076 614 c 1
 3420 446 l 1
 3266 116 2990 -50 2588 -50 c 0
 2394 -50 2226 -6 2088 80 c 0
 1948 166 1846 288 1782 442 c 1
 1758 442 l 1
 1696 300 1594 182 1448 88 c 0
 1302 -4 1134 -50 942 -50 c 0
 708 -50 522 8 384 120 c 0
 246 236 176 388 176 582 c 0
1994 1298 m 1
 3036 1298 l 1
 3032 1496 2986 1644 2896 1744 c 0
 2806 1846 2684 1896 2528 1896 c 0
 2372 1896 2248 1844 2152 1736 c 0
 2060 1632 2006 1484 1994 1298 c 1
EndSplineSet
EndChar

StartChar: ccedilla
Encoding: 231 231 164
Width: 2182
GlyphClass: 2
Flags: HW
AnchorPoint: "Anchor-2" 1212 2180 basechar 0
AnchorPoint: "Anchor-0" 1212 -868 basechar 0
LayerCount: 2
UndoRedoHistory
Layer: 1
Undoes
UndoOperation
Index: 0
Type: 1
WasModified: 0
WasOrder2: 0
Layer: 2
Width: 1091
VWidth: 2048
LBearingChange: 0
UnicodeEnc: 0
InstructionsLength: 0
EndUndoOperation
UndoOperation
Index: 1
Type: 3
WasModified: 0
WasOrder2: 0
Layer: 2
EndUndoOperation
EndUndoes
Redoes
EndRedoes
EndUndoRedoHistory
Fore
SplineSet
1212 -992 m 0
 1074 -992 948 -968 832 -922 c 1
 832 -676 l 1
 960 -714 1068 -734 1156 -734 c 0
 1314 -734 1392 -680 1392 -574 c 0
 1392 -476 1322 -426 1184 -426 c 0
 1126 -426 1062 -430 996 -438 c 1
 1040 -36 l 1
 778 2 568 120 408 320 c 0
 248 520 168 778 168 1094 c 0
 168 1440 264 1716 456 1920 c 0
 650 2126 896 2228 1196 2228 c 0
 1656 2228 1956 2040 2094 1662 c 1
 1692 1508 l 1
 1600 1746 1434 1864 1196 1864 c 0
 1040 1864 910 1798 804 1668 c 0
 700 1536 648 1344 648 1094 c 0
 648 840 700 646 806 514 c 0
 912 382 1044 316 1204 316 c 0
 1444 316 1610 438 1704 680 c 1
 2102 528 l 1
 1976 186 1724 -2 1344 -40 c 1
 1324 -208 l 1
 1352 -208 l 2
 1476 -208 1574 -240 1648 -302 c 0
 1722 -364 1758 -456 1758 -574 c 0
 1758 -708 1712 -810 1616 -884 c 0
 1524 -956 1388 -992 1212 -992 c 0
EndSplineSet
EndChar

StartChar: egrave
Encoding: 232 232 165
Width: 2366
GlyphClass: 2
Flags: HW
AnchorPoint: "Anchor-2" 1028 2920 basechar 0
AnchorPoint: "Anchor-1" 1810 0 basechar 0
AnchorPoint: "Anchor-0" 1188 0 basechar 0
LayerCount: 2
UndoRedoHistory
Layer: 1
Undoes
UndoOperation
Index: 0
Type: 1
WasModified: 0
WasOrder2: 0
Layer: 2
Width: 1183
VWidth: 2048
LBearingChange: 0
UnicodeEnc: 0
InstructionsLength: 0
EndUndoOperation
UndoOperation
Index: 1
Type: 3
WasModified: 0
WasOrder2: 0
Layer: 2
EndUndoOperation
EndUndoes
Redoes
EndRedoes
EndUndoRedoHistory
Fore
SplineSet
1232 -50 m 0
 902 -50 644 56 452 266 c 0
 264 476 168 756 168 1106 c 0
 168 1436 266 1706 464 1916 c 0
 662 2124 910 2228 1212 2228 c 0
 1518 2228 1762 2136 1940 1952 c 0
 2118 1766 2208 1516 2208 1200 c 0
 2208 1126 2206 1054 2200 988 c 1
 638 988 l 1
 646 778 704 616 810 496 c 0
 916 380 1068 320 1266 320 c 0
 1514 320 1694 416 1806 610 c 1
 2166 410 l 1
 2000 104 1688 -50 1232 -50 c 0
496 3158 m 1
 966 3158 l 1
 1430 2458 l 1
 984 2458 l 1
 496 3158 l 1
644 1298 m 1
 1758 1298 l 1
 1752 1490 1702 1638 1604 1740 c 0
 1506 1844 1376 1896 1212 1896 c 0
 1050 1896 920 1846 820 1748 c 0
 718 1650 660 1500 644 1298 c 1
EndSplineSet
EndChar

StartChar: eacute
Encoding: 233 233 166
Width: 2366
GlyphClass: 2
Flags: HW
AnchorPoint: "Anchor-2" 1372 2970 basechar 0
AnchorPoint: "Anchor-1" 1810 0 basechar 0
AnchorPoint: "Anchor-0" 1188 0 basechar 0
LayerCount: 2
UndoRedoHistory
Layer: 1
Undoes
UndoOperation
Index: 0
Type: 1
WasModified: 0
WasOrder2: 0
Layer: 2
Width: 1183
VWidth: 2048
LBearingChange: 0
UnicodeEnc: 0
InstructionsLength: 0
EndUndoOperation
UndoOperation
Index: 1
Type: 3
WasModified: 0
WasOrder2: 0
Layer: 2
EndUndoOperation
EndUndoes
Redoes
EndRedoes
EndUndoRedoHistory
Fore
SplineSet
1232 -50 m 0
 902 -50 644 56 452 266 c 0
 264 476 168 756 168 1106 c 0
 168 1436 266 1706 464 1916 c 0
 662 2124 910 2228 1212 2228 c 0
 1518 2228 1762 2136 1940 1952 c 0
 2118 1766 2208 1516 2208 1200 c 0
 2208 1126 2206 1054 2200 988 c 1
 638 988 l 1
 646 778 704 616 810 496 c 0
 916 380 1068 320 1266 320 c 0
 1514 320 1694 416 1806 610 c 1
 2166 410 l 1
 2000 104 1688 -50 1232 -50 c 0
644 1298 m 1
 1758 1298 l 1
 1752 1490 1702 1638 1604 1740 c 0
 1506 1844 1376 1896 1212 1896 c 0
 1050 1896 920 1846 820 1748 c 0
 718 1650 660 1500 644 1298 c 1
992 2458 m 1
 1454 3158 l 1
 1926 3158 l 1
 1434 2458 l 1
 992 2458 l 1
EndSplineSet
EndChar

StartChar: ecircumflex
Encoding: 234 234 167
Width: 2366
GlyphClass: 2
Flags: HW
AnchorPoint: "Anchor-2" 1212 3072 basechar 0
AnchorPoint: "Anchor-1" 1810 0 basechar 0
AnchorPoint: "Anchor-0" 1188 0 basechar 0
LayerCount: 2
UndoRedoHistory
Layer: 1
Undoes
UndoOperation
Index: 0
Type: 1
WasModified: 0
WasOrder2: 0
Layer: 2
Width: 1183
VWidth: 2048
LBearingChange: 0
UnicodeEnc: 0
InstructionsLength: 0
EndUndoOperation
UndoOperation
Index: 1
Type: 3
WasModified: 0
WasOrder2: 0
Layer: 2
EndUndoOperation
EndUndoes
Redoes
EndRedoes
EndUndoRedoHistory
Fore
SplineSet
1232 -50 m 0
 902 -50 644 56 452 266 c 0
 264 476 168 756 168 1106 c 0
 168 1436 266 1706 464 1916 c 0
 662 2124 910 2228 1212 2228 c 0
 1518 2228 1762 2136 1940 1952 c 0
 2118 1766 2208 1516 2208 1200 c 0
 2208 1126 2206 1054 2200 988 c 1
 638 988 l 1
 646 778 704 616 810 496 c 0
 916 380 1068 320 1266 320 c 0
 1514 320 1694 416 1806 610 c 1
 2166 410 l 1
 2000 104 1688 -50 1232 -50 c 0
476 2458 m 1
 958 3158 l 1
 1466 3158 l 1
 1950 2458 l 1
 1532 2458 l 1
 1212 2924 l 1
 892 2458 l 1
 476 2458 l 1
644 1298 m 1
 1758 1298 l 1
 1752 1490 1702 1638 1604 1740 c 0
 1506 1844 1376 1896 1212 1896 c 0
 1050 1896 920 1846 820 1748 c 0
 718 1650 660 1500 644 1298 c 1
EndSplineSet
EndChar

StartChar: edieresis
Encoding: 235 235 168
Width: 2366
GlyphClass: 2
Flags: HW
AnchorPoint: "Anchor-2" 1212 3032 basechar 0
AnchorPoint: "Anchor-1" 1810 0 basechar 0
AnchorPoint: "Anchor-0" 1188 0 basechar 0
LayerCount: 2
UndoRedoHistory
Layer: 1
Undoes
UndoOperation
Index: 0
Type: 1
WasModified: 0
WasOrder2: 0
Layer: 2
Width: 1183
VWidth: 2048
LBearingChange: 0
UnicodeEnc: 0
InstructionsLength: 0
EndUndoOperation
UndoOperation
Index: 1
Type: 3
WasModified: 0
WasOrder2: 0
Layer: 2
EndUndoOperation
EndUndoes
Redoes
EndRedoes
EndUndoRedoHistory
Fore
SplineSet
1232 -50 m 0
 902 -50 644 56 452 266 c 0
 264 476 168 756 168 1106 c 0
 168 1436 266 1706 464 1916 c 0
 662 2124 910 2228 1212 2228 c 0
 1518 2228 1762 2136 1940 1952 c 0
 2118 1766 2208 1516 2208 1200 c 0
 2208 1126 2206 1054 2200 988 c 1
 638 988 l 1
 646 778 704 616 810 496 c 0
 916 380 1068 320 1266 320 c 0
 1514 320 1694 416 1806 610 c 1
 2166 410 l 1
 2000 104 1688 -50 1232 -50 c 0
512 2806 m 0
 512 2884 536 2946 586 2996 c 0
 636 3044 698 3068 774 3068 c 0
 848 3068 908 3044 958 2996 c 0
 1008 2946 1032 2884 1032 2806 c 0
 1032 2734 1008 2672 956 2624 c 0
 908 2572 846 2548 774 2548 c 0
 698 2548 636 2572 586 2622 c 0
 536 2672 512 2732 512 2806 c 0
644 1298 m 1
 1758 1298 l 1
 1752 1490 1702 1638 1604 1740 c 0
 1506 1844 1376 1896 1212 1896 c 0
 1050 1896 920 1846 820 1748 c 0
 718 1650 660 1500 644 1298 c 1
1392 2806 m 0
 1392 2882 1416 2944 1464 2994 c 0
 1514 3044 1576 3068 1650 3068 c 0
 1726 3068 1788 3044 1838 2994 c 0
 1888 2944 1912 2882 1912 2806 c 0
 1912 2732 1888 2672 1838 2622 c 0
 1788 2572 1726 2548 1650 2548 c 0
 1576 2548 1516 2572 1466 2624 c 0
 1416 2672 1392 2734 1392 2806 c 0
EndSplineSet
EndChar

StartChar: igrave
Encoding: 236 236 169
Width: 1048
GlyphClass: 2
Flags: HW
AnchorPoint: "Anchor-2" 336 2920 basechar 0
AnchorPoint: "Anchor-1" 758 0 basechar 0
AnchorPoint: "Anchor-0" 524 0 basechar 0
LayerCount: 2
UndoRedoHistory
Layer: 1
Undoes
UndoOperation
Index: 0
Type: 1
WasModified: 0
WasOrder2: 0
Layer: 2
Width: 524
VWidth: 2048
LBearingChange: 0
UnicodeEnc: 0
InstructionsLength: 0
EndUndoOperation
UndoOperation
Index: 1
Type: 3
WasModified: 0
WasOrder2: 0
Layer: 2
EndUndoOperation
EndUndoes
Redoes
EndRedoes
EndUndoRedoHistory
Fore
SplineSet
286 0 m 1
 286 2180 l 1
 758 2180 l 1
 758 0 l 1
 286 0 l 1
-196 3158 m 1
 274 3158 l 1
 738 2458 l 1
 290 2458 l 1
 -196 3158 l 1
EndSplineSet
EndChar

StartChar: iacute
Encoding: 237 237 170
Width: 1048
GlyphClass: 2
Flags: HW
AnchorPoint: "Anchor-2" 684 2970 basechar 0
AnchorPoint: "Anchor-1" 758 0 basechar 0
AnchorPoint: "Anchor-0" 524 0 basechar 0
LayerCount: 2
UndoRedoHistory
Layer: 1
Undoes
UndoOperation
Index: 0
Type: 1
WasModified: 0
WasOrder2: 0
Layer: 2
Width: 524
VWidth: 2048
LBearingChange: 0
UnicodeEnc: 0
InstructionsLength: 0
EndUndoOperation
UndoOperation
Index: 1
Type: 3
WasModified: 0
WasOrder2: 0
Layer: 2
EndUndoOperation
EndUndoes
Redoes
EndRedoes
EndUndoRedoHistory
Fore
SplineSet
286 0 m 1
 286 2180 l 1
 758 2180 l 1
 758 0 l 1
 286 0 l 1
304 2458 m 1
 766 3158 l 1
 1236 3158 l 1
 746 2458 l 1
 304 2458 l 1
EndSplineSet
EndChar

StartChar: icircumflex
Encoding: 238 238 171
Width: 1048
GlyphClass: 2
Flags: HW
AnchorPoint: "Anchor-2" 524 3072 basechar 0
AnchorPoint: "Anchor-1" 758 0 basechar 0
AnchorPoint: "Anchor-0" 524 0 basechar 0
LayerCount: 2
UndoRedoHistory
Layer: 1
Undoes
UndoOperation
Index: 0
Type: 1
WasModified: 0
WasOrder2: 0
Layer: 2
Width: 524
VWidth: 2048
LBearingChange: 0
UnicodeEnc: 0
InstructionsLength: 0
EndUndoOperation
UndoOperation
Index: 1
Type: 3
WasModified: 0
WasOrder2: 0
Layer: 2
EndUndoOperation
EndUndoes
Redoes
EndRedoes
EndUndoRedoHistory
Fore
SplineSet
286 0 m 1
 286 2180 l 1
 758 2180 l 1
 758 0 l 1
 286 0 l 1
-212 2458 m 1
 270 3158 l 1
 778 3158 l 1
 1262 2458 l 1
 844 2458 l 1
 524 2924 l 1
 204 2458 l 1
 -212 2458 l 1
EndSplineSet
EndChar

StartChar: idieresis
Encoding: 239 239 172
Width: 1048
GlyphClass: 2
Flags: HW
AnchorPoint: "Anchor-2" 524 3032 basechar 0
AnchorPoint: "Anchor-1" 758 0 basechar 0
AnchorPoint: "Anchor-0" 524 0 basechar 0
LayerCount: 2
UndoRedoHistory
Layer: 1
Undoes
UndoOperation
Index: 0
Type: 1
WasModified: 0
WasOrder2: 0
Layer: 2
Width: 524
VWidth: 2048
LBearingChange: 0
UnicodeEnc: 0
InstructionsLength: 0
EndUndoOperation
UndoOperation
Index: 1
Type: 3
WasModified: 0
WasOrder2: 0
Layer: 2
EndUndoOperation
EndUndoes
Redoes
EndRedoes
EndUndoRedoHistory
Fore
SplineSet
286 0 m 1
 286 2180 l 1
 758 2180 l 1
 758 0 l 1
 286 0 l 1
-176 2806 m 0
 -176 2884 -152 2946 -102 2996 c 0
 -52 3044 10 3068 86 3068 c 0
 160 3068 220 3044 270 2996 c 0
 320 2946 344 2884 344 2806 c 0
 344 2734 320 2672 268 2624 c 0
 220 2572 158 2548 86 2548 c 0
 10 2548 -52 2572 -102 2622 c 0
 -152 2672 -176 2732 -176 2806 c 0
704 2806 m 0
 704 2882 728 2944 776 2994 c 0
 826 3044 888 3068 962 3068 c 0
 1038 3068 1100 3044 1150 2994 c 0
 1200 2944 1224 2882 1224 2806 c 0
 1224 2732 1200 2672 1150 2622 c 0
 1100 2572 1038 2548 962 2548 c 0
 888 2548 828 2572 778 2624 c 0
 728 2672 704 2734 704 2806 c 0
EndSplineSet
EndChar

StartChar: eth
Encoding: 240 240 173
Width: 2478
GlyphClass: 2
Flags: HW
AnchorPoint: "Anchor-2" 1246 3010 basechar 0
AnchorPoint: "Anchor-0" 1246 0 basechar 0
LayerCount: 2
UndoRedoHistory
Layer: 1
Undoes
UndoOperation
Index: 0
Type: 1
WasModified: 0
WasOrder2: 0
Layer: 2
Width: 1239
VWidth: 2048
LBearingChange: 0
UnicodeEnc: 0
InstructionsLength: 0
EndUndoOperation
UndoOperation
Index: 1
Type: 3
WasModified: 0
WasOrder2: 0
Layer: 2
EndUndoOperation
EndUndoes
Redoes
EndRedoes
EndUndoRedoHistory
Fore
SplineSet
1216 -50 m 0
 902 -50 648 52 456 260 c 0
 260 464 164 736 164 1074 c 0
 164 1398 252 1660 426 1864 c 0
 600 2064 824 2166 1098 2166 c 0
 1384 2166 1604 2034 1758 1770 c 1
 1782 1770 l 1
 1752 1868 1706 1964 1646 2062 c 0
 1586 2160 1486 2300 1344 2482 c 1
 708 2290 l 1
 708 2576 l 1
 1164 2712 l 1
 930 3010 l 1
 1478 3010 l 1
 1606 2842 l 1
 2084 2986 l 1
 2084 2712 l 1
 1778 2618 l 1
 1810 2576 l 2
 1982 2350 2106 2132 2184 1920 c 0
 2260 1712 2298 1486 2298 1246 c 0
 2298 844 2202 528 2010 296 c 0
 1818 66 1554 -50 1216 -50 c 0
652 1060 m 0
 652 834 704 654 808 520 c 0
 914 386 1054 320 1228 320 c 0
 1404 320 1544 388 1648 520 c 0
 1750 656 1802 834 1802 1060 c 0
 1802 1286 1750 1466 1646 1600 c 0
 1542 1732 1402 1798 1228 1798 c 0
 1050 1798 910 1732 808 1598 c 0
 704 1464 652 1286 652 1060 c 0
EndSplineSet
EndChar

StartChar: ntilde
Encoding: 241 241 174
Width: 2420
GlyphClass: 2
Flags: HW
AnchorPoint: "Anchor-2" 1212 2970 basechar 0
AnchorPoint: "Anchor-0" 1212 0 basechar 0
LayerCount: 2
UndoRedoHistory
Layer: 1
Undoes
UndoOperation
Index: 0
Type: 1
WasModified: 0
WasOrder2: 0
Layer: 2
Width: 1210
VWidth: 2048
LBearingChange: 0
UnicodeEnc: 0
InstructionsLength: 0
EndUndoOperation
UndoOperation
Index: 1
Type: 3
WasModified: 0
WasOrder2: 0
Layer: 2
EndUndoOperation
EndUndoes
Redoes
EndRedoes
EndUndoRedoHistory
Fore
SplineSet
1684 1364 m 2
 1684 1524 1646 1644 1568 1726 c 0
 1492 1808 1388 1848 1254 1848 c 0
 1104 1848 984 1800 892 1704 c 0
 804 1606 758 1476 758 1310 c 2
 758 0 l 1
 286 0 l 1
 286 2180 l 1
 720 2180 l 1
 720 1798 l 1
 742 1798 l 1
 798 1932 884 2038 1000 2114 c 0
 1118 2190 1256 2228 1414 2228 c 0
 1646 2228 1828 2160 1958 2024 c 0
 2088 1890 2154 1690 2154 1426 c 2
 2154 0 l 1
 1684 0 l 1
 1684 1364 l 2
480 2556 m 1
 480 2738 524 2876 608 2976 c 0
 696 3072 804 3122 938 3122 c 0
 1000 3122 1060 3108 1124 3080 c 0
 1184 3050 1236 3020 1276 2986 c 0
 1316 2952 1358 2922 1400 2892 c 0
 1442 2864 1478 2850 1508 2850 c 0
 1552 2850 1588 2870 1618 2912 c 0
 1648 2954 1662 3014 1662 3096 c 1
 1990 3096 l 1
 1990 2914 1946 2776 1860 2678 c 0
 1774 2580 1664 2532 1532 2532 c 0
 1470 2532 1408 2546 1348 2574 c 0
 1284 2602 1234 2632 1192 2668 c 0
 1152 2700 1110 2732 1068 2760 c 0
 1026 2788 990 2802 962 2802 c 0
 916 2802 878 2782 848 2740 c 0
 818 2698 802 2638 802 2556 c 1
 480 2556 l 1
EndSplineSet
EndChar

StartChar: ograve
Encoding: 242 242 175
Width: 2490
GlyphClass: 2
Flags: HW
AnchorPoint: "Anchor-3" 1606 2180 basechar 0
AnchorPoint: "Anchor-2" 1056 2920 basechar 0
AnchorPoint: "Anchor-1" 1748 0 basechar 0
AnchorPoint: "Anchor-0" 1246 0 basechar 0
LayerCount: 2
UndoRedoHistory
Layer: 1
Undoes
UndoOperation
Index: 0
Type: 1
WasModified: 0
WasOrder2: 0
Layer: 2
Width: 1245
VWidth: 2048
LBearingChange: 0
UnicodeEnc: 0
InstructionsLength: 0
EndUndoOperation
UndoOperation
Index: 1
Type: 3
WasModified: 0
WasOrder2: 0
Layer: 2
EndUndoOperation
EndUndoes
Redoes
EndRedoes
EndUndoRedoHistory
Fore
SplineSet
1246 -50 m 0
 928 -50 668 54 468 264 c 0
 268 474 168 748 168 1090 c 0
 168 1432 268 1706 468 1916 c 0
 668 2124 928 2228 1246 2228 c 0
 1564 2228 1824 2124 2024 1916 c 0
 2222 1706 2322 1432 2322 1090 c 0
 2322 748 2222 472 2024 264 c 0
 1824 54 1564 -50 1246 -50 c 0
524 3158 m 1
 996 3158 l 1
 1458 2458 l 1
 1012 2458 l 1
 524 3158 l 1
652 1090 m 0
 652 834 706 640 816 512 c 0
 926 380 1068 316 1246 316 c 0
 1424 316 1566 380 1674 510 c 0
 1782 640 1836 832 1836 1090 c 0
 1836 1346 1782 1540 1674 1668 c 0
 1566 1800 1424 1864 1246 1864 c 0
 1068 1864 926 1798 816 1668 c 0
 706 1538 652 1344 652 1090 c 0
EndSplineSet
EndChar

StartChar: oacute
Encoding: 243 243 176
Width: 2490
GlyphClass: 2
Flags: HW
AnchorPoint: "Anchor-3" 1606 2180 basechar 0
AnchorPoint: "Anchor-2" 1400 2970 basechar 0
AnchorPoint: "Anchor-1" 1748 0 basechar 0
AnchorPoint: "Anchor-0" 1246 0 basechar 0
LayerCount: 2
UndoRedoHistory
Layer: 1
Undoes
UndoOperation
Index: 0
Type: 1
WasModified: 0
WasOrder2: 0
Layer: 2
Width: 1245
VWidth: 2048
LBearingChange: 0
UnicodeEnc: 0
InstructionsLength: 0
EndUndoOperation
UndoOperation
Index: 1
Type: 3
WasModified: 0
WasOrder2: 0
Layer: 2
EndUndoOperation
EndUndoes
Redoes
EndRedoes
EndUndoRedoHistory
Fore
SplineSet
1246 -50 m 0
 928 -50 668 54 468 264 c 0
 268 474 168 748 168 1090 c 0
 168 1432 268 1706 468 1916 c 0
 668 2124 928 2228 1246 2228 c 0
 1564 2228 1824 2124 2024 1916 c 0
 2222 1706 2322 1432 2322 1090 c 0
 2322 748 2222 472 2024 264 c 0
 1824 54 1564 -50 1246 -50 c 0
652 1090 m 0
 652 834 706 640 816 512 c 0
 926 380 1068 316 1246 316 c 0
 1424 316 1566 380 1674 510 c 0
 1782 640 1836 832 1836 1090 c 0
 1836 1346 1782 1540 1674 1668 c 0
 1566 1800 1424 1864 1246 1864 c 0
 1068 1864 926 1798 816 1668 c 0
 706 1538 652 1344 652 1090 c 0
1020 2458 m 1
 1482 3158 l 1
 1954 3158 l 1
 1462 2458 l 1
 1020 2458 l 1
EndSplineSet
EndChar

StartChar: ocircumflex
Encoding: 244 244 177
Width: 2490
GlyphClass: 2
Flags: HW
AnchorPoint: "Anchor-3" 1606 2180 basechar 0
AnchorPoint: "Anchor-2" 1246 3072 basechar 0
AnchorPoint: "Anchor-1" 1748 0 basechar 0
AnchorPoint: "Anchor-0" 1246 0 basechar 0
LayerCount: 2
UndoRedoHistory
Layer: 1
Undoes
UndoOperation
Index: 0
Type: 1
WasModified: 0
WasOrder2: 0
Layer: 2
Width: 1245
VWidth: 2048
LBearingChange: 0
UnicodeEnc: 0
InstructionsLength: 0
EndUndoOperation
UndoOperation
Index: 1
Type: 3
WasModified: 0
WasOrder2: 0
Layer: 2
EndUndoOperation
EndUndoes
Redoes
EndRedoes
EndUndoRedoHistory
Fore
SplineSet
1246 -50 m 0
 928 -50 668 54 468 264 c 0
 268 474 168 748 168 1090 c 0
 168 1432 268 1706 468 1916 c 0
 668 2124 928 2228 1246 2228 c 0
 1564 2228 1824 2124 2024 1916 c 0
 2222 1706 2322 1432 2322 1090 c 0
 2322 748 2222 472 2024 264 c 0
 1824 54 1564 -50 1246 -50 c 0
508 2458 m 1
 992 3158 l 1
 1500 3158 l 1
 1982 2458 l 1
 1564 2458 l 1
 1246 2924 l 1
 926 2458 l 1
 508 2458 l 1
652 1090 m 0
 652 834 706 640 816 512 c 0
 926 380 1068 316 1246 316 c 0
 1424 316 1566 380 1674 510 c 0
 1782 640 1836 832 1836 1090 c 0
 1836 1346 1782 1540 1674 1668 c 0
 1566 1800 1424 1864 1246 1864 c 0
 1068 1864 926 1798 816 1668 c 0
 706 1538 652 1344 652 1090 c 0
EndSplineSet
EndChar

StartChar: otilde
Encoding: 245 245 178
Width: 2490
GlyphClass: 2
Flags: HW
AnchorPoint: "Anchor-3" 1606 2180 basechar 0
AnchorPoint: "Anchor-2" 1246 2970 basechar 0
AnchorPoint: "Anchor-1" 1748 0 basechar 0
AnchorPoint: "Anchor-0" 1246 0 basechar 0
LayerCount: 2
UndoRedoHistory
Layer: 1
Undoes
UndoOperation
Index: 0
Type: 1
WasModified: 0
WasOrder2: 0
Layer: 2
Width: 1245
VWidth: 2048
LBearingChange: 0
UnicodeEnc: 0
InstructionsLength: 0
EndUndoOperation
UndoOperation
Index: 1
Type: 3
WasModified: 0
WasOrder2: 0
Layer: 2
EndUndoOperation
EndUndoes
Redoes
EndRedoes
EndUndoRedoHistory
Fore
SplineSet
1246 -50 m 0
 928 -50 668 54 468 264 c 0
 268 474 168 748 168 1090 c 0
 168 1432 268 1706 468 1916 c 0
 668 2124 928 2228 1246 2228 c 0
 1564 2228 1824 2124 2024 1916 c 0
 2222 1706 2322 1432 2322 1090 c 0
 2322 748 2222 472 2024 264 c 0
 1824 54 1564 -50 1246 -50 c 0
512 2556 m 1
 512 2738 556 2876 640 2976 c 0
 728 3072 836 3122 970 3122 c 0
 1032 3122 1092 3108 1156 3080 c 0
 1216 3050 1268 3020 1308 2986 c 0
 1348 2952 1390 2922 1432 2892 c 0
 1474 2864 1510 2850 1540 2850 c 0
 1584 2850 1620 2870 1652 2912 c 0
 1680 2954 1696 3014 1696 3096 c 1
 2024 3096 l 1
 2024 2914 1980 2776 1892 2678 c 0
 1806 2580 1696 2532 1564 2532 c 0
 1502 2532 1440 2546 1380 2574 c 0
 1316 2602 1266 2632 1226 2668 c 0
 1186 2700 1144 2732 1102 2760 c 0
 1060 2788 1024 2802 996 2802 c 0
 950 2802 912 2782 882 2740 c 0
 852 2698 836 2638 836 2556 c 1
 512 2556 l 1
652 1090 m 0
 652 834 706 640 816 512 c 0
 926 380 1068 316 1246 316 c 0
 1424 316 1566 380 1674 510 c 0
 1782 640 1836 832 1836 1090 c 0
 1836 1346 1782 1540 1674 1668 c 0
 1566 1800 1424 1864 1246 1864 c 0
 1068 1864 926 1798 816 1668 c 0
 706 1538 652 1344 652 1090 c 0
EndSplineSet
EndChar

StartChar: odieresis
Encoding: 246 246 179
Width: 2490
GlyphClass: 2
Flags: HW
AnchorPoint: "Anchor-3" 1606 2180 basechar 0
AnchorPoint: "Anchor-2" 1246 3032 basechar 0
AnchorPoint: "Anchor-1" 1748 0 basechar 0
AnchorPoint: "Anchor-0" 1246 0 basechar 0
LayerCount: 2
UndoRedoHistory
Layer: 1
Undoes
UndoOperation
Index: 0
Type: 1
WasModified: 0
WasOrder2: 0
Layer: 2
Width: 1245
VWidth: 2048
LBearingChange: 0
UnicodeEnc: 0
InstructionsLength: 0
EndUndoOperation
UndoOperation
Index: 1
Type: 3
WasModified: 0
WasOrder2: 0
Layer: 2
EndUndoOperation
EndUndoes
Redoes
EndRedoes
EndUndoRedoHistory
Fore
SplineSet
1246 -50 m 0
 928 -50 668 54 468 264 c 0
 268 474 168 748 168 1090 c 0
 168 1432 268 1706 468 1916 c 0
 668 2124 928 2228 1246 2228 c 0
 1564 2228 1824 2124 2024 1916 c 0
 2222 1706 2322 1432 2322 1090 c 0
 2322 748 2222 472 2024 264 c 0
 1824 54 1564 -50 1246 -50 c 0
544 2806 m 0
 544 2884 568 2946 618 2996 c 0
 668 3044 730 3068 806 3068 c 0
 880 3068 940 3044 990 2996 c 0
 1040 2946 1064 2884 1064 2806 c 0
 1064 2734 1040 2672 988 2624 c 0
 940 2572 878 2548 806 2548 c 0
 730 2548 668 2572 618 2622 c 0
 568 2672 544 2732 544 2806 c 0
652 1090 m 0
 652 834 706 640 816 512 c 0
 926 380 1068 316 1246 316 c 0
 1424 316 1566 380 1674 510 c 0
 1782 640 1836 832 1836 1090 c 0
 1836 1346 1782 1540 1674 1668 c 0
 1566 1800 1424 1864 1246 1864 c 0
 1068 1864 926 1798 816 1668 c 0
 706 1538 652 1344 652 1090 c 0
1426 2806 m 0
 1426 2882 1450 2944 1500 2994 c 0
 1548 3044 1610 3068 1684 3068 c 0
 1760 3068 1822 3044 1872 2994 c 0
 1922 2944 1946 2882 1946 2806 c 0
 1946 2732 1920 2672 1872 2622 c 0
 1820 2572 1758 2548 1684 2548 c 0
 1610 2548 1550 2572 1500 2624 c 0
 1450 2672 1426 2734 1426 2806 c 0
EndSplineSet
EndChar

